<svg width="587" height="587" viewBox="0 0 587 587" fill="none" xmlns="http://www.w3.org/2000/svg">
<path d="M241.41 79.832L129.657 225.021L430.201 150.307L262.8 74.4668C259.153 72.8116 255.053 72.4409 251.168 73.4153C247.284 74.3896 243.844 76.6515 241.41 79.832V79.832Z" fill="#EBEBEB"/>
<path d="M128.072 226.054L240.917 79.4681C243.433 76.1719 246.997 73.8307 251.021 72.83C255.046 71.8292 259.291 72.2285 263.058 73.962L432.114 150.542L128.072 226.054ZM255.451 73.4337C252.826 73.4355 250.237 74.0448 247.886 75.2138C245.536 76.3829 243.488 78.0801 241.903 80.1725V80.1725L131.23 223.999L428.322 150.143L262.553 75.0069C260.321 74.0005 257.899 73.4841 255.451 73.4924V73.4337Z" fill="#E0E0E0"/>
<path d="M129.649 225.026L431.251 150.052L471.885 313.511C472.689 316.747 472.175 320.17 470.456 323.027C468.736 325.884 465.952 327.942 462.716 328.746L185.518 397.654C182.282 398.458 178.858 397.944 176.001 396.225C173.144 394.505 171.087 391.721 170.282 388.485L129.649 225.026Z" fill="#F0F0F0"/>
<path d="M412.684 159.007L308.198 265.758L150.272 230.21L132.204 146.445C131.204 142.124 131.942 137.583 134.259 133.802C136.576 130.02 140.286 127.3 144.59 126.228L373.05 69.4421C375.204 68.9048 377.443 68.7976 379.638 69.1265C381.833 69.4555 383.942 70.2141 385.844 71.3591C387.746 72.5041 389.403 74.0129 390.721 75.7992C392.039 77.5855 392.992 79.6142 393.525 81.7691L412.684 159.007Z" fill="white"/>
<path d="M293.852 257.364L169.772 387.021C170.21 388.784 170.992 390.444 172.071 391.905C173.151 393.366 174.508 394.6 176.065 395.537C177.622 396.473 179.348 397.094 181.145 397.363C182.942 397.632 184.774 397.545 186.537 397.106L461.605 328.72C465.164 327.835 468.225 325.573 470.116 322.431C472.007 319.29 472.573 315.526 471.69 311.967L471.431 310.934L309.185 253.701C306.548 252.769 303.698 252.619 300.978 253.269C298.258 253.919 295.783 255.341 293.852 257.364V257.364Z" fill="#E0E0E0"/>
<path d="M254.21 138.595L164.834 160.829L167.104 169.955L256.48 147.721L254.21 138.595Z" fill="#E0E0E0"/>
<path d="M368.89 134.634L170.588 183.966L173.153 194.276L371.455 144.944L368.89 134.634Z" fill="#E0E0E0"/>
<path d="M375.162 159.823L176.86 209.155L179.425 219.466L377.727 170.134L375.162 159.823Z" fill="#E0E0E0"/>
<path d="M379.331 193.205L373.121 199.416L206.648 242.936L184.893 237.852L184.071 235.493L381.738 186.326L382.595 189.742L379.331 193.205Z" fill="#E0E0E0"/>
<path d="M336.75 236.584L261.755 255.228L238.827 249.992L350.909 222.109L336.75 236.584Z" fill="#E0E0E0"/>
<path d="M289.321 262.084C289.321 262.084 289.238 262.213 289.039 262.436L288.147 263.41L284.695 267.108L271.91 280.645C261.086 292.044 246.082 307.799 229.47 325.069C212.858 342.338 197.596 357.835 186.466 368.941C180.902 374.494 176.37 378.979 173.224 382.043L169.596 385.565L168.633 386.469C168.533 386.581 168.419 386.68 168.293 386.763C168.38 386.64 168.478 386.526 168.586 386.422L169.502 385.471L173.024 381.867L186.138 368.636C197.185 357.448 212.365 341.916 229.012 324.634C245.66 307.353 260.71 291.762 271.57 280.339L284.484 266.944L288.006 263.328L288.945 262.401C289.203 262.178 289.321 262.084 289.321 262.084Z" fill="#FAFAFA"/>
<path d="M471.431 310.91C471.373 311.075 436.775 299.065 394.159 284.084C351.543 269.104 317.039 256.824 317.097 256.66C317.156 256.495 351.754 268.494 394.37 283.474C436.986 298.454 471.49 310.734 471.431 310.91Z" fill="#FAFAFA"/>
<path d="M417.65 153.864C417.586 153.969 417.511 154.067 417.427 154.158L416.77 154.968L413.988 158.056L403.621 169.314C394.84 178.788 382.607 191.773 368.894 205.943C355.182 220.113 342.526 232.757 333.346 241.844L322.416 252.551L319.41 255.427L318.624 256.167C318.436 256.331 318.342 256.413 318.33 256.402C318.405 256.301 318.487 256.207 318.577 256.12L319.316 255.333L322.24 252.375L333.017 241.527C342.127 232.358 354.654 219.655 368.366 205.497C382.078 191.339 394.358 178.448 403.234 169.056L413.741 157.938L416.617 154.933L417.38 154.158C417.458 154.049 417.549 153.951 417.65 153.864Z" fill="#FAFAFA"/>
<path d="M289.321 262.084C289.181 262.076 289.043 262.052 288.91 262.013L287.736 261.732L283.04 260.558C279.025 259.548 273.19 258.127 265.97 256.437C251.541 253.02 231.525 248.618 209.406 243.828C187.288 239.038 167.283 234.565 152.878 231.031C145.67 229.27 139.847 227.791 135.844 226.711L131.23 225.455L130.056 225.115C129.917 225.085 129.783 225.038 129.657 224.974L130.067 225.056L131.241 225.326L135.937 226.5C139.964 227.509 145.799 228.918 153.019 230.621C167.448 234.037 187.453 238.439 209.582 243.229C231.712 248.019 251.706 252.492 266.111 256.026C273.319 257.787 279.142 259.254 283.145 260.346L287.747 261.602L288.921 261.943L289.321 262.084Z" fill="#FAFAFA"/>
<path d="M412.684 159.007C412.684 159.007 412.567 158.619 412.368 157.833L411.51 154.51C410.759 151.563 409.667 147.255 408.259 141.702L396.436 94.6009C395.81 92.112 395.172 89.5645 394.523 86.9582C394.206 85.6668 393.877 84.3402 393.537 83.0135C393.372 82.3444 393.208 81.6752 392.997 81.0295C392.812 80.3702 392.577 79.7265 392.292 79.1041C391.128 76.4703 389.298 74.1854 386.982 72.4745C384.666 70.7637 381.944 69.6862 379.085 69.3482C377.601 69.1429 376.096 69.1429 374.612 69.3482C373.132 69.6065 371.63 70.0174 370.115 70.3813L360.899 72.7293L341.634 77.484L256.038 98.8508L170.336 120.124L151.094 124.89L146.398 126.064C144.874 126.381 143.381 126.833 141.937 127.414C139.151 128.621 136.748 130.566 134.987 133.038C134.134 134.239 133.439 135.545 132.92 136.924C132.436 138.286 132.117 139.7 131.969 141.138C131.629 144.015 132.427 146.785 132.991 149.521C134.165 154.999 135.288 160.247 136.36 165.264C140.645 185.328 144.109 201.552 146.503 212.788C147.677 218.399 148.605 222.743 149.239 225.701C149.532 227.169 149.767 228.296 149.932 229.071C150.096 229.846 150.143 230.245 150.143 230.245C150.143 230.245 150.037 229.857 149.861 229.071C149.685 228.284 149.438 227.181 149.11 225.725C148.452 222.755 147.501 218.411 146.269 212.811C143.815 201.588 140.281 185.363 135.914 165.334C134.834 160.321 133.683 155.074 132.498 149.591C131.934 146.891 131.112 144.026 131.465 141.056C131.6 139.569 131.923 138.106 132.427 136.701C132.964 135.278 133.678 133.929 134.552 132.685C135.442 131.42 136.505 130.286 137.71 129.316C138.917 128.31 140.266 127.487 141.714 126.874C143.183 126.275 144.703 125.811 146.257 125.489L150.953 124.315L170.23 119.548L255.932 98.2286L341.634 76.9557L360.876 72.1893L370.092 69.9117C371.606 69.536 373.085 69.1369 374.635 68.8668C376.898 68.5288 379.206 68.6454 381.423 69.2099C383.641 69.7743 385.723 70.7752 387.549 72.154C389.872 73.9128 391.707 76.2366 392.879 78.9045C393.174 79.5457 393.417 80.2091 393.607 80.8886C393.818 81.5578 393.983 82.227 394.147 82.8961C394.476 84.2228 394.793 85.5494 395.121 86.8525C395.767 89.4588 396.389 92.0064 397.012 94.4953L408.634 141.678C409.984 147.243 411.041 151.563 411.757 154.51C412.109 155.978 412.379 157.093 412.555 157.856C412.731 158.619 412.684 159.007 412.684 159.007Z" fill="#E0E0E0"/>
<path d="M530.648 527.126C530.648 527.302 424.471 527.443 293.5 527.443C162.529 527.443 56.352 527.314 56.352 527.126C56.352 526.938 162.517 526.797 293.5 526.797C424.483 526.797 530.648 526.962 530.648 527.126Z" fill="#263238"/>
<path d="M281.42 97.0428L269.809 105.883L270.372 122.765L259.747 114.324L253.877 119.349L231.571 91.8068L281.42 97.0428Z" fill="#362A89"/>
<path d="M265.441 109.475C265.441 109.992 270.372 122.765 270.372 122.765L259.747 114.324L265.441 109.475Z" fill="#362A89"/>
<g opacity="0.3">
<path opacity="0.3" d="M265.441 109.475C265.441 109.992 270.372 122.765 270.372 122.765L259.747 114.324L265.441 109.475Z" fill="black"/>
</g>
<path d="M231.571 91.8068L265.441 109.475L270.372 122.765L269.809 105.883L231.571 91.8068Z" fill="#362A89"/>
<path opacity="0.1" d="M231.571 91.8068L265.441 109.475L270.372 122.765L269.809 105.883L231.571 91.8068Z" fill="black"/>
<path d="M325.491 319.586C323.404 319.517 321.354 319.018 319.469 318.119C321.556 318.188 323.606 318.687 325.491 319.586Z" fill="#263238"/>
<path d="M335.095 321.934C335.095 322.11 334.214 322.052 333.228 321.817C332.242 321.582 331.467 321.23 331.502 321.054C331.538 320.878 332.383 320.936 333.381 321.183C334.379 321.429 335.142 321.758 335.095 321.934Z" fill="#263238"/>
<path d="M295.461 120.558C294.419 120.573 293.383 120.41 292.396 120.077C291.362 119.95 290.36 119.635 289.438 119.149C290.485 119.012 291.549 119.116 292.549 119.454C293.594 119.583 294.593 119.961 295.461 120.558V120.558Z" fill="#263238"/>
<path d="M306.825 125.43C304.855 124.784 302.992 123.85 301.295 122.66C302.343 122.759 303.353 123.105 304.242 123.669C305.78 124.444 306.919 125.278 306.825 125.43Z" fill="#263238"/>
<path d="M316.675 132.897C316.546 133.026 315.501 132.145 314.186 131.042C312.871 129.938 311.838 128.999 311.991 128.846C312.992 129.2 313.896 129.783 314.632 130.549C315.912 131.676 316.804 132.779 316.675 132.897Z" fill="#263238"/>
<path d="M324.188 142.7C324.024 142.782 323.249 141.643 322.31 140.234C321.652 139.427 321.136 138.514 320.784 137.534C320.913 137.428 321.899 138.438 322.85 139.882C323.513 140.702 323.971 141.668 324.188 142.7V142.7Z" fill="#263238"/>
<path d="M328.45 154.287C327.946 153.377 327.597 152.389 327.417 151.364C327.024 150.396 326.806 149.367 326.771 148.323C327.405 149.168 327.835 150.149 328.027 151.188C328.422 152.17 328.567 153.235 328.45 154.287Z" fill="#263238"/>
<path d="M329.084 166.614C328.874 165.595 328.831 164.548 328.955 163.515C328.866 162.477 328.962 161.432 329.237 160.427C329.595 161.418 329.719 162.479 329.6 163.526C329.674 164.582 329.497 165.64 329.084 166.614Z" fill="#263238"/>
<path d="M325.879 178.518C326.005 177.488 326.299 176.485 326.748 175.548C326.987 174.542 327.383 173.579 327.922 172.695C327.979 173.753 327.765 174.808 327.299 175.76C327.06 176.782 326.572 177.73 325.879 178.518Z" fill="#263238"/>
<path d="M318.706 188.544C318.588 188.404 319.504 187.37 320.619 186.103C321.735 184.835 322.627 183.755 322.78 183.884C322.446 184.889 321.87 185.797 321.101 186.525C319.962 187.84 318.823 188.674 318.706 188.544Z" fill="#263238"/>
<path d="M308.351 195.213C309.144 194.542 310.04 194.003 311.004 193.616C311.872 193.041 312.827 192.613 313.834 192.348C313.152 193.16 312.281 193.793 311.298 194.191C310.415 194.77 309.403 195.121 308.351 195.213Z" fill="#263238"/>
<path d="M296.306 197.807C297.288 197.446 298.324 197.252 299.37 197.232C300.386 196.999 301.432 196.931 302.469 197.032C301.548 197.555 300.511 197.841 299.452 197.866C298.415 198.114 297.333 198.094 296.306 197.807Z" fill="#263238"/>
<path d="M284.214 195.518C286.221 195.936 288.186 196.537 290.084 197.314C289.031 197.445 287.963 197.3 286.984 196.892C285.956 196.685 285.001 196.211 284.214 195.518Z" fill="#263238"/>
<path d="M275.643 187.018C275.82 186.96 276.36 188.192 277.322 189.578C278.285 190.963 279.212 191.926 279.083 192.102C278.954 192.278 277.804 191.397 276.794 189.953C276.084 189.137 275.677 188.1 275.643 187.018Z" fill="#263238"/>
<path d="M280.856 177.403C280.856 177.591 279.576 178.002 278.238 178.953C276.9 179.904 276.183 181.09 276.019 180.996C275.855 180.902 276.371 179.493 277.862 178.436C278.692 177.723 279.763 177.354 280.856 177.403V177.403Z" fill="#263238"/>
<path d="M291.469 181.806C291.305 181.9 290.553 180.749 289.332 179.622C288.111 178.495 286.867 177.931 286.984 177.755C288.075 177.841 289.091 178.341 289.825 179.152C290.669 179.816 291.251 180.755 291.469 181.806V181.806Z" fill="#263238"/>
<path d="M291.868 193.792C291.955 192.769 292.148 191.758 292.443 190.775C292.531 189.748 292.724 188.733 293.019 187.746C293.334 188.771 293.334 189.867 293.019 190.892C292.938 191.953 292.537 192.965 291.868 193.792V193.792Z" fill="#263238"/>
<path d="M283.826 203.008C283.721 202.855 284.789 201.975 286.069 200.883C287.348 199.791 288.417 198.852 288.499 198.97C288.581 199.087 287.818 200.237 286.491 201.318C285.165 202.398 283.92 203.161 283.826 203.008Z" fill="#263238"/>
<path d="M272.849 208.714C273.626 208.011 274.536 207.472 275.526 207.129C276.429 206.596 277.432 206.257 278.473 206.131C276.798 207.374 274.883 208.254 272.849 208.714V208.714Z" fill="#263238"/>
<path d="M261.802 214.325C261.708 214.173 262.823 213.339 264.303 212.447C265.166 211.845 266.152 211.444 267.191 211.273C267.285 211.449 266.087 212.165 264.62 213.011C263.781 213.639 262.822 214.086 261.802 214.325V214.325Z" fill="#263238"/>
<path d="M252.41 222.403C252.281 222.285 253.091 221.135 254.324 219.925C255.003 219.12 255.859 218.482 256.824 218.059C256.942 218.2 255.991 219.233 254.781 220.407C253.572 221.581 252.598 222.52 252.41 222.403Z" fill="#263238"/>
<path d="M245.366 232.522C245.563 231.486 245.997 230.51 246.634 229.67C247.538 228.202 248.465 227.146 248.606 227.251C248.302 228.248 247.82 229.183 247.186 230.01C246.293 231.454 245.53 232.605 245.366 232.522Z" fill="#263238"/>
<path d="M240.858 244.028C240.798 242.976 240.991 241.925 241.421 240.963C241.642 239.931 242.105 238.965 242.771 238.146C242.428 240.187 241.783 242.165 240.858 244.016V244.028Z" fill="#263238"/>
<path d="M239.238 256.284C238.812 254.226 238.958 252.09 239.66 250.109C239.839 251.134 239.839 252.183 239.66 253.208C239.701 254.25 239.558 255.292 239.238 256.284V256.284Z" fill="#263238"/>
<path d="M240.858 268.529C240.331 267.621 239.999 266.614 239.883 265.571C239.538 264.571 239.45 263.502 239.625 262.459C240.08 263.399 240.381 264.406 240.517 265.441C240.843 266.436 240.959 267.487 240.858 268.529Z" fill="#263238"/>
<path d="M245.636 279.917C245.483 280.011 244.65 278.884 243.887 277.334C243.321 276.443 242.978 275.428 242.889 274.376C243.565 275.169 244.098 276.075 244.462 277.052C245.019 277.931 245.416 278.9 245.636 279.917V279.917Z" fill="#263238"/>
<path d="M253.056 289.814C252.938 289.931 251.882 289.039 250.708 287.724C249.952 286.987 249.374 286.088 249.017 285.094C249.17 284.977 250.097 286.01 251.201 287.301C252.304 288.593 253.185 289.685 253.056 289.814Z" fill="#263238"/>
<path d="M262.589 297.679C261.568 297.405 260.627 296.895 259.841 296.188C258.456 295.179 257.493 294.169 257.587 294.028C258.557 294.419 259.451 294.975 260.229 295.672C261.591 296.67 262.682 297.527 262.589 297.679Z" fill="#263238"/>
<path d="M273.742 303.009C272.685 303.003 271.646 302.741 270.713 302.246C269.694 301.962 268.763 301.429 268.001 300.697C269.029 300.848 270.025 301.17 270.947 301.648C271.945 301.95 272.888 302.41 273.742 303.009Z" fill="#263238"/>
<path d="M279.952 304.594C279.952 304.759 279.846 304.9 279.788 304.888C279.729 304.876 279.706 304.723 279.788 304.547C279.87 304.371 279.893 304.242 279.952 304.254C280.011 304.266 279.987 304.418 279.952 304.594Z" fill="#263238"/>
<path d="M270.976 273.85L258.138 269.634L255.515 277.62L268.353 281.836L270.976 273.85Z" fill="#362A89"/>
<g opacity="0.3">
<path opacity="0.3" d="M270.976 273.85L258.138 269.634L255.515 277.62L268.353 281.836L270.976 273.85Z" fill="black"/>
</g>
<path d="M270.947 273.871C268.547 275.074 266.059 276.095 263.504 276.923L263.281 277.005L263.14 276.817L262.917 276.536C261.136 274.37 259.53 272.065 258.116 269.644C260.051 271.674 261.829 273.848 263.434 276.148L263.645 276.43L263.281 276.324C265.767 275.302 268.33 274.481 270.947 273.871Z" fill="#362A89"/>
<g opacity="0.1">
<path opacity="0.1" d="M270.947 273.871C268.547 275.074 266.059 276.095 263.504 276.923L263.281 277.005L263.14 276.817L262.917 276.536C261.136 274.37 259.53 272.065 258.116 269.644C260.051 271.674 261.829 273.848 263.434 276.148L263.645 276.43L263.281 276.324C265.767 275.302 268.33 274.481 270.947 273.871Z" fill="black"/>
</g>
<path d="M261.802 274.54C260.918 275.335 259.895 275.96 258.785 276.383C257.762 276.989 256.642 277.414 255.474 277.639C256.366 276.849 257.391 276.225 258.503 275.796C259.523 275.193 260.639 274.768 261.802 274.54V274.54Z" fill="#362A89"/>
<g opacity="0.1">
<path opacity="0.1" d="M261.802 274.54C260.918 275.335 259.895 275.96 258.785 276.383C257.762 276.989 256.642 277.414 255.474 277.639C256.366 276.849 257.391 276.225 258.503 275.796C259.523 275.193 260.639 274.768 261.802 274.54V274.54Z" fill="black"/>
</g>
<path d="M268.552 281.924C267.834 281.039 267.277 280.033 266.909 278.954C266.134 277.205 265.618 275.702 265.852 275.726C266.573 276.612 267.133 277.617 267.508 278.696C268.055 279.697 268.409 280.792 268.552 281.924V281.924Z" fill="#362A89"/>
<g opacity="0.1">
<path opacity="0.1" d="M268.552 281.924C267.834 281.039 267.277 280.033 266.909 278.954C266.134 277.205 265.618 275.702 265.852 275.726C266.573 276.612 267.133 277.617 267.508 278.696C268.055 279.697 268.409 280.792 268.552 281.924V281.924Z" fill="black"/>
</g>
<path d="M323.327 305.134L290.311 294.292L283.564 314.838L316.58 325.68L323.327 305.134Z" fill="#362A89"/>
<path d="M323.296 305.158C322.826 305.428 322.33 305.652 321.817 305.827L317.708 307.435C314.186 308.762 309.384 310.57 303.972 312.554L303.749 312.636L303.608 312.448L303.056 311.72C299.464 307.024 296.224 302.645 293.911 299.487L291.152 295.742C290.8 295.294 290.49 294.815 290.225 294.31C290.655 294.699 291.048 295.127 291.399 295.59L294.275 299.217C296.682 302.293 299.969 306.578 303.573 311.333L304.125 312.049L303.761 311.944C309.161 309.971 314.033 308.234 317.555 307.013L321.735 305.592C322.24 305.399 322.763 305.254 323.296 305.158V305.158Z" fill="#362A89"/>
<g opacity="0.2">
<path opacity="0.2" d="M323.296 305.158C322.826 305.428 322.33 305.652 321.817 305.827L317.708 307.435C314.186 308.762 309.384 310.57 303.972 312.554L303.749 312.636L303.608 312.448L303.056 311.72C299.464 307.024 296.224 302.645 293.911 299.487L291.152 295.742C290.8 295.294 290.49 294.815 290.225 294.31C290.655 294.699 291.048 295.127 291.399 295.59L294.275 299.217C296.682 302.293 299.969 306.578 303.573 311.333L304.125 312.049L303.761 311.944C309.161 309.971 314.033 308.234 317.555 307.013L321.735 305.592C322.24 305.399 322.763 305.254 323.296 305.158V305.158Z" fill="black"/>
</g>
<path d="M299.816 306.907C297.249 308.511 294.574 309.935 291.809 311.169C289.138 312.586 286.373 313.817 283.533 314.855C286.09 313.237 288.762 311.809 291.528 310.582C294.197 309.156 296.967 307.928 299.816 306.907V306.907Z" fill="#362A89"/>
<g opacity="0.2">
<path opacity="0.2" d="M299.816 306.907C297.249 308.511 294.574 309.935 291.809 311.169C289.138 312.586 286.373 313.817 283.533 314.855C286.09 313.237 288.762 311.809 291.528 310.582C294.197 309.156 296.967 307.928 299.816 306.907V306.907Z" fill="black"/>
</g>
<path d="M317.144 325.891C315.7 323.371 314.44 320.75 313.376 318.048C312.121 315.426 311.062 312.714 310.206 309.936C311.652 312.459 312.912 315.084 313.975 317.79C315.23 320.408 316.289 323.116 317.144 325.891V325.891Z" fill="#362A89"/>
<g opacity="0.2">
<path opacity="0.2" d="M317.144 325.891C315.7 323.371 314.44 320.75 313.376 318.048C312.121 315.426 311.062 312.714 310.206 309.936C311.652 312.459 312.912 315.084 313.975 317.79C315.23 320.408 316.289 323.116 317.144 325.891V325.891Z" fill="black"/>
</g>
<path d="M292.091 299.37C291.269 299.973 290.288 300.319 289.269 300.363C288.251 300.408 287.243 300.15 286.371 299.622C285.5 299.094 284.804 298.319 284.373 297.396C283.942 296.473 283.794 295.442 283.948 294.435C284.102 293.427 284.552 292.488 285.239 291.736C285.927 290.984 286.822 290.453 287.812 290.21C288.802 289.966 289.841 290.022 290.799 290.369C291.757 290.717 292.591 291.341 293.195 292.162C293.596 292.707 293.886 293.327 294.047 293.984C294.209 294.642 294.239 295.325 294.137 295.995C294.034 296.664 293.801 297.307 293.45 297.886C293.099 298.465 292.637 298.969 292.091 299.37V299.37Z" fill="#263238"/>
<path d="M292.326 294.263C291.235 295.074 290.077 295.789 288.863 296.4L288.041 296.858L287.888 296.94L287.806 296.799C287.251 295.918 286.779 294.986 286.397 294.017C287.051 294.83 287.622 295.707 288.1 296.635L287.877 296.564L288.698 296.095C289.852 295.38 291.066 294.767 292.326 294.263Z" fill="white"/>
<path d="M302.119 277.452L284.82 271.77L281.285 282.534L298.585 288.215L302.119 277.452Z" fill="#362A89"/>
<g opacity="0.2">
<path opacity="0.2" d="M302.119 277.452L284.82 271.77L281.285 282.534L298.585 288.215L302.119 277.452Z" fill="black"/>
</g>
<path d="M302.082 277.463C301.841 277.608 301.585 277.726 301.319 277.815L299.159 278.661C297.339 279.353 294.803 280.304 291.962 281.337H291.845L291.774 281.232L291.492 280.856C289.602 278.367 287.97 276.101 286.691 274.446L285.282 272.532C285.1 272.296 284.939 272.045 284.801 271.781C285.018 271.984 285.215 272.208 285.388 272.45L286.902 274.352C288.158 275.96 289.884 278.203 291.762 280.692L292.056 281.079H291.868C294.697 280.046 297.245 279.13 299.1 278.496L301.284 277.757C301.538 277.629 301.806 277.531 302.082 277.463V277.463Z" fill="#362A89"/>
<g opacity="0.2">
<path opacity="0.2" d="M302.082 277.463C301.841 277.608 301.585 277.726 301.319 277.815L299.159 278.661C297.339 279.353 294.803 280.304 291.962 281.337H291.845L291.774 281.232L291.492 280.856C289.602 278.367 287.97 276.101 286.691 274.446L285.282 272.532C285.1 272.296 284.939 272.045 284.801 271.781C285.018 271.984 285.215 272.208 285.388 272.45L286.902 274.352C288.158 275.96 289.884 278.203 291.762 280.692L292.056 281.079H291.868C294.697 280.046 297.245 279.13 299.1 278.496L301.284 277.757C301.538 277.629 301.806 277.531 302.082 277.463V277.463Z" fill="#362A89"/>
</g>
<path d="M289.79 278.379C288.445 279.215 287.044 279.961 285.599 280.609C284.197 281.353 282.745 282 281.255 282.547C282.595 281.697 283.996 280.948 285.446 280.304C286.846 279.559 288.298 278.915 289.79 278.379V278.379Z" fill="#362A89"/>
<g opacity="0.2">
<path opacity="0.2" d="M289.79 278.379C288.445 279.215 287.044 279.961 285.599 280.609C284.197 281.353 282.745 282 281.255 282.547C282.595 281.697 283.996 280.948 285.446 280.304C286.846 279.559 288.298 278.915 289.79 278.379V278.379Z" fill="#362A89"/>
</g>
<path d="M298.865 288.323C298.108 287.003 297.449 285.63 296.893 284.214C296.24 282.837 295.683 281.417 295.226 279.964C296.65 282.653 297.867 285.448 298.865 288.323V288.323Z" fill="#362A89"/>
<g opacity="0.2">
<path opacity="0.2" d="M298.865 288.323C298.108 287.003 297.449 285.63 296.893 284.214C296.24 282.837 295.683 281.417 295.226 279.964C296.65 282.653 297.867 285.448 298.865 288.323V288.323Z" fill="#362A89"/>
</g>
<path d="M163.186 142.723C161.992 147.422 159.432 151.661 155.829 154.905C152.226 158.148 147.742 160.251 142.944 160.946C138.146 161.642 133.25 160.899 128.874 158.812C124.499 156.725 120.84 153.387 118.361 149.22C115.882 145.054 114.695 140.246 114.948 135.405C115.202 130.563 116.885 125.906 119.785 122.021C122.686 118.137 126.673 115.199 131.243 113.58C135.812 111.962 140.76 111.734 145.459 112.927C151.759 114.53 157.166 118.568 160.49 124.155C163.814 129.743 164.784 136.421 163.186 142.723V142.723Z" fill="#263238"/>
<path d="M148.476 123.399C148.91 123.575 146.128 131.782 142.254 141.737C141.678 143.181 141.08 144.566 140.598 145.928L140.305 146.668L139.565 146.386C131.617 143.322 125.806 140.798 125.947 140.434C126.088 140.07 132.122 141.972 140.129 144.872L139.096 145.341C139.612 143.979 140.152 142.582 140.704 141.138C144.566 131.171 148.053 123.27 148.476 123.399Z" fill="white"/>
<path d="M464.493 489.664C468.885 487.601 473.823 487 478.581 487.95C481.14 488.372 483.805 489.124 485.555 491.049C487.304 492.974 487.621 496.355 485.625 498.011C484.333 498.875 482.783 499.269 481.234 499.126C477.501 499.126 473.369 498.422 470.387 500.664C468.684 501.944 467.557 504.069 465.526 504.703C464.51 504.934 463.446 504.831 462.494 504.407C461.542 503.984 460.752 503.264 460.243 502.355C459.276 500.486 459.061 498.318 459.644 496.297C459.885 494.892 460.449 493.562 461.29 492.411C462.131 491.26 463.227 490.32 464.493 489.664V489.664Z" fill="#362A89"/>
<g opacity="0.2">
<path opacity="0.2" d="M464.493 489.664C468.885 487.601 473.823 487 478.581 487.95C481.14 488.372 483.805 489.124 485.555 491.049C487.304 492.974 487.621 496.355 485.625 498.011C484.333 498.875 482.783 499.269 481.234 499.126C477.501 499.126 473.369 498.422 470.387 500.664C468.684 501.944 467.557 504.069 465.526 504.703C464.51 504.934 463.446 504.831 462.494 504.407C461.542 503.984 460.752 503.264 460.243 502.355C459.276 500.486 459.061 498.318 459.644 496.297C459.885 494.892 460.449 493.562 461.29 492.411C462.131 491.26 463.227 490.32 464.493 489.664V489.664Z" fill="white"/>
</g>
<path d="M454.667 470.692C457.297 474.437 462.392 473.192 464.751 470.903C467.111 468.614 468.121 465.303 469.025 462.145C471.103 454.925 473.192 447.353 471.655 440.003C471.275 437.776 470.297 435.695 468.825 433.981C468.077 433.138 467.12 432.507 466.05 432.151C464.981 431.794 463.837 431.725 462.732 431.95C460.161 432.631 458.564 435.155 457.414 437.55C454.014 444.622 452.229 452.361 452.19 460.208C452.19 463.859 452.612 467.686 454.667 470.704" fill="#362A89"/>
<path d="M447.47 476.069C450.311 472.688 450.851 467.757 449.583 463.519C448.145 459.314 445.578 455.586 442.164 452.741C438.275 449.308 433.758 446.66 428.862 444.946C426.963 444.179 424.921 443.83 422.875 443.925C421.853 443.986 420.862 444.294 419.987 444.824C419.111 445.354 418.378 446.089 417.85 446.965C416.453 449.63 417.791 452.835 419.247 455.512C421.807 460.171 424.728 464.622 427.982 468.825C430.6 472.195 433.605 475.529 437.597 477.043C441.588 478.558 445.733 478.393 447.846 475.623" fill="#362A89"/>
<g opacity="0.1">
<path opacity="0.1" d="M447.47 476.069C450.311 472.688 450.851 467.757 449.583 463.519C448.145 459.314 445.578 455.586 442.164 452.741C438.275 449.308 433.758 446.66 428.862 444.946C426.963 444.179 424.921 443.83 422.875 443.925C421.853 443.986 420.862 444.294 419.987 444.824C419.111 445.354 418.378 446.089 417.85 446.965C416.453 449.63 417.791 452.835 419.247 455.512C421.807 460.171 424.728 464.622 427.982 468.825C430.6 472.195 433.605 475.529 437.597 477.043C441.588 478.558 445.733 478.393 447.846 475.623" fill="black"/>
</g>
<path d="M454.491 527.196C454.627 526.639 454.706 526.068 454.725 525.494C454.855 524.25 454.995 522.7 455.183 520.798C455.413 518.512 455.762 516.239 456.228 513.989C456.835 511.246 457.663 508.556 458.705 505.947C459.724 503.339 461.108 500.888 462.814 498.668C464.2 496.859 465.973 495.383 468.003 494.348C469.38 493.67 470.853 493.211 472.371 492.986C472.941 492.967 473.507 492.888 474.061 492.751C473.492 492.682 472.916 492.682 472.347 492.751C470.767 492.869 469.221 493.267 467.78 493.925C465.647 494.939 463.775 496.429 462.309 498.281C460.531 500.53 459.095 503.031 458.048 505.7C456.994 508.364 456.173 511.113 455.594 513.918C455.152 516.195 454.85 518.496 454.69 520.81C454.538 522.782 454.479 524.332 454.455 525.506C454.41 526.069 454.422 526.636 454.491 527.196V527.196Z" fill="#263238"/>
<path d="M454.808 523.604C454.843 523.343 454.843 523.078 454.808 522.817V520.563C454.808 518.603 454.808 515.762 454.902 512.263C455.078 505.219 455.676 495.581 456.85 484.956C458.024 474.331 459.574 464.763 460.995 457.954C461.323 456.24 461.664 454.69 461.981 453.34C462.298 451.99 462.544 450.804 462.791 449.818C463.037 448.832 463.178 448.198 463.319 447.623C463.399 447.367 463.446 447.103 463.46 446.836C463.341 447.071 463.25 447.319 463.19 447.576L462.533 449.748C462.239 450.687 461.946 451.849 461.605 453.199C461.265 454.549 460.877 456.087 460.502 457.813C458.586 466.746 457.148 475.776 456.193 484.862C455.019 495.51 454.502 505.207 454.455 512.228C454.455 515.75 454.455 518.579 454.573 520.54C454.628 521.456 454.675 522.207 454.714 522.794C454.719 523.066 454.75 523.338 454.808 523.604Z" fill="#263238"/>
<path d="M454.855 504.914C454.918 504.133 454.918 503.347 454.855 502.566C454.723 500.426 454.48 498.294 454.127 496.179C452.96 489.187 450.957 482.361 448.163 475.846C445.465 469.26 441.59 463.221 436.728 458.024C435.887 457.133 434.989 456.298 434.04 455.524C433.629 455.172 433.265 454.831 432.866 454.549L431.832 453.833C431.2 453.357 430.533 452.929 429.837 452.554C432.125 454.356 434.301 456.297 436.352 458.365C441.052 463.605 444.824 469.608 447.505 476.116C449.047 479.665 450.353 483.313 451.415 487.034C452.436 490.45 453.117 493.597 453.634 496.25C454.15 498.903 454.397 501.075 454.573 502.578C454.611 503.362 454.705 504.143 454.855 504.914V504.914Z" fill="#263238"/>
<path d="M276.301 350.145H325.456L344.921 295.766H342.198L322.897 347.492L276.301 347.762V350.145Z" fill="#455A64"/>
<path d="M254.582 357.013L256.402 527.349H261.403L259.372 355.757L254.582 357.013Z" fill="#263238"/>
<path d="M359.796 355.358C359.127 358.61 364.304 527.736 364.304 527.736H369L365.184 355.358H359.796Z" fill="#263238"/>
<path d="M417.263 350.145H208.256V358.763H225.502L214.278 526.797L219.186 527.067L230.421 358.763H399.677L407.883 527.138H412.802L404.596 358.763H417.263V350.145Z" fill="#263238"/>
<path d="M299.37 520.939V508.025L275.174 507.779L274.904 526.68L276.407 526.786C283.075 527.232 310.359 528.547 314.832 527.243C319.809 525.788 299.37 520.939 299.37 520.939Z" fill="#362A89"/>
<path d="M283.662 526.574C283.329 524.529 282.25 522.68 280.633 521.385C279.046 520.099 277.037 519.451 274.998 519.565L274.927 526.328L283.662 526.574Z" fill="#F5F5F5"/>
<path d="M309.326 523.663C309.326 523.663 316.51 525.823 315.595 526.997C314.679 528.171 287.066 527.877 274.892 526.68V526.14L307.107 526.762C307.107 526.762 307.917 523.71 309.326 523.663Z" fill="#F5F5F5"/>
<path d="M274.563 526.116H274.974L276.148 526.21L280.539 526.445C284.249 526.621 289.379 526.786 295.05 526.856C300.72 526.926 305.862 526.856 309.572 526.774L313.975 526.645L315.149 526.586H315.56C315.423 526.568 315.285 526.568 315.149 526.586H313.975H309.572C305.862 526.586 300.72 526.586 295.061 526.586C289.403 526.586 284.261 526.375 280.551 526.257L276.148 526.116H274.974H274.563Z" fill="#263238"/>
<path d="M307.142 527.126C307.341 526.399 307.625 525.697 307.987 525.036C308.424 524.422 308.932 523.863 309.502 523.369C308.775 523.683 308.161 524.211 307.742 524.882C307.323 525.553 307.117 526.335 307.154 527.126H307.142Z" fill="#263238"/>
<path d="M300.039 523.44C300.11 523.44 300.462 523.064 300.814 522.512C301.166 521.96 301.413 521.479 301.342 521.432C301.272 521.385 300.931 521.808 300.567 522.36C300.315 522.677 300.135 523.045 300.039 523.44V523.44Z" fill="#263238"/>
<path d="M298.09 522.43C298.149 522.489 298.536 522.242 298.959 521.866C299.382 521.491 299.675 521.15 299.617 521.092C299.558 521.033 299.182 521.279 298.76 521.643C298.337 522.007 298.043 522.324 298.09 522.43Z" fill="#263238"/>
<path d="M296.881 520.082C297.281 520.237 297.711 520.298 298.137 520.258C298.563 520.314 298.997 520.274 299.405 520.141C299.006 519.985 298.576 519.925 298.149 519.965C297.723 519.91 297.29 519.95 296.881 520.082V520.082Z" fill="#263238"/>
<path d="M296.47 518.474C296.905 518.71 297.384 518.854 297.877 518.896C298.37 518.938 298.866 518.879 299.335 518.72C298.379 518.646 297.424 518.564 296.47 518.474V518.474Z" fill="#263238"/>
<path d="M300.885 521.338C301.401 521.428 301.929 521.428 302.446 521.338C303.007 521.279 303.562 521.165 304.101 520.998C304.432 520.905 304.751 520.775 305.052 520.61C305.145 520.562 305.227 520.495 305.293 520.415C305.36 520.334 305.41 520.241 305.44 520.141C305.466 520.025 305.458 519.904 305.419 519.792C305.38 519.68 305.309 519.581 305.217 519.507C304.627 519.215 303.955 519.136 303.314 519.281C302.673 519.426 302.101 519.788 301.695 520.305C301.447 520.608 301.267 520.96 301.166 521.338C301.166 521.608 301.166 521.761 301.166 521.761C301.322 521.282 301.565 520.836 301.882 520.446C302.235 520.035 302.7 519.737 303.221 519.589C303.525 519.491 303.845 519.454 304.163 519.481C304.482 519.507 304.792 519.595 305.076 519.742C305.322 519.929 305.217 520.211 304.947 520.376C304.666 520.526 304.371 520.648 304.066 520.739C303.541 520.914 303.003 521.047 302.458 521.139C301.483 521.256 300.885 521.256 300.885 521.338Z" fill="#263238"/>
<path d="M301.284 521.42C301.48 521.097 301.551 520.713 301.483 520.34C301.44 519.922 301.299 519.52 301.072 519.166C300.943 518.933 300.757 518.736 300.531 518.594C300.305 518.453 300.047 518.371 299.781 518.356C299.622 518.387 299.482 518.48 299.392 518.615C299.302 518.749 299.269 518.914 299.3 519.072C299.331 519.318 299.415 519.554 299.546 519.765C299.754 520.107 299.998 520.426 300.274 520.716C300.508 520.999 300.812 521.217 301.154 521.35C301.154 521.35 300.849 521.068 300.427 520.575C300.182 520.286 299.969 519.971 299.793 519.636C299.581 519.307 299.44 518.708 299.793 518.65C300.145 518.591 300.579 519.002 300.814 519.319C301.022 519.623 301.166 519.967 301.237 520.329C301.295 520.689 301.311 521.056 301.284 521.42V521.42Z" fill="#263238"/>
<path d="M275.127 519.507C275.127 519.507 275.82 519.448 276.911 519.589C278.333 519.77 279.677 520.338 280.797 521.233C281.887 522.17 282.699 523.388 283.145 524.755C283.498 525.788 283.533 526.492 283.58 526.48C283.627 526.469 283.58 526.304 283.58 525.999C283.539 525.554 283.457 525.114 283.333 524.684C282.911 523.26 282.069 521.996 280.917 521.057C279.765 520.119 278.357 519.55 276.876 519.425C276.431 519.375 275.983 519.375 275.538 519.425C275.397 519.425 275.257 519.453 275.127 519.507V519.507Z" fill="#263238"/>
<path d="M277.745 509.516C277.463 512.819 277.385 516.136 277.51 519.448C277.696 517.799 277.782 516.141 277.768 514.482C277.854 512.828 277.846 511.17 277.745 509.516V509.516Z" fill="#263238"/>
<path d="M286.738 524.25C287.889 524.535 289.074 524.666 290.26 524.637C291.44 524.714 292.624 524.631 293.782 524.391C293.782 524.308 292.197 524.391 290.26 524.391C288.323 524.391 286.749 524.168 286.738 524.25Z" fill="#263238"/>
<path d="M281.995 524.191C281.995 524.25 282.124 524.531 282.277 524.895C282.429 525.259 282.523 525.576 282.605 525.576C282.687 525.576 282.734 525.189 282.547 524.778C282.359 524.367 282.054 524.132 281.995 524.191Z" fill="#263238"/>
<path d="M280.234 521.949C280.234 522.007 280.328 522.254 280.574 522.512C280.821 522.77 281.067 522.935 281.126 522.876C281.185 522.817 281.032 522.571 280.786 522.313C280.539 522.054 280.293 521.89 280.234 521.949Z" fill="#263238"/>
<path d="M277.686 520.904C277.686 520.986 278.027 520.986 278.379 521.115C278.731 521.244 278.989 521.444 279.048 521.385C279.107 521.326 278.919 520.998 278.473 520.845C278.027 520.692 277.663 520.833 277.686 520.904Z" fill="#263238"/>
<path d="M275.89 520.411C275.89 520.481 275.996 520.61 276.195 520.692C276.395 520.775 276.583 520.775 276.606 520.692C276.63 520.61 276.501 520.493 276.301 520.411C276.101 520.329 275.89 520.329 275.89 520.411Z" fill="#263238"/>
<path d="M346.94 507.908L341.634 496.109L319.481 505.841L327.006 523.17L328.415 522.653C334.684 520.305 360.113 510.291 363.635 507.262C367.615 503.881 346.94 507.908 346.94 507.908Z" fill="#362A89"/>
<path d="M335.001 519.472C333.859 517.729 332.11 516.474 330.094 515.95C328.122 515.437 326.03 515.676 324.224 516.619L326.936 522.806L335.001 519.472Z" fill="#F5F5F5"/>
<path d="M357.19 506.264C357.19 506.264 364.621 505.266 364.233 506.722C363.846 508.178 338.593 519.26 327.006 523.158L326.83 522.653L356.438 509.962C356.438 509.962 355.922 506.886 357.19 506.264Z" fill="#F5F5F5"/>
<path d="M326.501 522.806L326.9 522.677L328.074 522.266L332.183 520.669C335.635 519.295 340.401 517.347 345.579 515.069C350.756 512.791 355.429 510.643 358.774 509.023L362.731 507.098L363.799 506.546C363.928 506.494 364.05 506.427 364.163 506.346L363.776 506.499L362.684 506.992L358.692 508.847C355.323 510.396 350.65 512.533 345.461 514.799C340.272 517.065 335.529 519.061 332.101 520.481L328.039 522.16L326.936 522.618L326.501 522.806Z" fill="#263238"/>
<path d="M356.626 510.326C356.503 509.581 356.471 508.824 356.532 508.072C356.687 507.334 356.919 506.613 357.225 505.924C356.649 506.479 356.298 507.227 356.239 508.025C356.082 508.814 356.22 509.632 356.626 510.326V510.326Z" fill="#263238"/>
<path d="M348.678 509.868C348.76 509.868 348.901 509.363 349.007 508.694C349.112 508.025 349.124 507.52 349.007 507.52C348.889 507.52 348.784 508.025 348.678 508.694C348.582 509.08 348.582 509.483 348.678 509.868V509.868Z" fill="#263238"/>
<path d="M346.424 509.716C346.494 509.716 346.741 509.352 346.976 508.847C347.211 508.342 347.328 507.896 347.258 507.861C347.187 507.825 346.941 508.213 346.706 508.729C346.471 509.246 346.33 509.68 346.424 509.716Z" fill="#263238"/>
<path d="M344.369 508.119C344.782 508.079 345.181 507.955 345.543 507.755C346.189 507.485 346.717 507.203 346.647 507.133C346.577 507.062 346.072 507.215 345.473 507.485C344.874 507.755 344.334 508.037 344.369 508.119Z" fill="#263238"/>
<path d="M343.336 506.816C343.831 506.897 344.338 506.827 344.792 506.616C345.274 506.498 345.708 506.236 346.036 505.865C345.573 505.984 345.121 506.145 344.686 506.346C344.222 506.459 343.77 506.617 343.336 506.816V506.816Z" fill="#263238"/>
<path d="M348.537 507.614C349.043 507.483 349.523 507.269 349.958 506.98C350.441 506.689 350.896 506.355 351.32 505.982C351.584 505.762 351.824 505.514 352.036 505.243C352.159 505.069 352.214 504.856 352.188 504.644C352.167 504.529 352.113 504.423 352.031 504.339C351.949 504.256 351.845 504.198 351.73 504.174C351.306 504.157 350.882 504.234 350.491 504.4C350.099 504.566 349.75 504.817 349.468 505.136C349.186 505.454 348.978 505.831 348.86 506.239C348.741 506.647 348.715 507.077 348.784 507.497C348.797 507.641 348.841 507.781 348.913 507.908C348.871 507.404 348.91 506.896 349.03 506.405C349.184 505.887 349.486 505.426 349.899 505.078C350.378 504.65 351.006 504.426 351.648 504.456C351.953 504.515 351.977 504.82 351.789 505.09C351.596 505.34 351.38 505.572 351.143 505.783C350.733 506.152 350.297 506.493 349.84 506.804C349.054 507.332 348.514 507.567 348.537 507.614Z" fill="#263238"/>
<path d="M348.936 507.52C348.973 507.147 348.878 506.773 348.666 506.464C348.455 506.11 348.166 505.809 347.821 505.583C347.608 505.426 347.358 505.325 347.095 505.29C346.833 505.256 346.565 505.288 346.318 505.384C346.187 505.476 346.097 505.617 346.068 505.775C346.04 505.933 346.075 506.096 346.166 506.229C346.294 506.443 346.471 506.624 346.682 506.757C347.01 506.99 347.365 507.184 347.739 507.332C348.072 507.491 348.439 507.564 348.807 507.544C348.807 507.544 348.408 507.415 347.821 507.133C347.475 506.975 347.148 506.778 346.847 506.546C346.518 506.334 346.154 505.853 346.483 505.63C346.68 505.572 346.888 505.559 347.091 505.592C347.294 505.624 347.487 505.701 347.657 505.818C347.979 506.006 348.256 506.262 348.467 506.569C348.65 506.873 348.807 507.191 348.936 507.52V507.52Z" fill="#263238"/>
<path d="M324.306 516.56C324.306 516.56 324.905 516.22 325.961 515.903C327.329 515.473 328.791 515.441 330.177 515.808C331.563 516.176 332.816 516.929 333.792 517.981C334.543 518.791 334.86 519.413 334.907 519.378C334.862 519.22 334.795 519.07 334.707 518.931C334.493 518.545 334.237 518.183 333.944 517.851C332.978 516.717 331.694 515.9 330.258 515.503C328.82 515.133 327.306 515.194 325.902 515.68C325.492 515.829 325.098 516.022 324.728 516.255C324.423 516.419 324.294 516.56 324.306 516.56Z" fill="#263238"/>
<path d="M322.557 506.311C323.055 507.913 323.655 509.482 324.353 511.007C324.962 512.551 325.655 514.06 326.431 515.527C325.921 513.947 325.317 512.398 324.623 510.89C324.02 509.326 323.33 507.798 322.557 506.311V506.311Z" fill="#263238"/>
<path d="M336.832 516.09C338.002 515.867 339.138 515.496 340.213 514.987C341.326 514.572 342.377 514.008 343.336 513.308C343.336 513.238 341.892 513.954 340.096 514.717C338.3 515.48 336.809 516.008 336.832 516.09Z" fill="#263238"/>
<path d="M332.489 517.981C332.489 518.063 332.747 518.239 333.04 518.509C333.334 518.779 333.545 519.037 333.616 518.99C333.686 518.943 333.616 518.591 333.24 518.286C332.864 517.981 332.512 517.91 332.489 517.981Z" fill="#263238"/>
<path d="M329.964 516.666C329.964 516.748 330.176 516.912 330.505 517.041C330.833 517.171 331.127 517.217 331.162 517.147C331.197 517.077 330.951 516.9 330.622 516.771C330.293 516.642 329.988 516.56 329.964 516.666Z" fill="#263238"/>
<path d="M327.217 516.76C327.217 516.83 327.558 516.701 327.933 516.677C328.309 516.654 328.614 516.677 328.65 516.677C328.685 516.677 328.368 516.372 327.91 516.419C327.452 516.466 327.159 516.701 327.217 516.76Z" fill="#263238"/>
<path d="M325.351 517.053C325.351 517.135 325.538 517.194 325.75 517.182C325.961 517.17 326.137 517.1 326.137 517.018C326.137 516.936 325.949 516.877 325.738 516.889C325.527 516.9 325.351 516.971 325.351 517.053Z" fill="#263238"/>
<path d="M127.391 421.607L109.922 291.07C109.813 290.257 109.887 289.431 110.138 288.651C110.389 287.87 110.811 287.156 111.374 286.56C111.936 285.964 112.625 285.5 113.389 285.204C114.153 284.908 114.974 284.786 115.792 284.848L157.903 288.37C159.781 288.528 161.543 289.347 162.874 290.682C164.204 292.017 165.018 293.781 165.17 295.66L175.431 419.247L127.391 421.607Z" fill="#362A89"/>
<g opacity="0.2">
<path opacity="0.2" d="M127.391 421.607L109.922 291.07C109.813 290.257 109.887 289.431 110.138 288.651C110.389 287.87 110.811 287.156 111.374 286.56C111.936 285.964 112.625 285.5 113.389 285.204C114.153 284.908 114.974 284.786 115.792 284.848L157.903 288.37C159.781 288.528 161.543 289.347 162.874 290.682C164.204 292.017 165.018 293.781 165.17 295.66L175.431 419.247L127.391 421.607Z" fill="black"/>
</g>
<path d="M168.011 229.764C167.659 224.786 166.356 219.937 165.663 215.006C164.971 210.076 164.83 204.887 166.778 200.296C167.971 197.737 169.658 195.439 171.741 193.533C173.824 191.627 176.263 190.151 178.918 189.19C184.25 187.298 189.943 186.648 195.565 187.288C196.581 187.319 197.582 187.546 198.512 187.957C198.971 188.17 199.367 188.498 199.661 188.91C199.955 189.321 200.138 189.802 200.191 190.305C200.202 190.555 200.162 190.805 200.072 191.038C199.983 191.272 199.847 191.484 199.671 191.663C199.496 191.841 199.286 191.982 199.054 192.075C198.822 192.169 198.574 192.214 198.324 192.207C200.468 192.426 202.582 192.879 204.628 193.557C205.46 193.793 206.182 194.312 206.671 195.025C206.869 195.471 206.948 195.962 206.898 196.448C206.849 196.934 206.673 197.398 206.389 197.796C205.806 198.582 205.086 199.258 204.264 199.791C204.516 199.742 204.774 199.742 205.025 199.793C205.276 199.843 205.515 199.943 205.728 200.086C205.94 200.229 206.123 200.412 206.264 200.625C206.406 200.839 206.504 201.078 206.554 201.329C206.629 201.842 206.596 202.366 206.456 202.865C206.316 203.365 206.074 203.829 205.744 204.229C205.145 205.074 204.37 205.767 203.748 206.577C201.212 209.946 201.705 214.631 202.315 218.81" fill="#263238"/>
<path d="M168.469 258.926L192.196 258.503C192.513 255.756 192.97 245.073 192.97 245.073C192.97 245.073 202.891 244.157 203.619 234.342C204.346 224.528 204.041 201.869 204.041 201.869C198.606 199.126 192.537 197.883 186.461 198.268C180.386 198.654 174.523 200.655 169.479 204.065L167.952 205.098L168.469 258.926Z" fill="#B78876"/>
<path d="M200.754 218.892C200.554 218.692 200.419 218.436 200.364 218.159C200.31 217.881 200.338 217.594 200.447 217.332C200.556 217.071 200.739 216.848 200.975 216.691C201.21 216.534 201.487 216.45 201.77 216.45C202.052 216.45 202.329 216.534 202.564 216.691C202.8 216.848 202.983 217.071 203.092 217.332C203.201 217.594 203.229 217.881 203.175 218.159C203.12 218.436 202.985 218.692 202.785 218.892C202.653 219.028 202.495 219.135 202.32 219.208C202.146 219.282 201.959 219.32 201.77 219.32C201.58 219.32 201.393 219.282 201.219 219.208C201.044 219.135 200.886 219.028 200.754 218.892Z" fill="#263238"/>
<path d="M203.255 216.509C203.09 216.673 202.175 215.875 200.824 215.781C199.474 215.687 198.476 216.333 198.3 216.145C198.124 215.957 198.406 215.769 198.852 215.464C199.458 215.09 200.167 214.917 200.878 214.97C201.588 215.022 202.264 215.298 202.809 215.758C203.208 216.122 203.337 216.439 203.255 216.509Z" fill="#263238"/>
<path d="M187.593 216.732C187.826 216.895 188.006 217.123 188.109 217.388C188.212 217.652 188.234 217.942 188.172 218.219C188.11 218.496 187.967 218.749 187.761 218.944C187.555 219.14 187.296 219.27 187.016 219.318C186.736 219.366 186.448 219.33 186.189 219.214C185.93 219.098 185.711 218.908 185.56 218.667C185.409 218.426 185.333 218.146 185.342 217.862C185.351 217.578 185.444 217.304 185.609 217.073C185.717 216.92 185.854 216.79 186.012 216.69C186.17 216.59 186.346 216.522 186.531 216.49C186.715 216.459 186.904 216.464 187.086 216.505C187.269 216.547 187.441 216.624 187.593 216.732V216.732Z" fill="#263238"/>
<path d="M188.486 216.803C188.321 216.955 187.406 216.157 186.056 216.063C184.705 215.969 183.708 216.615 183.543 216.439C183.379 216.263 183.637 216.051 184.095 215.758C184.697 215.377 185.406 215.201 186.116 215.253C186.826 215.306 187.5 215.586 188.04 216.051C188.439 216.403 188.568 216.732 188.486 216.803Z" fill="#263238"/>
<path d="M193.229 228.296C193.94 228.061 194.687 227.95 195.436 227.967C195.8 227.967 196.082 227.885 196.117 227.697C196.147 227.342 196.082 226.986 195.929 226.664C195.635 225.748 195.33 224.821 195.025 223.847C193.792 219.843 192.947 216.544 193.158 216.486C193.37 216.427 194.52 219.62 195.765 223.624C196.058 224.598 196.328 225.537 196.61 226.453C196.803 226.926 196.836 227.45 196.704 227.944C196.645 228.076 196.556 228.193 196.444 228.285C196.332 228.376 196.199 228.441 196.058 228.472C195.859 228.494 195.658 228.494 195.459 228.472C194.711 228.54 193.957 228.481 193.229 228.296V228.296Z" fill="#263238"/>
<path d="M188.732 229.517C187.382 228.59 192.489 231.865 195.248 231.865C194.743 232.542 194.023 233.027 193.206 233.24C192.388 233.453 191.523 233.383 190.752 233.039C187.84 231.806 188.732 229.517 188.732 229.517Z" fill="white"/>
<path d="M193.006 244.932C188.463 244.742 184.081 243.201 180.42 240.506C180.42 240.506 183.015 247.761 192.865 247.479L193.006 244.932Z" fill="#A36957"/>
<path d="M167.635 212.494L168.14 225.232C168.14 225.232 172.613 223.87 172.907 223.741C173.2 223.612 172.825 208.138 172.825 208.138C172.825 208.138 172.202 202.268 176.006 200.918C180.009 199.474 181.747 202.374 187.417 203.266C206.119 206.424 204.839 200.684 204.839 200.684C204.839 200.684 207.187 198.159 202.386 195.389C197.584 192.618 185.574 191.679 179 193.945C166.086 198.394 165.311 202.82 165.311 206.73C165.311 212.306 167.635 212.494 167.635 212.494Z" fill="#263238"/>
<path d="M169.831 213.809C169.619 213.727 162.552 212.811 163.221 221.158C163.89 229.505 172.097 226.077 172.097 225.854C172.097 225.631 169.831 213.809 169.831 213.809Z" fill="#B78876"/>
<path d="M169.303 223.06C169.303 223.06 169.162 223.177 168.927 223.307C168.59 223.482 168.199 223.519 167.835 223.412C167.266 223.12 166.787 222.678 166.449 222.134C166.112 221.59 165.93 220.965 165.921 220.325C165.84 219.608 165.92 218.882 166.156 218.2C166.219 217.938 166.343 217.695 166.519 217.49C166.694 217.286 166.916 217.127 167.166 217.026C167.33 216.969 167.508 216.971 167.671 217.031C167.833 217.091 167.97 217.205 168.058 217.354C168.187 217.577 168.14 217.754 168.187 217.765C168.234 217.777 168.352 217.601 168.258 217.272C168.2 217.066 168.071 216.887 167.894 216.767C167.646 216.621 167.354 216.571 167.072 216.627C166.734 216.72 166.426 216.898 166.177 217.145C165.929 217.392 165.748 217.698 165.651 218.035C165.356 218.78 165.247 219.587 165.334 220.383C165.522 222.062 166.508 223.565 167.682 223.823C167.912 223.87 168.15 223.865 168.377 223.808C168.605 223.751 168.817 223.644 168.997 223.494C169.303 223.318 169.326 223.119 169.303 223.06Z" fill="#A36957"/>
<path d="M263.07 326.372C263.07 326.372 274.81 325.809 277.158 326.877C281.22 328.65 293.312 347.61 292.702 347.61C290.87 347.61 287.102 347.61 287.102 347.61L268.318 340.484L263.892 341.599L263.07 326.372Z" fill="#B78876"/>
<path d="M313.552 380.81C313.552 380.81 348.678 502.472 348.76 501.873C348.842 501.275 317.274 517.053 317.274 517.053L295.977 429.074L313.552 380.81Z" fill="#263238"/>
<path d="M316.581 517.793L349.852 501.556L348.408 497.107L314.879 513.367L316.581 517.793Z" fill="#455A64"/>
<path d="M312.214 473.04C312.038 473.04 311.674 472.324 311.38 471.349C311.087 470.375 310.993 469.518 311.169 469.471C311.345 469.424 311.709 470.175 312.002 471.161C312.296 472.148 312.378 472.981 312.214 473.04Z" fill="#455A64"/>
<path d="M314.385 480.166C314.209 480.166 313.822 479.462 313.528 478.487C313.235 477.513 313.118 476.667 313.282 476.609C313.446 476.55 313.834 477.313 314.139 478.288C314.444 479.262 314.55 480.084 314.385 480.166Z" fill="#455A64"/>
<path d="M316.651 487.21C316.475 487.269 316.088 486.517 315.771 485.543C315.454 484.568 315.336 483.735 315.501 483.676C315.665 483.618 316.064 484.369 316.381 485.343C316.698 486.318 316.816 487.21 316.651 487.21Z" fill="#455A64"/>
<path d="M319.023 494.254C318.847 494.313 318.448 493.573 318.119 492.599C317.79 491.624 317.649 490.791 317.825 490.732C318.001 490.673 318.401 491.413 318.729 492.387C319.058 493.362 319.187 494.254 319.023 494.254Z" fill="#455A64"/>
<path d="M321.488 501.298C321.324 501.298 320.901 500.617 320.561 499.654C320.22 498.692 320.068 497.858 320.244 497.8C320.42 497.741 320.819 498.469 321.171 499.443C321.523 500.418 321.676 501.204 321.488 501.298Z" fill="#455A64"/>
<path d="M324.024 508.236C323.848 508.236 323.425 507.567 323.073 506.604C322.721 505.642 322.557 504.808 322.721 504.75C322.885 504.691 323.32 505.419 323.672 506.381C324.024 507.344 324.224 508.178 324.024 508.236Z" fill="#455A64"/>
<path d="M322.181 511.16C321.891 510.77 321.655 510.343 321.476 509.892C321.065 509.046 320.502 507.814 319.856 506.276C318.553 503.2 316.945 498.868 315.325 494.043C313.705 489.218 312.343 484.803 311.38 481.61C310.934 480.107 310.558 478.839 310.206 477.818C310.036 477.361 309.925 476.883 309.877 476.397C310.107 476.825 310.296 477.273 310.441 477.736C310.77 478.616 311.216 479.884 311.756 481.469L315.876 493.831C317.485 498.657 319.023 503 320.22 506.111L321.653 509.786C321.877 510.224 322.054 510.684 322.181 511.16Z" fill="#455A64"/>
<path d="M149.673 372.358C149.967 365.912 146.304 407.73 178.448 408.834C210.592 409.937 276.266 409.456 276.266 409.456L268.576 515.503H307.142L315.196 402.682C315.196 402.682 319.305 369.998 296.94 365.83C282.946 363.212 195.917 362.379 195.917 362.379L149.673 372.358Z" fill="#263238"/>
<path d="M267.695 515.727H308.304V509.41L267.695 509.469V515.727Z" fill="#455A64"/>
<path d="M204.17 403.856C204.307 403.839 204.445 403.839 204.581 403.856L205.755 403.786L210.451 403.574L227.885 402.905L286.691 400.886H287.067V401.261C286.538 405.582 286.092 410.149 285.716 414.786C285.2 421.419 284.707 427.888 284.225 434.133C283.744 440.379 283.051 446.39 282.453 452.119C281.279 463.554 280.175 473.862 279.259 482.537C278.344 491.213 277.581 498.163 277.052 503.036C276.782 505.384 276.571 507.309 276.418 508.612C276.348 509.223 276.289 509.704 276.242 510.056C276.227 510.222 276.2 510.387 276.16 510.549C276.142 510.385 276.142 510.22 276.16 510.056C276.16 509.692 276.23 509.211 276.277 508.6C276.395 507.285 276.571 505.407 276.794 503.012C277.264 498.14 277.968 491.131 278.802 482.491C279.635 473.85 280.703 463.507 281.854 452.049C282.417 446.32 283.028 440.309 283.58 434.075C284.131 427.841 284.554 421.36 285.059 414.739C285.435 410.043 285.881 405.523 286.421 401.179L286.75 401.543L227.932 403.339L210.498 403.821L205.802 403.915H204.628C204.473 403.919 204.319 403.899 204.17 403.856Z" fill="#455A64"/>
<path d="M207.88 399.266C207.88 399.442 207.058 399.606 206.025 399.63C204.992 399.653 204.17 399.536 204.17 399.36C204.17 399.184 204.992 399.007 206.014 398.984C207.035 398.96 207.88 399.09 207.88 399.266Z" fill="#455A64"/>
<path d="M215.312 399.09C215.312 399.266 214.49 399.43 213.457 399.453C212.424 399.477 211.602 399.36 211.59 399.183C211.578 399.007 212.424 398.843 213.445 398.808C214.466 398.773 215.312 398.913 215.312 399.09Z" fill="#455A64"/>
<path d="M222.743 398.913C222.743 399.101 221.921 399.254 220.888 399.289C219.855 399.324 219.033 399.183 219.021 399.007C219.01 398.831 219.855 398.667 220.876 398.643C221.898 398.62 222.743 398.737 222.743 398.913Z" fill="#455A64"/>
<path d="M230.174 398.737C230.174 398.925 229.353 399.09 228.32 399.113C227.286 399.137 226.465 399.007 226.453 398.831C226.441 398.655 227.286 398.491 228.308 398.467C229.329 398.444 230.174 398.561 230.174 398.737Z" fill="#455A64"/>
<path d="M237.606 398.573C237.606 398.749 236.784 398.913 235.751 398.937C234.718 398.96 233.896 398.831 233.884 398.655C233.873 398.479 234.718 398.315 235.739 398.291C236.761 398.268 237.606 398.385 237.606 398.573Z" fill="#455A64"/>
<path d="M245.037 398.397C245.037 398.573 244.215 398.737 243.182 398.761C242.149 398.784 241.327 398.655 241.316 398.479C241.304 398.303 242.149 398.139 243.171 398.115C244.192 398.092 245.026 398.221 245.037 398.397Z" fill="#455A64"/>
<path d="M252.469 398.221C252.469 398.397 251.647 398.561 250.614 398.585C249.581 398.608 248.759 398.479 248.747 398.303C248.735 398.127 249.569 397.963 250.602 397.939C251.635 397.916 252.41 398.045 252.469 398.221Z" fill="#455A64"/>
<path d="M259.9 398.045C259.9 398.221 259.078 398.385 258.045 398.409C257.012 398.432 256.19 398.315 256.179 398.127C256.167 397.939 257 397.786 258.033 397.763C259.067 397.739 259.888 397.869 259.9 398.045Z" fill="#455A64"/>
<path d="M267.332 397.869C267.332 398.045 266.51 398.209 265.477 398.233C264.444 398.256 263.622 398.139 263.61 397.963C263.598 397.786 264.432 397.61 265.465 397.587C266.498 397.563 267.32 397.692 267.332 397.869Z" fill="#455A64"/>
<path d="M274.716 397.693C274.716 397.869 273.882 398.033 272.861 398.056C271.84 398.08 271.006 397.963 270.994 397.786C270.983 397.61 271.816 397.434 272.849 397.411C273.882 397.387 274.716 397.516 274.716 397.693Z" fill="#455A64"/>
<path d="M282.194 397.516C282.194 397.693 281.361 397.857 280.339 397.88C279.318 397.904 278.485 397.786 278.473 397.61C278.461 397.434 279.295 397.27 280.328 397.246C281.361 397.223 282.183 397.34 282.194 397.516Z" fill="#455A64"/>
<path d="M289.626 397.34C289.626 397.528 288.792 397.692 287.771 397.716C286.75 397.739 285.904 397.61 285.904 397.434C285.904 397.258 286.726 397.094 287.759 397.07C288.792 397.047 289.614 397.164 289.626 397.34Z" fill="#455A64"/>
<path d="M289.614 404.079C289.426 404.079 289.368 403.222 289.473 402.201C289.579 401.179 289.79 400.369 289.966 400.381C290.142 400.393 290.213 401.238 290.107 402.259C290.001 403.281 289.79 404.103 289.614 404.079Z" fill="#455A64"/>
<path d="M288.886 411.475C288.71 411.475 288.64 410.618 288.745 409.597C288.851 408.575 289.074 407.765 289.25 407.777C289.426 407.789 289.485 408.634 289.391 409.656C289.297 410.677 289.062 411.499 288.886 411.475Z" fill="#455A64"/>
<path d="M288.158 418.871C287.982 418.871 287.912 418.014 288.017 416.993C288.123 415.972 288.346 415.162 288.522 415.173C288.698 415.185 288.757 416.042 288.663 417.063C288.569 418.085 288.334 418.895 288.158 418.871Z" fill="#455A64"/>
<path d="M287.43 426.268C287.254 426.268 287.196 425.411 287.29 424.389C287.383 423.368 287.618 422.558 287.794 422.57C287.97 422.581 288.029 423.438 287.935 424.46C287.841 425.481 287.63 426.291 287.43 426.268Z" fill="#455A64"/>
<path d="M286.703 433.676C286.526 433.676 286.468 432.807 286.562 431.785C286.656 430.764 286.89 429.954 287.067 429.978C287.243 430.001 287.313 430.835 287.207 431.856C287.102 432.877 286.879 433.687 286.703 433.676Z" fill="#455A64"/>
<path d="M285.975 441.072C285.799 441.072 285.74 440.203 285.846 439.182C285.951 438.16 286.162 437.35 286.339 437.374C286.515 437.397 286.585 438.231 286.479 439.252C286.374 440.273 286.162 441.084 285.975 441.072Z" fill="#455A64"/>
<path d="M285.282 448.468C285.094 448.468 285.035 447.611 285.141 446.59C285.247 445.568 285.458 444.746 285.646 444.77C285.834 444.793 285.881 445.627 285.775 446.648C285.669 447.67 285.435 448.468 285.282 448.468Z" fill="#455A64"/>
<path d="M284.531 455.864C284.355 455.864 284.284 455.007 284.39 453.986C284.495 452.964 284.719 452.143 284.895 452.166C285.071 452.19 285.129 453.023 285.035 454.044C284.942 455.066 284.707 455.876 284.531 455.864Z" fill="#455A64"/>
<path d="M283.803 463.26C283.627 463.26 283.568 462.403 283.662 461.382C283.756 460.361 283.991 459.551 284.167 459.562C284.343 459.574 284.402 460.419 284.308 461.441C284.214 462.462 283.979 463.284 283.803 463.26Z" fill="#455A64"/>
<path d="M283.075 470.657C282.899 470.657 282.84 469.8 282.934 468.778C283.028 467.757 283.263 466.947 283.439 466.959C283.615 466.97 283.674 467.816 283.58 468.837C283.486 469.858 283.251 470.68 283.075 470.657Z" fill="#455A64"/>
<path d="M282.347 478.053C282.171 478.053 282.112 477.196 282.206 476.174C282.3 475.153 282.535 474.343 282.711 474.355C282.887 474.366 282.958 475.212 282.852 476.233C282.746 477.254 282.523 478.076 282.347 478.053Z" fill="#455A64"/>
<path d="M281.631 485.449C281.443 485.449 281.384 484.592 281.49 483.571C281.596 482.549 281.807 481.739 281.983 481.751C282.159 481.763 282.23 482.62 282.124 483.641C282.018 484.662 281.76 485.472 281.631 485.449Z" fill="#455A64"/>
<path d="M280.903 492.845C280.727 492.845 280.656 491.988 280.762 490.967C280.868 489.945 281.079 489.135 281.267 489.147C281.455 489.159 281.502 490.016 281.396 491.037C281.29 492.059 281.079 492.869 280.903 492.845Z" fill="#455A64"/>
<path d="M280.175 500.253C279.999 500.253 279.929 499.384 280.034 498.363C280.14 497.342 280.363 496.532 280.539 496.555C280.715 496.579 280.774 497.412 280.68 498.433C280.586 499.455 280.351 500.265 280.175 500.253Z" fill="#455A64"/>
<path d="M279.412 507.649C279.236 507.649 279.177 506.792 279.271 505.771C279.365 504.75 279.6 503.928 279.776 503.951C279.952 503.975 280.011 504.808 279.917 505.83C279.823 506.851 279.623 507.661 279.412 507.649Z" fill="#455A64"/>
<path d="M279.06 511.571C278.884 511.571 278.743 511.488 278.755 511.43C278.766 511.371 278.907 511.324 279.083 511.347C279.259 511.371 279.4 511.43 279.4 511.488C279.4 511.547 279.236 511.582 279.06 511.571Z" fill="#455A64"/>
<path d="M281.525 404.513C280.851 405.573 279.996 406.506 279.001 407.272C278.145 408.192 277.141 408.962 276.031 409.55C277.56 407.569 279.419 405.865 281.525 404.513V404.513Z" fill="#263238"/>
<path d="M284.19 405.946C282.914 406.867 281.52 407.614 280.046 408.165C278.655 408.904 277.17 409.449 275.632 409.785C276.908 408.863 278.302 408.117 279.776 407.566C281.167 406.829 282.652 406.284 284.19 405.946Z" fill="#263238"/>
<path d="M205.767 321.793C205.767 321.793 201.834 279.659 194.849 261.215L196.234 260.17L194.156 252.903L168.023 249.733L168.422 255.404C164.566 257.141 161.415 260.138 159.488 263.903C150.096 283.791 154.792 307.013 149.755 350.04C149.755 350.04 143.885 370.221 149.943 376.537L206.964 363.247L204.276 350.239C229.165 349.77 270.09 345.191 270.09 345.191L268.916 321.641C268.916 321.641 207.763 322.005 205.767 321.793" fill="#455A64"/>
<path d="M194.109 252.868C194.938 254.346 195.573 255.924 195.999 257.564C196.255 258.205 196.428 258.875 196.516 259.56C196.533 259.914 196.416 260.262 196.187 260.534C195.999 260.756 195.756 260.926 195.483 261.027C194.497 261.332 193.933 261.121 193.933 261.027C193.933 260.933 194.544 260.921 195.283 260.569C195.481 260.481 195.649 260.335 195.764 260.151C195.879 259.967 195.936 259.753 195.929 259.536C195.796 258.917 195.615 258.308 195.389 257.716C194.762 256.16 194.332 254.531 194.109 252.868V252.868Z" fill="#E0E0E0"/>
<path d="M200.343 284.237C200.343 284.425 189.777 284.566 176.863 284.566C163.949 284.566 153.383 284.425 153.383 284.237C153.383 284.049 163.949 283.92 176.863 283.92C189.777 283.92 200.343 284.108 200.343 284.237Z" fill="#263238"/>
<path d="M197.889 272.368C197.889 272.544 188.568 272.697 177.086 272.697C165.604 272.697 156.283 272.544 156.283 272.368C156.283 272.192 165.593 272.051 177.086 272.051C188.58 272.051 197.889 272.192 197.889 272.368Z" fill="#263238"/>
<path d="M194.461 261.931C194.461 262.107 186.76 262.248 177.25 262.248C167.741 262.248 160.051 262.107 160.051 261.931C160.051 261.755 167.753 261.602 177.25 261.602C186.748 261.602 194.461 261.802 194.461 261.931Z" fill="#263238"/>
<path d="M194.121 254.558C189.735 254.89 185.334 255 180.937 254.887C176.539 255 172.139 254.89 167.753 254.558C167.753 254.382 173.623 254.241 180.937 254.241C188.251 254.241 194.121 254.382 194.121 254.558Z" fill="#263238"/>
<path d="M201.998 295.66C201.998 295.836 190.881 295.977 177.168 295.977C163.456 295.977 152.338 295.836 152.338 295.66C152.338 295.484 163.456 295.331 177.168 295.331C190.881 295.331 201.998 295.472 201.998 295.66Z" fill="#263238"/>
<path d="M204.018 307.13C204.018 307.306 192.454 307.447 178.19 307.447C163.926 307.447 152.362 307.306 152.362 307.13C152.362 306.954 163.926 306.801 178.19 306.801C192.454 306.801 204.018 306.954 204.018 307.13Z" fill="#263238"/>
<path d="M205.286 317.696C205.286 317.884 193.428 318.025 178.812 318.025C164.196 318.025 152.338 317.884 152.338 317.696C152.338 317.508 164.196 317.379 178.812 317.379C193.428 317.379 205.286 317.52 205.286 317.696Z" fill="#263238"/>
<path d="M263.07 329.26C263.07 329.436 238.064 329.577 207.223 329.577C176.382 329.577 151.364 329.436 151.364 329.26C151.364 329.084 176.37 328.931 207.223 328.931C238.075 328.931 263.07 329.084 263.07 329.26Z" fill="#263238"/>
<path d="M263.504 338.511C263.504 338.699 238.31 338.84 207.235 338.84C176.159 338.84 150.953 338.699 150.953 338.511C150.953 338.323 176.147 338.194 207.235 338.194C238.322 338.194 263.504 338.335 263.504 338.511Z" fill="#263238"/>
<path d="M203.384 349.922C203.384 350.11 191.35 350.251 176.499 350.251C161.648 350.251 149.603 350.11 149.603 349.922C149.603 349.735 161.636 349.606 176.499 349.606C191.362 349.606 203.384 349.746 203.384 349.922Z" fill="#263238"/>
<path d="M206.119 360.512C206.119 360.688 193.029 360.841 176.887 360.841C160.744 360.841 147.654 360.688 147.654 360.512C147.654 360.336 160.744 360.195 176.887 360.195C193.029 360.195 206.119 360.336 206.119 360.512Z" fill="#263238"/>
<path d="M156.342 363.318C156.154 363.318 156.013 342.785 156.013 317.461C156.013 292.138 156.154 271.605 156.342 271.605C156.529 271.605 156.659 292.138 156.659 317.461C156.659 342.785 156.518 363.318 156.342 363.318Z" fill="#263238"/>
<path d="M170.441 362.191C170.265 362.191 170.124 337.091 170.124 306.132C170.124 275.174 170.23 250.062 170.441 250.062C170.653 250.062 170.77 275.15 170.77 306.121C170.77 337.091 170.629 362.191 170.441 362.191Z" fill="#263238"/>
<path d="M186.02 360.512C185.844 360.512 185.703 336.316 185.703 306.508C185.703 276.7 185.844 252.504 186.02 252.504C186.196 252.504 186.349 276.7 186.349 306.508C186.349 336.316 186.208 360.512 186.02 360.512Z" fill="#263238"/>
<path d="M199.11 363.283C198.934 363.283 198.793 344.287 198.793 320.866C198.793 297.445 198.934 278.438 199.11 278.438C199.287 278.438 199.439 297.433 199.439 320.866C199.439 344.299 199.287 363.283 199.11 363.283Z" fill="#263238"/>
<path d="M212.975 321.735C213.128 323.107 213.171 324.488 213.105 325.867C213.105 328.415 213.104 331.925 212.964 335.799C212.823 339.673 212.752 343.195 212.635 345.731C212.624 347.111 212.514 348.488 212.306 349.852C212.153 348.484 212.11 347.106 212.177 345.731C212.177 343.184 212.177 339.673 212.318 335.788C212.459 331.902 212.529 328.391 212.647 325.844C212.643 324.467 212.753 323.093 212.975 321.735V321.735Z" fill="#263238"/>
<path d="M227.756 322.228C227.901 323.514 227.945 324.809 227.885 326.102C227.885 328.45 227.885 331.772 227.768 335.4C227.65 339.028 227.556 342.327 227.451 344.71C227.455 346.001 227.345 347.289 227.122 348.561C226.976 347.283 226.933 345.995 226.993 344.71C226.993 342.362 226.993 339.028 227.122 335.388C227.251 331.749 227.322 328.462 227.439 326.079C227.428 324.788 227.534 323.499 227.756 322.228V322.228Z" fill="#263238"/>
<path d="M242.455 321.97C242.615 323.211 242.662 324.465 242.595 325.715C242.595 328.063 242.595 331.221 242.478 334.743C242.361 338.265 242.278 341.458 242.161 343.759C242.173 345.014 242.067 346.268 241.844 347.504C241.697 346.265 241.65 345.017 241.703 343.771C241.703 341.423 241.703 338.265 241.832 334.743C241.961 331.221 242.032 328.016 242.138 325.715C242.141 324.46 242.247 323.207 242.455 321.97V321.97Z" fill="#263238"/>
<path d="M257.212 321.559C257.373 322.761 257.42 323.975 257.353 325.186C257.353 327.429 257.353 330.528 257.235 333.944C257.118 337.361 257.047 340.46 256.93 342.691C256.933 343.906 256.831 345.12 256.625 346.318C256.462 345.116 256.411 343.902 256.472 342.691C256.472 340.448 256.472 337.349 256.589 333.933C256.707 330.516 256.789 327.405 256.895 325.175C256.89 323.962 256.996 322.752 257.212 321.559V321.559Z" fill="#263238"/>
<path d="M200.648 327.041C201.711 324.432 203.644 322.27 206.119 320.925C205.258 321.989 204.328 322.997 203.337 323.942C202.506 325.03 201.608 326.065 200.648 327.041Z" fill="#263238"/>
<path d="M204.018 327.323C203.772 326.144 203.862 324.919 204.277 323.788C204.692 322.657 205.415 321.665 206.366 320.925C206.507 321.054 205.52 322.251 204.886 324.012C204.253 325.773 204.276 327.323 204.018 327.323Z" fill="#263238"/>
<path d="M264.15 345.062C263.492 341.337 263.045 337.579 262.812 333.803C262.365 330.043 262.13 326.261 262.107 322.474C262.78 326.201 263.231 329.965 263.457 333.745C263.904 337.501 264.135 341.28 264.15 345.062V345.062Z" fill="#263238"/>
<path d="M264.89 326.912C264.89 326.994 264.561 327.229 264.514 327.816C264.504 327.971 264.524 328.127 264.575 328.274C264.625 328.421 264.704 328.557 264.807 328.673C264.94 328.791 265.105 328.867 265.281 328.89C265.457 328.913 265.635 328.883 265.794 328.802C265.959 328.739 266.103 328.628 266.207 328.484C266.312 328.341 266.372 328.17 266.381 327.992C266.365 327.837 266.318 327.686 266.244 327.549C266.169 327.412 266.068 327.291 265.946 327.194C265.488 326.83 265.054 326.947 265.03 326.853C265.007 326.759 265.465 326.431 266.204 326.853C266.421 326.969 266.605 327.137 266.74 327.342C266.876 327.547 266.958 327.783 266.979 328.027C266.996 328.332 266.917 328.634 266.752 328.891C266.588 329.148 266.347 329.347 266.064 329.46C265.785 329.591 265.473 329.632 265.169 329.578C264.866 329.523 264.588 329.375 264.373 329.154C264.22 328.969 264.113 328.75 264.062 328.515C264.011 328.28 264.017 328.036 264.08 327.804C264.291 326.947 264.901 326.83 264.89 326.912Z" fill="#263238"/>
<path d="M205.697 321.676H205.99L206.847 321.746C207.61 321.829 208.737 321.899 210.216 321.946C213.175 322.063 217.519 322.122 223.048 322.075C234.096 322.005 249.886 321.594 268.834 320.901H269.104V321.171C269.48 328.485 269.879 336.433 270.278 344.863V345.133H270.032C267.026 345.696 263.986 345.931 260.875 346.248L251.389 347.07C244.943 347.598 238.31 348.091 231.56 348.572L206.741 350.239C199.545 349.782 192.559 347.199 187.676 342.456C185.275 340.168 183.39 337.394 182.146 334.32C180.979 331.418 180.048 328.426 179.364 325.374C176.464 313.634 174.668 302.939 173.2 294.064C172.496 289.626 171.897 285.622 171.392 282.124C170.857 279.147 170.508 276.14 170.347 273.119C170.252 271.202 170.656 269.292 171.521 267.578C171.818 266.993 172.215 266.464 172.695 266.017C172.284 266.523 171.919 267.065 171.604 267.637C170.803 269.348 170.447 271.234 170.57 273.119C170.783 276.126 171.175 279.117 171.744 282.077C172.296 285.599 172.918 289.567 173.646 294.005C175.126 302.857 177.004 313.481 179.927 325.233C180.62 328.256 181.55 331.22 182.71 334.097C183.932 337.095 185.781 339.797 188.134 342.021C192.83 346.635 199.744 349.159 206.812 349.617L231.618 347.927L251.436 346.436L260.922 345.626C264.009 345.309 267.108 345.074 269.985 344.534L269.75 344.851C269.351 336.457 268.975 328.473 268.576 321.148L268.869 321.418C249.933 322.11 234.143 322.439 223.083 322.416C217.554 322.416 213.21 322.31 210.252 322.134C208.772 322.052 207.634 321.958 206.871 321.84L206.014 321.735C205.906 321.73 205.799 321.71 205.697 321.676Z" fill="#263238"/>
<path d="M205.697 321.676C205.438 321.081 205.233 320.464 205.086 319.833C204.746 318.659 204.276 316.898 203.712 314.738C202.538 310.429 201.188 304.43 199.686 297.809C198.183 291.187 196.809 285.188 195.776 280.856L194.602 275.726C194.419 275.105 194.297 274.468 194.238 273.824C194.49 274.421 194.695 275.037 194.849 275.667C195.213 276.841 195.682 278.59 196.258 280.75C197.432 285.047 198.864 291.035 200.367 297.668C201.869 304.301 203.102 310.183 204.159 314.632C204.628 316.722 205.027 318.448 205.333 319.774C205.501 320.398 205.623 321.034 205.697 321.676Z" fill="#263238"/>
<path d="M194.191 253.361C194.202 253.795 194.158 254.229 194.062 254.652C193.945 255.486 193.757 256.672 193.499 258.174C193.386 258.994 193.222 259.806 193.006 260.605C192.934 260.869 192.801 261.114 192.617 261.318C192.434 261.522 192.205 261.679 191.949 261.779C191.433 261.914 190.891 261.914 190.376 261.779C188.439 261.379 186.326 260.863 184.118 260.264C179.716 259.09 175.795 257.787 172.942 256.906L169.573 255.85C169.164 255.747 168.769 255.593 168.399 255.392C168.833 255.405 169.263 255.476 169.678 255.603C170.5 255.791 171.674 256.073 173.118 256.472C176.006 257.235 179.951 258.433 184.341 259.642C186.537 260.241 188.627 260.816 190.552 261.203C190.965 261.338 191.405 261.366 191.832 261.285C192.007 261.222 192.164 261.117 192.291 260.98C192.417 260.843 192.509 260.678 192.559 260.499C192.818 259.748 192.923 258.879 193.1 258.151C193.405 256.695 193.675 255.521 193.863 254.699C193.907 254.24 194.018 253.789 194.191 253.361V253.361Z" fill="#263238"/>
<path d="M173.646 415.89L181.853 527.267L185.281 526.469L184.001 418.238L173.646 415.89Z" fill="#263238"/>
<path d="M138.872 419.764L113.948 527.138H118.457L154.134 419.764H138.872Z" fill="#263238"/>
<path d="M204.793 419.764L238.792 527.138H242.431L215.417 419.764H204.793Z" fill="#263238"/>
<path d="M209.348 426.972L133.155 476.761V479.485L211.473 426.972H209.348Z" fill="#263238"/>
<path d="M144.695 426.972L227.251 482.526V478.276L147.114 424.542L144.695 426.972Z" fill="#263238"/>
<path d="M127.485 421.607L225.655 419.834C226.534 419.818 227.4 419.617 228.196 419.244C228.993 418.872 229.703 418.336 230.279 417.672C230.856 417.008 231.287 416.231 231.544 415.39C231.801 414.549 231.878 413.663 231.771 412.79C231.593 411.245 230.847 409.822 229.677 408.798C228.507 407.773 226.998 407.221 225.443 407.249L125.876 408.846L127.485 421.607Z" fill="#362A89"/>
<g opacity="0.2">
<path opacity="0.2" d="M127.485 421.607L225.655 419.834C226.534 419.818 227.4 419.617 228.196 419.244C228.993 418.872 229.703 418.336 230.279 417.672C230.856 417.008 231.287 416.231 231.544 415.39C231.801 414.549 231.878 413.663 231.771 412.79C231.593 411.245 230.847 409.822 229.677 408.798C228.507 407.773 226.998 407.221 225.443 407.249L125.876 408.846L127.485 421.607Z" fill="black"/>
</g>
<path d="M117.482 345.72L127.391 421.607L204.793 419.764L204.593 373.672C204.62 371.861 204.266 370.065 203.554 368.399C202.841 366.734 201.787 365.237 200.458 364.006C199.129 362.774 197.557 361.837 195.842 361.253C194.127 360.669 192.309 360.453 190.505 360.618L131.488 365.948L123.716 285.517L115.874 284.848C115.055 284.788 114.233 284.911 113.467 285.21C112.702 285.508 112.013 285.973 111.451 286.572C110.888 287.17 110.466 287.887 110.216 288.669C109.966 289.451 109.893 290.279 110.004 291.093L117.482 345.72Z" fill="#362A89"/>
</svg>
