<svg width="467" height="245" viewBox="0 0 467 245" fill="none" xmlns="http://www.w3.org/2000/svg">
<path d="M463.93 40.3798C463.93 40.3798 458.317 36.9556 452.113 50.3032C445.909 63.6509 443.646 71.3117 443.646 71.3117C443.646 71.3117 441.975 74.1182 440.027 72.3926C438.08 70.6671 435.328 65.6785 432.132 66.6991C428.842 67.7666 427.882 71.5198 428.714 76.9515C429.547 82.3832 430.923 94.3478 431.051 95.4288C431.178 96.5097 430.614 98.1144 429.097 97.1207C427.58 96.127 418.717 86.9757 414.608 91.4406C410.499 95.9055 415.279 110.656 415.803 112.254C416.327 113.852 415.998 114.584 415.232 115.021C414.467 115.457 411.781 112.086 409.19 109.575C406.598 107.064 403.073 104.62 400.924 107.393C398.776 110.166 398.454 121.379 409.754 139.158L415.528 147.054L425.31 146.154C446.124 142.958 454.355 135.344 455.027 131.9C455.698 128.455 451.562 127.435 447.95 127.113C444.338 126.79 440.027 126.972 439.853 126.112C439.678 125.253 440.014 124.561 441.565 123.87C443.116 123.178 457.37 117.082 458.035 111.046C458.699 105.01 445.949 104.392 444.224 103.882C442.498 103.372 443.331 101.908 444.224 101.297C445.117 100.686 455.04 93.8442 459.666 90.8967C464.292 87.9492 466.427 84.7735 465.085 81.591C463.742 78.5226 458.189 79.7312 455.604 79.3955C453.019 79.0598 454.04 75.9578 454.04 75.9578C454.04 75.9578 458.317 69.2437 464.279 55.7685C470.241 42.2933 463.802 40.326 463.802 40.326" fill="#E0E0E0"/>
<path d="M458.37 52.3242C458.37 52.3242 458.337 52.4249 458.256 52.6129C458.176 52.8009 458.055 53.0963 457.907 53.4522L456.524 56.6414C455.315 59.4143 453.543 63.4159 451.334 68.3508C446.916 78.2205 440.699 91.7965 433.783 106.769C426.868 121.741 420.597 135.317 416.125 145.167L410.841 156.829L409.404 159.998C409.237 160.348 409.109 160.623 409.022 160.818C408.979 160.912 408.932 161.004 408.881 161.093C408.91 160.994 408.946 160.898 408.988 160.804C409.075 160.603 409.19 160.327 409.337 159.972C409.66 159.226 410.13 158.152 410.72 156.776C411.929 154.003 413.701 150.008 415.91 145.073C420.328 135.203 426.546 121.627 433.461 106.648C440.377 91.6689 446.627 78.1064 451.099 68.2635C453.328 63.3555 455.127 59.374 456.383 56.6078L457.827 53.4388C457.988 53.0829 458.115 52.8143 458.209 52.6129C458.303 52.4115 458.37 52.3242 458.37 52.3242Z" fill="#E0E0E0"/>
<path d="M435.724 73.8429C435.844 74.0537 435.937 74.2794 435.999 74.5143C436.16 74.9373 436.368 75.5617 436.623 76.3338C437.12 77.8848 437.758 80.0333 438.416 82.4235L440.074 88.5468C440.276 89.2786 440.444 89.8896 440.585 90.3999C440.666 90.6158 440.718 90.8416 440.739 91.0713C440.618 90.8605 440.526 90.6348 440.464 90.3999C440.303 89.9769 440.095 89.3525 439.846 88.5737C439.363 87.0227 438.752 84.8607 438.094 82.4705L436.395 76.3607L435.878 74.5143C435.801 74.2971 435.75 74.0718 435.724 73.8429Z" fill="#E0E0E0"/>
<path d="M441.646 91.2123C441.646 91.125 445.996 89.6144 451.428 87.8553C456.86 86.0962 461.291 84.7063 461.318 84.7936C461.345 84.8809 456.967 86.3916 451.536 88.1507C446.104 89.9098 441.672 91.2996 441.646 91.2123Z" fill="#E0E0E0"/>
<path d="M429.983 113.731C430.222 113.687 430.465 113.666 430.708 113.671L432.669 113.604C434.32 113.543 436.61 113.456 439.128 113.261C441.646 113.067 443.922 112.838 445.573 112.65L447.52 112.429C447.759 112.384 448.003 112.371 448.246 112.389C448.028 112.468 447.803 112.524 447.574 112.556C447.118 112.644 446.453 112.758 445.634 112.879C443.996 113.127 441.713 113.409 439.188 113.597C436.664 113.785 434.368 113.839 432.702 113.832C431.877 113.832 431.205 113.832 430.742 113.799C430.487 113.811 430.232 113.788 429.983 113.731Z" fill="#E0E0E0"/>
<path d="M421.174 99.2021C421.33 99.3618 421.465 99.54 421.577 99.7326C421.819 100.082 422.168 100.599 422.584 101.243C423.423 102.526 424.558 104.312 425.794 106.292C427.029 108.273 428.137 110.079 428.922 111.395C429.318 112.066 429.627 112.59 429.835 112.966C429.962 113.151 430.064 113.352 430.138 113.564C429.976 113.408 429.838 113.229 429.728 113.033C429.486 112.677 429.144 112.167 428.721 111.523C427.888 110.24 426.754 108.454 425.512 106.467C424.269 104.479 423.168 102.68 422.383 101.364C421.993 100.693 421.711 100.169 421.47 99.7997C421.347 99.6131 421.248 99.4125 421.174 99.2021Z" fill="#E0E0E0"/>
<path d="M408.35 117.773C408.546 117.978 408.719 118.203 408.867 118.445L410.163 120.378C411.237 122.017 412.714 124.293 414.326 126.817C415.937 129.342 417.381 131.645 418.408 133.317L419.617 135.331C419.773 135.569 419.908 135.821 420.019 136.083C419.824 135.878 419.651 135.653 419.502 135.411L418.213 133.478C417.132 131.833 415.655 129.557 414.044 127.032C412.432 124.508 410.996 122.205 409.962 120.533C409.478 119.741 409.075 119.069 408.76 118.519C408.597 118.285 408.46 118.036 408.35 117.773Z" fill="#E0E0E0"/>
<path d="M419.865 135.559C420.162 135.491 420.466 135.455 420.771 135.452L423.256 135.277C425.35 135.129 428.251 134.914 431.44 134.606C434.629 134.297 437.483 133.934 439.598 133.646L442.062 133.317C442.363 133.262 442.669 133.235 442.975 133.236C442.685 133.335 442.386 133.405 442.082 133.444C441.505 133.558 440.665 133.706 439.631 133.874C437.55 134.216 434.67 134.619 431.474 134.941C428.278 135.264 425.371 135.445 423.269 135.532C422.215 135.572 421.369 135.599 420.778 135.599C420.473 135.612 420.168 135.598 419.865 135.559Z" fill="#E0E0E0"/>
<path d="M64.111 106.514C79.775 96.0599 83.5819 76.3003 83.2664 58.4474C83.206 55.4664 83.5887 52.3376 82.1921 49.7191C80.7956 47.1006 77.4922 45.2475 74.7596 46.4628C72.5104 47.4699 71.4898 50.028 70.2074 52.1362C68.4779 54.953 65.9907 57.2262 63.03 58.6959C61.0964 59.6493 58.7129 60.2133 56.8329 59.1524C54.2547 57.7022 53.9996 54.1504 54.0667 51.1895L54.4293 34.6459C54.4897 31.685 54.5501 28.6636 53.6571 25.837C52.7642 23.0104 50.7499 20.3784 47.9099 19.5459C45.0698 18.7133 41.518 20.2844 40.8667 23.1715C40.5982 24.3733 40.8265 25.6289 40.7258 26.8576C40.625 28.0862 40.0543 29.4358 38.8324 29.7581C37.6104 30.0803 36.4489 29.2276 35.5626 28.3548C32.5144 25.3133 30.4733 21.4393 28.5732 17.6122C26.6731 13.7852 24.82 9.80371 22.0672 6.50708C19.3144 3.21045 15.4605 0.565086 11.1702 0.256237C6.87991 -0.0526121 2.26732 2.50547 1.09906 6.64808C-0.0691943 10.7907 2.34789 15.0743 4.97982 18.4918C8.89889 23.5543 13.5278 28.0249 18.7236 31.7656C19.6636 32.437 20.6707 33.1688 21.0198 34.2699C21.6375 36.2842 19.7173 38.1843 17.7299 38.8087C15.4807 39.4801 13.03 39.2451 10.7204 39.4801C8.41073 39.7151 5.8258 40.6953 4.90596 42.8371C3.637 45.8451 6.14807 49.0544 8.63901 51.1694C13.6293 55.4056 19.3058 58.7594 25.4243 61.0861C27.6198 61.9187 29.9295 62.6505 31.6818 64.2082C33.4342 65.7658 34.4749 68.4381 33.3671 70.506C32.2593 72.5739 29.4863 73.1916 27.1834 72.7485C24.8804 72.3054 22.8326 71.023 20.6438 70.1703C16.5415 68.5723 11.2441 68.7738 8.52487 72.2517C6.75234 74.5345 6.55092 77.7505 7.38347 80.5167C8.21602 83.283 9.96169 85.6799 11.8148 87.9023C18.3006 95.6504 26.6664 101.935 36.1736 105.359C45.6808 108.783 54.5233 109.79 64.0774 106.5" fill="#EBEBEB"/>
<path d="M62.9092 106.856C60.3914 97.8257 53.5094 76.5755 49.3803 66.5715L46.3119 59.186C45.2981 56.7622 44.2977 54.3652 43.163 52.0757C40.9827 47.6932 38.5619 43.4344 35.9118 39.3189C33.4007 35.3576 30.8762 31.6917 28.5262 28.2742C26.1763 24.8567 23.8264 21.7346 21.6241 18.9617C18.1513 14.5678 14.3346 10.457 10.2101 6.66818C8.75317 5.32536 7.59163 4.31824 6.79265 3.64683L5.83924 2.82771C5.63111 2.65986 5.51697 2.57928 5.51697 2.57928C5.51697 2.57928 5.61097 2.68 5.80567 2.86128L6.69194 3.65355C7.46406 4.32496 8.61217 5.37236 10.049 6.73532C14.1115 10.5688 17.8819 14.7006 21.3287 19.096C23.5175 21.8756 25.7869 25.0178 28.1704 28.4286C30.5539 31.8394 33.0515 35.5187 35.5559 39.4733C38.1894 43.5903 40.5945 47.849 42.7602 52.2301C43.8814 54.5129 44.8818 56.93 45.8956 59.327C46.9095 61.7239 47.9099 64.2215 48.964 66.7125C53.0663 76.7031 59.9684 97.9331 62.5064 106.937" fill="#E0E0E0"/>
<path d="M43.022 52.0288C43.1609 51.6185 43.2599 51.1958 43.3174 50.7665C43.4785 49.9474 43.68 48.7523 43.9082 47.2886C44.3715 44.3478 44.8751 40.2657 45.4189 35.7605C45.9628 31.2553 46.5335 27.1933 47.0572 24.2659C47.3123 22.8022 47.5339 21.6206 47.7286 20.8082C47.8335 20.3895 47.9032 19.9628 47.9367 19.5325C47.7724 19.9314 47.6465 20.345 47.5607 20.7679C47.3391 21.5736 47.0706 22.7821 46.7752 24.2122C46.1239 27.1261 45.5196 31.2016 44.9758 35.7269C44.4319 40.2522 43.9619 44.2337 43.5994 47.2685C43.4181 48.6784 43.2637 49.8534 43.1428 50.7598C43.0668 51.1786 43.0263 51.6031 43.022 52.0288Z" fill="#E0E0E0"/>
<path d="M4.57703 44.3411C4.70525 44.382 4.83861 44.4046 4.97316 44.4083L6.11456 44.5224C7.10825 44.6231 8.53835 44.7574 10.2975 44.979C13.8224 45.3952 18.6767 46.1539 23.9942 47.2215C29.3118 48.289 34.0654 49.4908 37.4896 50.451C39.2017 50.921 40.5781 51.3372 41.5181 51.6192L42.6192 51.9415C42.7439 51.9898 42.8752 52.0192 43.0086 52.0288C42.8968 51.9551 42.7746 51.8985 42.646 51.8609C42.3506 51.7468 41.9746 51.6125 41.5718 51.4581C40.6385 51.1224 39.2688 50.6524 37.5433 50.1153C34.1393 49.0746 29.3722 47.8325 24.048 46.7582C18.7237 45.6839 13.8962 45.0058 10.331 44.6634C8.56521 44.4821 7.12168 44.3948 6.12799 44.3546H4.97987C4.84668 44.3333 4.71134 44.3288 4.57703 44.3411Z" fill="#E0E0E0"/>
<path d="M59.1627 94.5627C59.2651 94.4173 59.3528 94.2621 59.4246 94.0994L60.096 92.7566C60.6734 91.5615 61.4388 89.8158 62.4325 87.6471C64.3527 83.3165 66.8168 77.247 69.4555 70.5195C72.0941 63.7919 74.5045 57.6821 76.3374 53.3179L78.5396 48.1615C78.7814 47.584 78.9828 47.1208 79.1372 46.7582C79.2133 46.5964 79.274 46.4278 79.3185 46.2546C79.21 46.3961 79.1218 46.552 79.0566 46.7179L78.3852 48.0607C77.8078 49.2558 77.0088 51.0015 76.0554 53.1635C74.1352 57.5008 71.6644 63.5703 69.0325 70.2979C66.4005 77.0254 63.9767 83.1084 62.1304 87.4726L59.9281 92.629L59.3373 94.0323C59.2576 94.2013 59.199 94.3794 59.1627 94.5627Z" fill="#E0E0E0"/>
<path d="M8.1825 77.5021C8.34312 77.5861 8.51183 77.6536 8.68605 77.7036L10.1699 78.2071L15.6352 80.0401C20.2478 81.5843 26.5926 83.7933 33.5954 86.2506C40.5982 88.708 46.9699 90.8699 51.6094 92.3403C53.9257 93.0722 55.8124 93.6496 57.115 94.0256L58.6256 94.4486C58.7999 94.5077 58.9799 94.5482 59.1628 94.5694C58.9997 94.4838 58.8289 94.4141 58.6525 94.3613L57.1687 93.8577L51.7034 92.0382C47.0908 90.4939 40.7459 88.285 33.7431 85.8276C26.7403 83.3703 20.3753 81.2016 15.7359 79.7379C13.4128 79.0061 11.5328 78.4287 10.2236 78.0527L8.71962 77.623C8.54496 77.5652 8.36506 77.5248 8.1825 77.5021Z" fill="#E0E0E0"/>
<path d="M321.913 3.07615H406.558L390.001 14.846V24.6755C389.963 29.5321 387.999 34.175 384.539 37.5834C381.079 40.9917 376.407 42.8863 371.55 42.8506H318.435C313.578 42.8863 308.906 40.9917 305.446 37.5834C301.986 34.175 300.022 29.5321 299.984 24.6755C300.006 21.8172 300.59 18.9912 301.703 16.3587C302.817 13.7262 304.438 11.3389 306.474 9.33313C308.51 7.32734 310.922 5.74239 313.571 4.6688C316.22 3.59521 319.055 3.05403 321.913 3.07615Z" fill="#E0E0E0"/>
<path d="M375.72 16.2157C375.72 16.3097 361.62 16.3903 344.163 16.3903C326.707 16.3903 312.607 16.3097 312.607 16.2157C312.607 16.1217 326.707 16.0411 344.163 16.0411C361.62 16.0411 375.72 16.115 375.72 16.2157Z" fill="#E0E0E0"/>
<path d="M375.72 22.7553C375.72 22.8493 361.62 22.9298 344.163 22.9298C326.707 22.9298 312.607 22.8493 312.607 22.7553C312.607 22.6613 326.707 22.5807 344.163 22.5807C361.62 22.5807 375.72 22.6545 375.72 22.7553Z" fill="#E0E0E0"/>
<path d="M193.492 204.533H93.3308L109.646 216.337V239.5C109.646 240.136 109.771 240.765 110.015 241.352C110.258 241.939 110.615 242.472 111.064 242.921C111.514 243.37 112.048 243.726 112.635 243.968C113.222 244.211 113.852 244.335 114.487 244.334H193.492C194.127 244.335 194.757 244.211 195.344 243.968C195.931 243.726 196.465 243.37 196.915 242.921C197.364 242.472 197.721 241.939 197.964 241.352C198.208 240.765 198.333 240.136 198.333 239.5V209.367C198.331 208.085 197.82 206.855 196.913 205.949C196.005 205.042 194.775 204.533 193.492 204.533Z" fill="#E0E0E0"/>
<path d="M189.316 220.902C189.316 221.003 174.209 221.077 155.577 221.077C136.946 221.077 121.839 221.003 121.839 220.902C121.839 220.801 136.939 220.728 155.577 220.728C174.216 220.728 189.316 220.808 189.316 220.902Z" fill="#E0E0E0"/>
<path d="M189.316 229.798C189.316 229.892 174.209 229.973 155.577 229.973C136.946 229.973 121.839 229.892 121.839 229.798C121.839 229.704 136.939 229.624 155.577 229.624C174.216 229.624 189.316 229.704 189.316 229.798Z" fill="#E0E0E0"/>
<path d="M200.152 32.6854H80.1778C73.1654 32.6854 66.4403 35.471 61.4818 40.4295C56.5233 45.388 53.7376 52.1132 53.7376 59.1255V101.881H27.8547L53.7376 127.764V156.829C53.7376 163.842 56.5233 170.567 61.4818 175.525C66.4403 180.484 73.1654 183.269 80.1778 183.269H200.152C207.165 183.269 213.89 180.484 218.848 175.525C223.807 170.567 226.592 163.842 226.592 156.829V59.1255C226.592 52.1132 223.807 45.388 218.848 40.4295C213.89 35.471 207.165 32.6854 200.152 32.6854Z" fill="#362A89"/>
<path d="M151.139 37.204C150.381 39.1712 151.683 41.313 153.154 42.8304C154.624 44.3478 156.383 45.7846 156.846 47.8391C157.229 49.5647 156.591 51.3573 156.746 53.1164C156.9 54.8755 157.874 56.5339 158.424 58.2527C159.425 61.3681 159.022 64.7721 158.129 67.9211C157.485 70.5377 156.254 72.9737 154.53 75.0447C153.662 76.0705 152.585 76.9001 151.372 77.4789C150.159 78.0576 148.837 78.3722 147.494 78.4018C147.114 78.4257 146.733 78.3712 146.375 78.2419C146.017 78.1125 145.689 77.911 145.412 77.6498C145.036 77.1066 144.828 76.4643 144.815 75.8034C143.277 62.2845 143.277 48.6348 144.815 35.1159" fill="#263238"/>
<path d="M149.723 80.7719C155.564 80.5167 160.962 86.1096 160.499 91.9375C166.414 93.381 170.57 99.887 169.435 105.863C169.052 107.836 168.173 109.716 168.052 111.717C167.918 113.906 168.723 116.034 169.12 118.183C169.88 122.099 169.474 126.152 167.951 129.839C167.032 132.061 165.313 134.357 162.909 134.424C162.095 134.39 161.301 134.156 160.599 133.743C159.896 133.329 159.306 132.749 158.881 132.054C158.044 130.647 157.492 129.089 157.256 127.469C156.215 122.218 155.913 116.827 154.463 111.677C153.012 106.527 150.193 101.451 145.54 98.8396C142.968 97.3893 139.88 96.7045 137.832 94.5761C136.802 93.4144 136.115 91.9893 135.848 90.4597C135.581 88.9302 135.745 87.3567 136.321 85.9149C136.925 84.4861 137.823 83.2005 138.956 82.1419C140.09 81.0834 141.434 80.2757 142.901 79.7715" fill="#263238"/>
<path d="M109.29 42.018C109.223 39.5204 111.526 37.5934 113.849 36.6467C116.172 35.7 118.757 35.3845 120.825 33.9611C122.665 32.7257 123.894 30.7987 125.444 29.2612C127.36 27.3191 129.757 25.9216 132.391 25.2123C135.025 24.503 137.8 24.5074 140.431 25.2251C143.063 25.9427 145.456 27.3478 147.365 29.2961C149.274 31.2443 150.63 33.6655 151.294 36.311C152.187 39.8628 151.576 44.0658 148.776 46.4292C145.526 49.1685 140.719 48.5576 136.536 47.7049C132.353 46.8522 127.653 46.0129 124.175 48.4636C122.081 49.934 120.872 52.3376 119.59 54.56C118.307 56.7824 116.703 59.045 114.279 59.8843C111.855 60.7235 108.558 59.2733 108.464 56.7152" fill="#263238"/>
<path d="M119.133 42.5283C118.094 42.6406 117.134 43.1389 116.444 43.9246C115.754 44.7103 115.384 45.7262 115.407 46.7716L117.898 103.17C118.005 109.831 127.741 113.57 134.871 113.402C142.075 113.235 142.303 109.703 142.397 103.365C142.545 92.7834 142.532 88.8086 142.538 88.8691C142.545 88.9295 151.636 87.3382 153.496 75.4408C154.416 69.5391 154.1 59.8574 153.583 51.9414C153.12 44.8178 148.38 36.0894 141.283 36.8548L119.133 42.5283Z" fill="#FFBE9D"/>
<path d="M151.535 59.421C151.539 59.8173 151.389 60.1994 151.115 60.4865C150.842 60.7735 150.468 60.9428 150.072 60.9585C149.88 60.975 149.687 60.9532 149.504 60.8945C149.321 60.8357 149.151 60.741 149.005 60.6161C148.859 60.4911 148.739 60.3383 148.652 60.1666C148.566 59.9948 148.514 59.8076 148.501 59.6157C148.495 59.2189 148.645 58.8358 148.919 58.5484C149.193 58.261 149.568 58.0922 149.964 58.0782C150.156 58.0617 150.349 58.0834 150.532 58.1422C150.715 58.201 150.885 58.2957 151.031 58.4206C151.177 58.5456 151.297 58.6984 151.384 58.8701C151.47 59.0419 151.522 59.2291 151.535 59.421Z" fill="#263238"/>
<path d="M151.495 57.0039C151.307 57.2053 150.152 56.3325 148.514 56.3325C146.876 56.3325 145.674 57.165 145.493 56.9636C145.405 56.8763 145.6 56.5137 146.124 56.131C146.831 55.6389 147.673 55.3784 148.534 55.3858C149.387 55.3808 150.219 55.6464 150.911 56.1445C151.415 56.5406 151.589 56.9166 151.495 57.0039Z" fill="#263238"/>
<path d="M135.791 59.421C135.795 59.8173 135.644 60.1994 135.371 60.4865C135.097 60.7735 134.723 60.9428 134.327 60.9585C134.135 60.975 133.942 60.9532 133.759 60.8945C133.576 60.8357 133.407 60.741 133.26 60.6161C133.114 60.4911 132.994 60.3383 132.908 60.1666C132.821 59.9948 132.77 59.8076 132.756 59.6157C132.75 59.2189 132.901 58.8358 133.174 58.5484C133.448 58.261 133.823 58.0922 134.22 58.0782C134.411 58.0617 134.604 58.0834 134.787 58.1422C134.971 58.201 135.14 58.2957 135.286 58.4206C135.433 58.5456 135.552 58.6984 135.639 58.8701C135.726 59.0419 135.777 59.2291 135.791 59.421Z" fill="#263238"/>
<path d="M135.422 57.3463C135.234 57.5477 134.079 56.6749 132.441 56.6749C130.802 56.6749 129.6 57.5074 129.426 57.306C129.339 57.2187 129.527 56.8562 130.05 56.4735C130.757 55.9801 131.599 55.7174 132.461 55.7215C133.314 55.7184 134.146 55.9865 134.837 56.4869C135.307 56.8965 135.482 57.259 135.422 57.3463Z" fill="#263238"/>
<path d="M141.364 69.4854C141.364 69.3914 142.371 69.2169 144.049 69.002C144.465 68.955 144.862 68.8677 144.935 68.5857C144.966 68.1529 144.868 67.7207 144.653 67.3436L143.405 64.1611C141.679 59.6291 140.424 55.9028 140.612 55.8356C140.8 55.7685 142.344 59.3874 144.069 63.8926L145.264 67.0952C145.525 67.5995 145.603 68.1781 145.486 68.7335C145.427 68.8799 145.336 69.0113 145.22 69.1182C145.104 69.225 144.965 69.3046 144.815 69.3511C144.596 69.4114 144.37 69.443 144.143 69.4451C142.397 69.566 141.37 69.5794 141.364 69.4854Z" fill="#263238"/>
<path d="M142.539 88.8758C136.947 88.9722 131.438 87.5149 126.626 84.666C126.626 84.666 130.5 92.8169 142.384 91.6756L142.539 88.8758Z" fill="#EB996E"/>
<path d="M140.679 73.4334C140.363 73.0361 139.949 72.7273 139.479 72.5367C139.008 72.3462 138.497 72.2804 137.993 72.3457C137.632 72.3781 137.28 72.4835 136.961 72.6554C136.641 72.8273 136.36 73.0623 136.133 73.3461C135.915 73.6199 135.786 73.9544 135.765 74.3039C135.743 74.6535 135.83 75.0012 136.012 75.2999C136.275 75.5948 136.621 75.8037 137.004 75.8995C137.387 75.9953 137.79 75.9735 138.161 75.837C138.934 75.5623 139.644 75.1353 140.249 74.5815C140.435 74.4516 140.594 74.2876 140.719 74.0981C140.78 74.0079 140.813 73.9015 140.813 73.7926C140.813 73.6836 140.78 73.5772 140.719 73.4871" fill="#EB996E"/>
<path d="M136.543 70.6403C136.811 70.6403 136.818 72.4061 138.342 73.6616C139.866 74.9171 141.76 74.7224 141.773 75.0044C141.773 75.1186 141.35 75.3536 140.551 75.3737C139.509 75.3926 138.494 75.0431 137.684 74.3867C136.909 73.7529 136.411 72.843 136.294 71.8488C136.221 71.0632 136.422 70.6403 136.543 70.6403Z" fill="#263238"/>
<path d="M136.093 54.4727C135.932 54.9225 134.294 54.7144 132.373 54.9494C130.453 55.1844 128.896 55.7148 128.64 55.3119C128.526 55.1239 128.795 54.7009 129.419 54.2712C130.253 53.7354 131.198 53.3964 132.182 53.2801C133.166 53.1638 134.164 53.2731 135.099 53.5998C135.831 53.9154 136.187 54.2645 136.093 54.4727Z" fill="#263238"/>
<path d="M150.864 52.2638C150.575 52.6331 149.447 52.2638 148.084 52.2638C146.721 52.2638 145.58 52.5189 145.318 52.1295C145.197 51.9415 145.379 51.5722 145.882 51.2164C146.556 50.7948 147.339 50.582 148.134 50.6047C148.928 50.6274 149.698 50.8846 150.347 51.3439C150.864 51.6998 151.005 52.0825 150.864 52.2638Z" fill="#263238"/>
<path d="M110.841 81.591C112.478 81.922 114.171 81.8589 115.779 81.4071C117.386 80.9553 118.864 80.1276 120.089 78.9924C121.314 77.8571 122.252 76.4469 122.824 74.8779C123.397 73.309 123.589 71.6264 123.383 69.9688C123.014 67.0482 121.443 64.0873 122.457 61.3211C123.799 57.6753 128.909 56.554 130.265 52.9083C131.051 50.7933 130.346 48.3158 131.239 46.2412C132.078 44.2941 134.132 43.1728 136.133 42.4477C138.134 41.7226 140.269 41.2257 141.948 39.9232C143.626 38.6206 144.667 36.1633 143.586 34.3303C134.718 35.3942 126.009 37.5107 117.643 40.6349C115.702 41.36 113.668 42.2328 112.52 43.9516C111.311 45.7779 111.372 48.1278 111.472 50.3166C111.969 60.9786 110.344 70.9625 110.841 81.6245" fill="#263238"/>
<path d="M108.015 78.2473C107.947 78.2372 107.881 78.2169 107.82 78.1869C107.628 78.1201 107.446 78.0299 107.276 77.9183C106.622 77.4952 106.108 76.8878 105.799 76.1727C105.291 75.0424 105.154 73.7799 105.41 72.5672C105.814 70.9916 106.548 69.5201 107.565 68.25C108.605 66.7998 109.928 65.3294 110.828 63.4562C111.308 62.5043 111.576 61.4598 111.613 60.3945C111.575 59.2638 111.348 58.1474 110.942 57.0912C110.489 55.9493 110.25 54.734 110.237 53.5058C110.302 52.1917 110.688 50.9135 111.361 49.7829C112.034 48.6523 112.973 47.7037 114.098 47.02C115.303 46.3621 116.641 45.9814 118.012 45.9055C119.339 45.8404 120.653 45.6149 121.926 45.2341C123.121 44.7815 124.104 43.8976 124.679 42.7565C125.227 41.634 125.664 40.46 125.982 39.2518C126.321 38.0926 126.771 36.9684 127.324 35.8947C128.334 33.8591 129.871 32.1317 131.776 30.8927C133.458 29.8354 135.425 29.3241 137.409 29.429C139.052 29.514 140.617 30.1557 141.847 31.2486C142.764 32.0728 143.447 33.1242 143.828 34.2968C144.075 35.0308 144.169 35.8078 144.103 36.5796C144.089 36.848 144.044 37.1139 143.969 37.3718C143.969 37.3718 144.016 37.0965 144.036 36.5728C144.068 35.813 143.954 35.054 143.7 34.337C143.238 33.0176 142.389 31.8677 141.265 31.0367C140.141 30.2058 138.793 29.7322 137.396 29.6775C135.467 29.5925 133.558 30.1035 131.93 31.1411C130.077 32.3591 128.584 34.0516 127.606 36.0424C127.064 37.1164 126.628 38.2408 126.304 39.3995C125.976 40.6296 125.526 41.8239 124.961 42.9647C124.65 43.555 124.244 44.0903 123.759 44.5492C123.258 45.0131 122.669 45.3715 122.027 45.6033C120.719 46.0065 119.366 46.2456 117.998 46.315C116.677 46.3847 115.387 46.7494 114.225 47.3826C113.15 48.0345 112.252 48.9394 111.607 50.0184C110.962 51.0974 110.591 52.3177 110.526 53.573C110.538 54.7633 110.765 55.9416 111.197 57.0509C111.624 58.1394 111.863 59.2929 111.902 60.4617C111.857 61.57 111.573 62.6556 111.07 63.6441C110.13 65.5644 108.793 67.0012 107.746 68.4582C106.735 69.6923 105.998 71.1273 105.584 72.6679C105.317 73.8402 105.427 75.0671 105.9 76.1727C106.19 76.8771 106.674 77.4848 107.296 77.9251C107.746 78.1533 108.021 78.2205 108.015 78.2473Z" fill="#455A64"/>
<path d="M142.518 26.4749C142.681 26.4869 142.84 26.5351 142.982 26.6158C143.385 26.7868 143.762 27.0128 144.103 27.2873C145.273 28.1949 146.048 29.5185 146.266 30.9828C146.485 32.4472 146.131 33.9395 145.278 35.1495C145.03 35.5101 144.737 35.8373 144.405 36.123C144.163 36.3245 144.016 36.4117 144.002 36.3916C144.381 35.9626 144.737 35.5144 145.07 35.0488C145.826 33.8689 146.13 32.4548 145.924 31.0685C145.717 29.6821 145.016 28.4174 143.948 27.5088C143.492 27.1369 143.015 26.7917 142.518 26.4749Z" fill="#455A64"/>
<path d="M168.824 107.964C168.966 107.551 169.08 107.13 169.167 106.702C169.324 105.53 169.12 104.337 168.583 103.284C167.754 101.738 166.437 100.51 164.836 99.7929C163.9 99.3499 162.921 99.0012 161.915 98.7522C160.868 98.4837 159.76 98.2621 158.652 97.8995C157.538 97.5957 156.51 97.0346 155.651 96.2613C154.882 95.4914 154.385 94.4921 154.235 93.4145C154.053 92.4141 153.993 91.4674 153.771 90.6214C153.573 89.8388 153.204 89.1097 152.69 88.4863C151.939 87.5732 150.942 86.8951 149.817 86.5325C149.018 86.2908 148.541 86.2908 148.541 86.2505C148.655 86.2392 148.77 86.2392 148.883 86.2505C149.212 86.2732 149.538 86.3249 149.857 86.405C151.035 86.7297 152.087 87.4011 152.878 88.3319C153.431 88.9755 153.833 89.735 154.053 90.5543C154.295 91.4338 154.369 92.394 154.557 93.3608C154.695 94.38 155.167 95.3245 155.9 96.0464C156.723 96.7774 157.704 97.3082 158.767 97.5974C159.848 97.9465 160.955 98.1748 162.009 98.4501C163.029 98.6994 164.019 99.055 164.964 99.5109C166.617 100.268 167.966 101.562 168.791 103.184C169.328 104.285 169.502 105.529 169.288 106.735C169.224 107.057 169.122 107.37 168.985 107.669C168.942 107.772 168.888 107.871 168.824 107.964Z" fill="#455A64"/>
<path d="M117.179 86.9354C111.137 85.324 105.967 79.4357 103.859 73.5743C101.75 67.7129 101.75 61.3143 102.294 55.1105C102.684 50.6188 103.476 45.8652 106.457 42.4813C110.955 37.3785 115.857 34.7735 122.624 34.9883" fill="#263238"/>
<path d="M152.294 100.028L146.688 98.6179C147.299 98.1978 147.745 97.5778 147.948 96.8646C148.151 96.1514 148.1 95.3897 147.802 94.7103C147.447 93.8396 146.86 93.083 146.105 92.523C145.35 91.963 144.455 91.6211 143.519 91.5346L117.965 88.6475C117.518 88.5879 117.064 88.6799 116.676 88.9088C116.288 89.1376 115.987 89.49 115.823 89.9097C114.691 92.7923 114.653 95.1647 115.709 97.0267H115.588L110.66 98.007L102.307 171.688L157.014 169.13L152.294 100.028Z" fill="#F5F5F5"/>
<path d="M144.251 98.8999C143.915 98.998 143.571 99.0654 143.223 99.1014C142.552 99.2088 141.592 99.3229 140.397 99.4438C134.142 100.025 127.837 99.7106 121.671 98.5105C120.489 98.2755 119.543 98.0607 118.891 97.8861C118.549 97.8198 118.214 97.7209 117.891 97.5907C118.238 97.6161 118.581 97.6723 118.918 97.7586C119.59 97.8861 120.536 98.0674 121.718 98.2688C127.877 99.3287 134.142 99.6398 140.377 99.1954C141.572 99.1148 142.539 99.0275 143.21 98.9604C143.555 98.913 143.903 98.8928 144.251 98.8999Z" fill="#263238"/>
<path d="M119.523 110.609C120.061 109.492 120.701 108.426 121.436 107.427C122.077 106.364 122.817 105.364 123.645 104.439C123.106 105.558 122.463 106.623 121.725 107.622C121.087 108.685 120.35 109.685 119.523 110.609Z" fill="#E0E0E0"/>
<path d="M137.154 111.858C135.447 110.106 133.912 108.195 132.568 106.151C133.462 106.988 134.276 107.908 134.998 108.897C135.811 109.812 136.533 110.804 137.154 111.858Z" fill="#E0E0E0"/>
<path d="M128.963 121.224C128.577 120.03 128.3 118.803 128.137 117.558C127.857 116.335 127.698 115.087 127.66 113.832C128.047 115.026 128.323 116.253 128.486 117.498C128.758 118.723 128.917 119.97 128.963 121.224Z" fill="#E0E0E0"/>
<path d="M142.424 121.802C141.477 122.981 140.44 124.085 139.323 125.105C138.285 126.21 137.163 127.231 135.965 128.16C136.913 126.981 137.95 125.877 139.067 124.857C140.109 123.757 141.231 122.735 142.424 121.802Z" fill="#E0E0E0"/>
<path d="M124.37 134.357C121.896 132.879 119.881 130.743 118.549 128.187C118.643 128.127 119.67 129.738 121.288 131.437C122.906 133.135 124.437 134.27 124.37 134.357Z" fill="#E0E0E0"/>
<path d="M130.171 144.052C130.171 144.153 128.64 144.643 126.868 145.59C125.095 146.537 123.799 147.53 123.732 147.443C124.577 146.538 125.587 145.802 126.707 145.274C127.772 144.647 128.948 144.232 130.171 144.052Z" fill="#E0E0E0"/>
<path d="M139.604 144.677C139.204 144.338 138.846 143.952 138.537 143.529C137.919 142.79 137.093 141.736 136.234 140.534C135.375 139.332 134.649 138.211 134.146 137.379C133.846 136.948 133.598 136.484 133.407 135.995C133.764 136.378 134.082 136.797 134.354 137.244L136.523 140.333L138.732 143.381C139.068 143.781 139.36 144.215 139.604 144.677Z" fill="#E0E0E0"/>
<path d="M140.551 152.949C139.246 153.406 137.895 153.721 136.523 153.889C135.165 154.172 133.78 154.309 132.393 154.298C133.735 153.961 135.096 153.71 136.469 153.546C137.817 153.266 139.18 153.067 140.551 152.949Z" fill="#E0E0E0"/>
<path d="M125.277 97.8593C125.23 97.8593 125.552 97.4565 125.827 96.7448C126.168 95.8135 126.27 94.8116 126.123 93.8308C125.956 92.8425 125.665 91.8792 125.256 90.9639C125.059 90.5892 124.905 90.1926 124.8 89.7822C125.08 90.1042 125.307 90.4692 125.471 90.8632C125.96 91.773 126.293 92.7578 126.458 93.7771C126.621 94.818 126.478 95.8836 126.049 96.8455C125.899 97.2531 125.63 97.6063 125.277 97.8593Z" fill="#E0E0E0"/>
<path d="M135.495 92.3403C135.974 92.9994 136.316 93.7476 136.502 94.5408C136.688 95.3341 136.713 96.1564 136.576 96.9596C136.476 96.9596 136.462 95.892 136.16 94.6231C135.858 93.3541 135.421 92.394 135.495 92.3403Z" fill="#E0E0E0"/>
<path d="M181.588 144.838L207.034 100.142L210.103 92.3873C210.103 92.3873 218.039 75.3334 218.589 73.5878C219.227 71.5735 220.348 71.4124 221.074 71.6944C222.201 72.1442 222.564 73.8228 222.067 75.5617C221.893 76.1593 218.811 85.5322 218.811 85.5322C219.64 84.8178 220.519 84.1648 221.443 83.5784C223.397 82.2355 226.975 82.3027 230.292 83.4844C233.609 84.6661 234.428 85.2905 234.032 86.593C233.944 86.8375 233.803 87.0592 233.618 87.2416C233.433 87.4241 233.21 87.5627 232.964 87.6471C232.183 87.9733 231.308 87.9925 230.514 87.7008C225.183 85.888 222.819 88.2917 222.819 88.2917L222.423 89.3055C222.423 89.3055 226.452 88.0231 228.707 89.8359C229.044 90.102 229.327 90.4302 229.54 90.8027C230.27 91.0412 230.925 91.4662 231.441 92.0356C231.956 92.605 232.314 93.2991 232.479 94.0492C232.643 94.7994 232.61 95.5795 232.38 96.3125C232.151 97.0455 231.734 97.706 231.172 98.2286C230.927 98.5075 230.603 98.7056 230.244 98.7967C229.884 98.8878 229.505 98.8676 229.157 98.7388C228.832 98.5171 228.57 98.2138 228.399 97.8593C228.289 97.6818 228.166 97.5134 228.029 97.3557L226.512 100.041C226.512 100.041 222.772 105.883 221.429 108.615L203.906 155.299C203.329 156.835 202.453 158.242 201.327 159.436C200.201 160.63 198.849 161.588 197.349 162.254C195.848 162.92 194.231 163.28 192.59 163.313C190.949 163.347 189.318 163.053 187.792 162.449C186.145 161.799 184.657 160.803 183.429 159.528C182.2 158.253 181.26 156.729 180.672 155.059C180.084 153.389 179.861 151.612 180.019 149.849C180.177 148.085 180.712 146.377 181.588 144.838Z" fill="#FFBE9D"/>
<path d="M208.787 99.9876C209.686 100.578 210.928 100.176 211.734 99.4773C212.54 98.7791 213.077 97.819 213.856 97.0603C216.119 94.7976 219.899 94.5828 222.067 92.2127C222.369 91.8837 222.638 91.3801 222.376 91.0176C222.114 90.655 221.631 90.7221 221.228 90.8027L210.814 92.8639" fill="#FFBE9D"/>
<path d="M210.814 92.864C211.165 92.705 211.535 92.5922 211.915 92.5283C212.634 92.347 213.681 92.112 214.97 91.8569L219.509 90.8967L220.852 90.6215C221.369 90.4321 221.94 90.4514 222.443 90.6752C222.587 90.7817 222.696 90.9287 222.755 91.0973C222.815 91.2659 222.823 91.4486 222.779 91.6219C222.71 91.9063 222.571 92.1692 222.376 92.3873C222.025 92.7756 221.631 93.1225 221.201 93.4212C219.469 94.6231 217.569 95.1132 216.051 95.9122C215.327 96.2543 214.661 96.7073 214.077 97.255C213.54 97.772 213.117 98.3628 212.674 98.8664C212.355 99.3106 211.943 99.6797 211.466 99.9476C210.989 100.216 210.46 100.376 209.915 100.417C209.116 100.417 208.787 100.021 208.813 100.015C209.163 100.134 209.532 100.191 209.901 100.182C210.396 100.1 210.869 99.9167 211.29 99.6428C211.71 99.3689 212.07 99.0108 212.345 98.5911C212.775 98.0043 213.235 97.4396 213.721 96.8992C214.33 96.2959 215.03 95.7929 215.796 95.4086C217.361 94.5626 219.254 94.0658 220.852 92.9244C221.237 92.651 221.592 92.3382 221.913 91.9911C222.208 91.6622 222.309 91.266 222.101 91.1519C221.893 91.0377 221.429 91.0915 220.966 91.1855L219.623 91.4339L215.058 92.2731C213.755 92.5014 212.701 92.676 211.969 92.7834C211.591 92.8706 211.201 92.8978 210.814 92.864Z" fill="#EB996E"/>
<path d="M222.282 89.3189C222.549 88.6956 222.958 88.1437 223.477 87.7075C224.058 87.2717 224.765 87.0361 225.491 87.0361C226.404 87.0416 227.311 87.1911 228.177 87.4792C229.062 87.7779 229.976 87.9849 230.903 88.0969C231.681 88.1863 232.47 88.0658 233.186 87.7478C233.432 87.6342 233.648 87.4645 233.818 87.2523C233.987 87.0401 234.104 86.7913 234.159 86.5258C234.21 86.339 234.21 86.142 234.159 85.9551C234.119 85.9551 234.119 86.1566 234.018 86.4923C233.945 86.7185 233.822 86.9259 233.66 87.0999C233.497 87.2739 233.299 87.4102 233.078 87.4994C232.395 87.7534 231.66 87.8364 230.937 87.7411C230.036 87.5994 229.15 87.3746 228.291 87.0697C227.395 86.7745 226.455 86.6293 225.512 86.64C224.719 86.6585 223.955 86.9422 223.343 87.4457C222.937 87.7838 222.625 88.2208 222.436 88.7146C222.269 89.1108 222.255 89.3122 222.282 89.3189Z" fill="#EB996E"/>
<path d="M222.248 74.8903C221.985 75.491 221.774 76.1132 221.617 76.7501C221.221 78.0392 220.751 79.5701 220.227 81.262C219.704 82.954 219.187 84.4714 218.771 85.7537C218.528 86.362 218.341 86.9913 218.213 87.6337C218.547 87.0681 218.821 86.4696 219.032 85.8477C219.476 84.7198 220.039 83.1621 220.603 81.3829C221.167 79.6036 221.604 78.0258 221.886 76.824C222.074 76.194 222.196 75.5458 222.248 74.8903Z" fill="#EB996E"/>
<path d="M223.719 92.1254C223.924 92.1549 224.132 92.1549 224.337 92.1254C224.594 92.0814 224.858 92.0934 225.111 92.1606C225.363 92.2278 225.599 92.3486 225.8 92.5148C225.917 92.6381 226 92.7893 226.041 92.954C226.082 93.1186 226.08 93.2911 226.035 93.4548C225.927 93.8672 225.767 94.2642 225.559 94.6365C225.29 95.1035 225.201 95.6529 225.31 96.1807C225.402 96.4604 225.558 96.7147 225.765 96.9234C225.973 97.1321 226.226 97.2893 226.505 97.3825C226.781 97.4699 227.071 97.5 227.358 97.4712C227.646 97.4423 227.924 97.355 228.177 97.2147C228.647 96.9746 229.033 96.5977 229.285 96.1337C229.648 95.3686 229.897 94.5542 230.023 93.7166C230.121 93.1546 230.121 92.58 230.023 92.018C230.002 91.8069 229.921 91.6064 229.788 91.4406C229.755 91.4406 229.842 91.6554 229.876 92.0381C229.904 92.5859 229.857 93.1349 229.735 93.6696C229.575 94.4634 229.314 95.233 228.956 95.9592C228.737 96.368 228.39 96.693 227.967 96.8837C227.544 97.0743 227.071 97.1199 226.619 97.0133C226.398 96.9418 226.197 96.8196 226.031 96.6564C225.866 96.4931 225.741 96.2935 225.666 96.0733C225.578 95.6347 225.652 95.1792 225.874 94.7909C226.083 94.3844 226.241 93.9537 226.344 93.5085C226.389 93.2954 226.379 93.0742 226.314 92.8662C226.25 92.6582 226.133 92.4702 225.975 92.3201C225.741 92.1354 225.468 92.0076 225.177 91.947C224.885 91.8864 224.584 91.8946 224.296 91.971C224.097 91.9909 223.902 92.043 223.719 92.1254Z" fill="#EB996E"/>
<path d="M228.11 96.8253C228.11 96.8253 227.982 96.9999 227.996 97.3758C228.015 97.6396 228.095 97.8954 228.23 98.1227C228.365 98.35 228.552 98.5426 228.775 98.6851C229.119 98.883 229.509 98.9872 229.906 98.9872C230.303 98.9872 230.693 98.883 231.037 98.6851C231.865 98.2076 232.477 97.428 232.743 96.5097C233.035 95.6108 233.035 94.6424 232.743 93.7435C232.504 93.017 232.075 92.3677 231.501 91.8636C231.122 91.5245 230.682 91.2602 230.205 91.0847C230.035 91.0033 229.849 90.962 229.661 90.9639C230.259 91.2536 230.815 91.6241 231.313 92.065C231.876 92.6145 232.274 93.3109 232.461 94.0752C232.649 94.8395 232.618 95.641 232.373 96.3889C232.133 97.2138 231.595 97.9199 230.863 98.3695C230.57 98.5412 230.239 98.6362 229.899 98.6456C229.56 98.6549 229.224 98.5785 228.922 98.4232C228.722 98.3066 228.549 98.1486 228.415 97.9599C228.281 97.7712 228.188 97.5561 228.143 97.3288C228.076 97.0334 228.143 96.8253 228.11 96.8253Z" fill="#EB996E"/>
<path d="M219.637 101.042C219.371 100.862 219.058 100.766 218.737 100.767C217.918 100.687 217.095 100.883 216.4 101.324L216.689 101.518C216.78 101.075 216.843 100.627 216.877 100.176C217.112 97.584 216.286 95.5832 216.206 95.6369C216.464 97.1239 216.561 98.6344 216.494 100.142C216.462 100.572 216.406 101 216.327 101.424L216.246 101.861L216.615 101.612C217.244 101.202 217.979 100.983 218.73 100.981C219.288 100.995 219.623 101.089 219.637 101.042Z" fill="#EB996E"/>
<path d="M224.934 85.1159C224.827 85.1159 224.974 85.9216 225.686 86.5393C226.398 87.157 227.197 87.2107 227.197 87.0965C227.197 86.9824 226.559 86.7877 225.948 86.2438C225.337 85.7 225.041 85.0756 224.934 85.1159Z" fill="#EB996E"/>
<path d="M145.493 181.927L172.114 182.189L167.649 162.872L169.147 166.518C170.527 169.884 172.877 172.763 175.898 174.79C178.919 176.816 182.475 177.898 186.113 177.898C194.533 177.898 200.354 171.634 203.912 164.007C212.238 146.174 220.261 117.458 220.261 117.458L204.033 103.197C192.283 125.421 181.245 144.717 181.245 144.717C181.245 144.717 178.056 135.029 175.592 126.381C173.128 117.733 173.148 113.194 169.368 108.884C163.547 102.25 155.268 100.605 147.561 98.618L147.272 134.498L145.493 181.927Z" fill="#BE2696"/>
<path d="M115.031 155.238L163.507 164.638L165.863 183.263H91.5381C89.5035 183.288 87.4861 182.888 85.6146 182.09C83.7431 181.292 82.0586 180.112 80.6687 178.626C79.2788 177.14 78.2139 175.38 77.5421 173.46C76.8703 171.539 76.6063 169.5 76.767 167.471C77.8346 153.895 78.9961 137.177 79.8824 130.107C80.5538 124.595 82.7694 118.895 85.3678 113.993C89.121 106.93 101.629 97.8794 112.594 97.4094L114.668 143.582" fill="#BE2696"/>
<g opacity="0.4">
<path opacity="0.4" d="M145.493 181.927L172.114 182.189L167.649 162.872L169.147 166.518C170.527 169.884 172.877 172.763 175.898 174.79C178.919 176.816 182.475 177.898 186.113 177.898C194.533 177.898 200.354 171.634 203.912 164.007C212.238 146.174 220.261 117.458 220.261 117.458L204.033 103.197C192.283 125.421 181.245 144.717 181.245 144.717C181.245 144.717 178.056 135.029 175.592 126.381C173.128 117.733 173.148 113.194 169.368 108.884C163.547 102.25 155.269 100.605 147.561 98.618L147.272 134.498L145.493 181.927Z" fill="black"/>
<path opacity="0.4" d="M115.031 155.238L158.753 163.255C159.644 163.42 160.466 163.845 161.115 164.477C161.764 165.11 162.211 165.92 162.399 166.807L165.863 183.303H91.5381C89.5035 183.328 87.4861 182.929 85.6146 182.13C83.7431 181.332 82.0586 180.152 80.6687 178.666C79.2788 177.18 78.2139 175.421 77.5421 173.5C76.8703 171.579 76.6063 169.54 76.767 167.511C77.8346 153.936 78.9961 137.217 79.8824 130.147C80.5538 124.635 82.7694 118.935 85.3678 114.034C89.121 106.97 101.629 97.9197 112.594 97.4497L114.668 143.623" fill="#362A89"/>
</g>
<path d="M105.799 153.855C105.782 153.708 105.782 153.559 105.799 153.412C105.799 153.083 105.799 152.66 105.799 152.143C105.799 150.995 105.799 149.41 105.799 147.443C105.799 143.502 105.725 138.043 105.423 132.047C105.269 129.04 105.074 126.179 104.866 123.588C104.768 121.287 104.442 119.002 103.892 116.766C103.508 115.274 102.777 113.893 101.757 112.738C101.362 112.334 100.945 111.953 100.508 111.596C101.021 111.86 101.486 112.207 101.885 112.624C102.972 113.771 103.754 115.172 104.161 116.699C104.747 118.953 105.098 121.261 105.208 123.588C105.436 126.186 105.638 129.046 105.792 132.054C106.101 138.097 106.135 143.529 106.068 147.497C106.027 149.471 105.974 151.069 105.927 152.197L105.853 153.466C105.85 153.597 105.832 153.728 105.799 153.855Z" fill="#263238"/>
<path d="M162.567 165.981C162.055 165.416 161.46 164.933 160.801 164.551C160.018 164.124 159.186 163.792 158.323 163.564C157.323 163.275 156.148 163.053 154.852 162.791C149.669 161.731 142.518 160.26 134.596 158.763C126.673 157.266 119.462 156.077 114.245 155.245L108.062 154.258L106.383 153.976C106.185 153.952 105.99 153.911 105.799 153.855C105.997 153.856 106.195 153.874 106.39 153.909L108.082 154.124C109.545 154.318 111.667 154.614 114.279 155.003C119.509 155.782 126.727 156.937 134.656 158.421C142.586 159.904 149.736 161.408 154.899 162.523C156.195 162.805 157.37 163.047 158.377 163.355C159.249 163.602 160.086 163.959 160.868 164.416C161.37 164.7 161.824 165.063 162.211 165.491C162.314 165.597 162.409 165.711 162.493 165.833C162.54 165.914 162.573 165.981 162.567 165.981Z" fill="#263238"/>
<path d="M105.947 153.855C105.947 153.915 105.054 154.124 103.671 154.688C102.863 155.021 102.078 155.407 101.321 155.842C100.405 156.388 99.5315 157.003 98.7088 157.682C97.9088 158.375 97.1635 159.13 96.4797 159.938C95.9171 160.604 95.4011 161.309 94.9355 162.046C94.1432 163.315 93.7806 164.175 93.7202 164.148C93.762 163.931 93.8319 163.721 93.9284 163.523C94.1571 162.972 94.4217 162.436 94.7206 161.919C95.1689 161.152 95.6739 160.421 96.2313 159.73C97.6096 158.039 99.2954 156.624 101.2 155.56C101.971 155.125 102.777 154.754 103.61 154.453C104.17 154.244 104.745 154.075 105.329 153.949C105.529 153.889 105.737 153.857 105.947 153.855Z" fill="#263238"/>
<path d="M168.542 165.457C168.496 165.306 168.462 165.151 168.442 164.994C168.388 164.658 168.314 164.215 168.227 163.651C168.039 162.489 167.79 160.811 167.508 158.729C166.944 154.573 166.26 148.813 165.682 142.434C165.105 136.056 164.762 130.268 164.574 126.072C164.48 123.977 164.427 122.278 164.4 121.104C164.4 120.544 164.4 120.096 164.4 119.761C164.385 119.604 164.385 119.447 164.4 119.291C164.436 119.445 164.454 119.602 164.453 119.761L164.541 121.104C164.615 122.312 164.709 123.997 164.829 126.059C165.078 130.248 165.467 136.029 166.038 142.401C166.609 148.772 167.26 154.533 167.763 158.696C168.012 160.75 168.22 162.422 168.368 163.631C168.428 164.188 168.482 164.631 168.522 164.974C168.549 165.133 168.556 165.296 168.542 165.457Z" fill="#263238"/>
<path d="M184.616 158.239C184.616 158.239 184.461 158.092 184.226 157.796C183.901 157.368 183.603 156.919 183.333 156.453C181.532 153.378 180.701 149.83 180.95 146.275C180.984 145.74 181.056 145.208 181.165 144.683C181.189 144.488 181.238 144.296 181.313 144.113C181.373 144.113 181.245 144.945 181.198 146.288C181.086 149.793 181.897 153.266 183.548 156.359C184.179 157.521 184.67 158.199 184.616 158.239Z" fill="#263238"/>
<path d="M105.604 128.905C105.604 128.905 105.517 128.939 105.356 128.959C105.113 128.998 104.869 129.023 104.624 129.033C103.723 129.071 102.821 128.999 101.938 128.818C100.627 128.554 99.3461 128.154 98.1179 127.623C96.7281 127.046 95.251 126.28 93.7067 125.535C92.2611 124.809 90.7644 124.189 89.2284 123.682C87.982 123.263 86.6866 123.008 85.3745 122.923C84.1592 122.883 82.9446 123.021 81.769 123.333C81.8412 123.285 81.9205 123.248 82.004 123.225C82.2216 123.13 82.446 123.051 82.6755 122.99C83.5506 122.756 84.4556 122.652 85.3611 122.681C86.7016 122.723 88.03 122.949 89.309 123.353C90.8648 123.853 92.378 124.477 93.8343 125.219C95.3853 125.985 96.8489 126.737 98.2186 127.321C99.4244 127.857 100.679 128.275 101.965 128.57C103.162 128.814 104.382 128.927 105.604 128.905Z" fill="#FAFAFA"/>
<path d="M113.936 127.274C112.647 127.666 111.326 127.949 109.989 128.12C108.664 128.408 107.315 128.577 105.96 128.623C107.25 128.231 108.571 127.948 109.908 127.777C111.233 127.488 112.581 127.32 113.936 127.274Z" fill="#FAFAFA"/>
<path d="M105.302 141.682C104.993 141.857 104.667 141.998 104.328 142.105C103.691 142.354 102.757 142.689 101.596 143.065C98.5584 144.04 95.4583 144.807 92.3169 145.362C90.4772 145.684 88.7114 145.919 87.1 146.08C85.6708 146.265 84.2265 146.303 82.7896 146.194C81.8148 146.115 80.8654 145.844 79.9965 145.395C79.7602 145.272 79.5355 145.129 79.3251 144.966C79.2476 144.912 79.1776 144.849 79.1169 144.778C79.1169 144.778 79.4392 144.986 80.0502 145.274C80.9205 145.667 81.8562 145.895 82.8097 145.946C84.2291 146.019 85.6523 145.956 87.0597 145.758C88.6644 145.577 90.4168 145.335 92.2497 145.013C95.3764 144.458 98.4697 143.73 101.515 142.83C102.683 142.481 103.623 142.159 104.275 141.978C104.609 141.854 104.953 141.755 105.302 141.682Z" fill="#FAFAFA"/>
<path d="M113.715 145.221C112.505 145.413 111.28 145.491 110.056 145.456C108.835 145.533 107.61 145.494 106.396 145.341C107.606 145.149 108.831 145.071 110.056 145.106C111.276 145.03 112.501 145.068 113.715 145.221Z" fill="#FAFAFA"/>
<path d="M79.1641 175.81C79.1718 175.686 79.1967 175.564 79.2379 175.448C79.3051 175.179 79.3991 174.85 79.5065 174.44L79.7079 173.715C79.7952 173.453 79.9093 173.178 80.0167 172.876C80.2582 172.19 80.5361 171.518 80.8493 170.862L81.3931 169.714C81.5879 169.311 81.8363 168.921 82.0646 168.505C82.5709 167.625 83.1222 166.771 83.7162 165.947C86.4592 162.155 90.0355 159.043 94.1701 156.849C95.0693 156.374 95.9926 155.946 96.9363 155.567C97.3862 155.399 97.8024 155.205 98.2254 155.07L99.4407 154.688C100.137 154.466 100.845 154.284 101.562 154.144C101.878 154.077 102.167 154.003 102.435 153.956L103.187 153.855L104.221 153.727C104.341 153.71 104.463 153.71 104.584 153.727C104.469 153.771 104.35 153.801 104.228 153.815L103.207 154.009L102.469 154.137L101.603 154.352C100.985 154.52 100.26 154.661 99.5145 154.943L98.3194 155.346C97.9032 155.487 97.4869 155.681 97.0505 155.856C96.1206 156.242 95.2108 156.674 94.3245 157.152C92.3055 158.268 90.4047 159.587 88.6511 161.086C86.919 162.615 85.3445 164.313 83.9512 166.155C83.3469 167.028 82.7494 167.847 82.2928 168.673C82.0578 169.083 81.8094 169.465 81.6214 169.861L81.0574 170.989C80.6747 171.701 80.4397 172.386 80.1846 173.004C80.0705 173.299 79.9496 173.574 79.8556 173.829L79.6206 174.541L79.2916 175.528C79.2595 175.627 79.2167 175.721 79.1641 175.81Z" fill="#FAFAFA"/>
<path d="M112.835 155.184C111.712 156.16 110.779 157.334 110.082 158.649C109.35 160.086 108.83 161.621 108.538 163.208C108.191 165.159 107.967 167.13 107.867 169.109C107.783 171.103 107.559 173.089 107.195 175.051C106.866 176.66 106.298 178.21 105.51 179.651C104.984 180.616 104.303 181.489 103.496 182.236C103.276 182.44 103.04 182.626 102.791 182.793C102.623 182.907 102.529 182.967 102.522 182.954C103.666 182 104.618 180.838 105.329 179.53C106.073 178.101 106.606 176.572 106.913 174.991C107.271 173.041 107.495 171.069 107.585 169.089C107.672 167.093 107.896 165.106 108.256 163.141C108.569 161.532 109.121 159.979 109.894 158.535C110.422 157.56 111.102 156.676 111.909 155.916C112.12 155.714 112.344 155.525 112.58 155.352C112.658 155.286 112.743 155.229 112.835 155.184Z" fill="#FAFAFA"/>
<path d="M124.296 183.377C124.202 183.377 124.296 177.589 124.545 170.459C124.793 163.329 125.048 157.548 125.142 157.548C125.236 157.548 125.142 163.335 124.894 170.472C124.645 177.609 124.39 183.384 124.296 183.377Z" fill="#FAFAFA"/>
<path d="M142.518 182.383C142.392 182.114 142.293 181.833 142.223 181.544C142.114 181.213 142.022 180.877 141.948 180.537C141.86 180.141 141.74 179.691 141.666 179.194C141.457 178.01 141.338 176.811 141.31 175.609C141.244 172.654 141.698 169.711 142.653 166.914C143.042 165.775 143.515 164.666 144.069 163.597C144.291 163.134 144.539 162.744 144.741 162.395C144.911 162.091 145.1 161.798 145.305 161.516C145.454 161.26 145.632 161.021 145.835 160.804C145.896 160.838 145.164 161.878 144.284 163.711C143.762 164.781 143.314 165.884 142.941 167.015C142.022 169.783 141.568 172.685 141.599 175.602C141.614 176.791 141.706 177.977 141.874 179.154C142.21 181.155 142.586 182.363 142.518 182.383Z" fill="#FAFAFA"/>
<path d="M111.573 108.179C111.573 108.233 110.512 107.769 108.767 107.205C104.22 105.738 99.4011 105.311 94.667 105.957C92.8542 106.205 91.7463 106.487 91.7329 106.427C91.9736 106.31 92.2288 106.227 92.4916 106.178C93.1941 105.984 93.9069 105.829 94.6267 105.715C99.3967 104.922 104.29 105.354 108.847 106.97C109.532 107.212 110.204 107.487 110.861 107.796C111.114 107.894 111.353 108.023 111.573 108.179Z" fill="#FAFAFA"/>
<path d="M164.615 136.439C163.784 136.482 162.952 136.468 162.124 136.398C160.586 136.338 158.464 136.257 156.121 136.204C153.778 136.15 151.656 136.116 150.119 136.103C149.287 136.129 148.455 136.1 147.628 136.016C147.848 135.964 148.073 135.937 148.299 135.935C148.729 135.935 149.353 135.875 150.125 135.854C151.663 135.807 153.785 135.794 156.135 135.854C158.485 135.915 160.606 136.036 162.177 136.163C162.943 136.224 163.56 136.277 163.99 136.331C164.201 136.345 164.411 136.381 164.615 136.439Z" fill="#FAFAFA"/>
<path d="M177.868 133.894C177.868 133.954 177.029 134.243 175.72 134.888C172.295 136.572 169.393 139.158 167.327 142.367C166.535 143.596 166.152 144.415 166.098 144.381C166.136 144.169 166.208 143.965 166.313 143.777C166.548 143.243 166.817 142.725 167.119 142.226C168.104 140.566 169.34 139.069 170.785 137.788C172.225 136.504 173.853 135.446 175.612 134.653C176.143 134.414 176.688 134.207 177.244 134.035C177.445 133.961 177.655 133.913 177.868 133.894Z" fill="#FAFAFA"/>
<path d="M171.329 112.375C170.173 112.336 169.019 112.497 167.918 112.852C166.73 113.267 165.578 113.779 164.474 114.383C163.111 115.138 161.687 115.778 160.217 116.296C157.5 117.167 154.61 117.353 151.804 116.84C150.961 116.687 150.132 116.462 149.327 116.169C149.025 116.074 148.735 115.948 148.46 115.793C148.46 115.726 149.723 116.256 151.817 116.598C154.585 117.03 157.414 116.812 160.083 115.961C161.536 115.446 162.947 114.822 164.306 114.094C165.43 113.497 166.605 113.003 167.817 112.617C168.642 112.355 169.504 112.23 170.369 112.248C170.594 112.254 170.818 112.277 171.04 112.315C171.248 112.342 171.335 112.362 171.329 112.375Z" fill="#FAFAFA"/>
<path d="M167.978 157.373C167.735 157.528 167.473 157.652 167.199 157.742C166.944 157.85 166.629 157.977 166.253 158.098C165.877 158.219 165.454 158.38 164.977 158.501C163.853 158.814 162.709 159.052 161.553 159.213C160.137 159.396 158.71 159.47 157.283 159.434C155.856 159.381 154.436 159.222 153.033 158.958C151.894 158.728 150.772 158.42 149.676 158.038C149.199 157.89 148.789 157.709 148.427 157.561C148.064 157.413 147.755 157.272 147.5 157.152C147.233 157.041 146.979 156.901 146.742 156.735C146.742 156.675 147.876 157.212 149.756 157.803C150.857 158.149 151.978 158.427 153.113 158.635C155.89 159.15 158.73 159.236 161.533 158.891C162.677 158.75 163.812 158.539 164.93 158.259C166.823 157.776 167.958 157.313 167.978 157.373Z" fill="#FAFAFA"/>
<path d="M183.407 177.247C183.312 177.186 183.224 177.114 183.145 177.032C182.991 176.878 182.736 176.67 182.474 176.361C181.663 175.493 180.952 174.539 180.352 173.514C178.415 170.081 177.384 166.21 177.358 162.268C177.362 158.353 177.875 154.455 178.882 150.672C179.245 149.222 179.553 148.054 179.802 147.255C179.916 146.886 180.01 146.584 180.084 146.335C180.158 146.087 180.191 146.013 180.205 146.02C180.203 146.131 180.185 146.242 180.151 146.349C180.097 146.604 180.023 146.913 179.936 147.289C179.735 148.155 179.459 149.303 179.124 150.733C178.197 154.503 177.726 158.372 177.72 162.254C177.742 166.133 178.712 169.948 180.547 173.366C181.122 174.39 181.797 175.355 182.561 176.247C183.092 176.891 183.427 177.22 183.407 177.247Z" fill="#FAFAFA"/>
<path d="M207.84 154.446C206.767 153.595 205.569 152.915 204.288 152.432C202.887 151.947 201.451 151.572 199.991 151.31C198.179 151.005 196.385 150.594 194.62 150.082C191.432 149.045 188.523 147.295 186.113 144.966C185.386 144.263 184.713 143.506 184.099 142.703C183.877 142.421 183.73 142.186 183.622 142.031C183.515 141.877 183.468 141.79 183.481 141.783C183.741 142.044 183.983 142.323 184.206 142.616C184.851 143.382 185.544 144.107 186.281 144.784C188.701 147.03 191.581 148.723 194.721 149.746C196.468 150.256 198.24 150.672 200.032 150.995C201.503 151.277 202.949 151.679 204.355 152.197C205.305 152.556 206.197 153.053 207.001 153.674C207.22 153.839 207.427 154.021 207.618 154.218C207.786 154.365 207.853 154.439 207.84 154.446Z" fill="#FAFAFA"/>
<path d="M215.521 132.041C215.262 131.856 215.022 131.647 214.803 131.416C214.581 131.208 214.312 130.953 213.977 130.671C213.641 130.389 213.305 130.053 212.849 129.731C211.857 128.931 210.816 128.193 209.733 127.522C207.077 125.879 204.189 124.643 201.166 123.856C199.931 123.538 198.677 123.294 197.413 123.124C196.876 123.037 196.386 123.004 195.956 122.963C195.526 122.923 195.15 122.889 194.848 122.876C194.531 122.875 194.214 122.845 193.901 122.789C194.215 122.74 194.532 122.725 194.848 122.742C195.222 122.723 195.596 122.723 195.969 122.742C196.399 122.742 196.903 122.775 197.447 122.849C198.724 122.989 199.992 123.213 201.24 123.521C202.769 123.913 204.268 124.415 205.725 125.025C207.17 125.654 208.566 126.39 209.901 127.227C210.987 127.92 212.026 128.685 213.01 129.516C213.44 129.859 213.789 130.188 214.111 130.51C214.386 130.76 214.649 131.025 214.897 131.302C215.131 131.525 215.34 131.773 215.521 132.041Z" fill="#FAFAFA"/>
<path d="M156.772 101.223C156.378 101.486 155.949 101.692 155.497 101.834C154.438 102.249 153.349 102.586 152.24 102.841C151.136 103.101 150.014 103.281 148.883 103.378C148.416 103.449 147.941 103.449 147.473 103.378C147.473 103.271 149.602 103.096 152.173 102.485C154.745 101.874 156.732 101.122 156.772 101.223Z" fill="#FAFAFA"/>
<path d="M180.587 195.785C180.675 196.084 180.685 196.401 180.619 196.706C180.552 197.01 180.41 197.294 180.206 197.529C180.001 197.765 179.741 197.946 179.449 198.055C179.157 198.164 178.842 198.199 178.533 198.155C178.175 198.104 177.839 197.95 177.567 197.711C177.295 197.473 177.099 197.16 177.002 196.812L176.431 194.704H176.519C176.577 195.008 176.562 195.322 176.475 195.619C176.388 195.917 176.231 196.189 176.018 196.414C175.805 196.639 175.541 196.81 175.249 196.913C174.956 197.016 174.644 197.048 174.337 197.007C173.457 197.007 172.698 195.724 172.443 195.046C171.779 195.111 171.11 194.992 170.509 194.703C169.908 194.414 169.397 193.966 169.032 193.408L165.091 187.258L157.793 181.92L162.211 166.149L177.915 176.314C178.533 176.797 178.627 176.985 179.607 177.905L189.745 187.231C188.597 187.902 187.624 187.869 186.026 187.231C184.428 186.593 177.432 181.86 177.432 181.86L180.587 195.724" fill="#FFBE9D"/>
<path d="M167.152 182.813C167.152 182.813 167.334 182.894 167.616 183.088L168.139 183.451C168.388 183.607 168.614 183.797 168.811 184.015C169.043 184.282 169.225 184.589 169.348 184.921C169.469 185.277 169.596 185.64 169.731 186.022L170.59 188.547C171.188 190.346 171.711 191.971 172.074 193.159C172.303 193.79 172.476 194.439 172.591 195.1C172.286 194.501 172.034 193.876 171.839 193.233C171.416 192.065 170.852 190.454 170.254 188.661C169.966 187.768 169.684 186.915 169.422 186.13C169.301 185.74 169.187 185.371 169.073 185.022C168.972 184.714 168.82 184.426 168.623 184.169C168.453 183.96 168.259 183.77 168.045 183.605L167.562 183.196C167.273 182.967 167.139 182.833 167.152 182.813Z" fill="#EB996E"/>
<path d="M176.599 195.066C176.499 194.852 176.425 194.627 176.378 194.395L175.874 192.595C175.444 191.078 174.874 188.977 174.142 186.687C173.41 184.398 172.645 182.356 171.725 181.094C171.382 180.59 170.947 180.155 170.442 179.812C170.073 179.583 169.838 179.516 169.845 179.476C169.907 179.475 169.969 179.486 170.026 179.51C170.193 179.552 170.355 179.613 170.51 179.691C171.067 180.002 171.55 180.43 171.926 180.946C172.927 182.222 173.732 184.304 174.471 186.58C175.209 188.856 175.747 190.997 176.109 192.535C176.29 193.3 176.425 193.925 176.512 194.361C176.576 194.591 176.606 194.828 176.599 195.066Z" fill="#EB996E"/>
<path d="M180.655 196.02C180.533 195.797 180.441 195.56 180.379 195.315C180.211 194.777 180.003 194.126 179.755 193.354C179.245 191.696 178.566 189.399 177.835 186.862C177.103 184.324 176.492 182.094 175.988 180.349C175.815 179.702 175.438 179.128 174.914 178.711C174.701 178.574 174.477 178.457 174.243 178.361C174.309 178.345 174.378 178.345 174.444 178.361C174.632 178.404 174.812 178.479 174.974 178.583C175.561 178.986 175.994 179.575 176.203 180.255C176.754 181.913 177.405 184.209 178.15 186.747C178.895 189.285 179.527 191.602 179.976 193.273C180.178 194.052 180.352 194.717 180.487 195.288C180.568 195.525 180.624 195.77 180.655 196.02Z" fill="#EB996E"/>
<path d="M276.062 50.424C276.062 50.8888 276.2 51.3432 276.458 51.7296C276.716 52.116 277.083 52.4172 277.513 52.5951C277.942 52.773 278.415 52.8195 278.871 52.7288C279.326 52.6382 279.745 52.4143 280.074 52.0857C280.402 51.757 280.626 51.3383 280.717 50.8825C280.808 50.4266 280.761 49.9542 280.583 49.5248C280.405 49.0954 280.104 48.7283 279.718 48.4701C279.331 48.2119 278.877 48.0741 278.412 48.0741C277.789 48.0741 277.191 48.3217 276.75 48.7624C276.31 49.2031 276.062 49.8008 276.062 50.424Z" fill="#455A64"/>
<path d="M269.006 52.774C270.303 52.774 271.356 51.7219 271.356 50.424C271.356 49.1262 270.303 48.0741 269.006 48.0741C267.708 48.0741 266.656 49.1262 266.656 50.424C266.656 51.7219 267.708 52.774 269.006 52.774Z" fill="#455A64"/>
<path d="M257.276 49.249C257.043 49.6515 256.935 50.1139 256.966 50.5777C256.996 51.0416 257.163 51.486 257.446 51.8549C257.729 52.2237 258.115 52.5004 258.555 52.6499C258.995 52.7994 259.469 52.8151 259.918 52.6948C260.367 52.5746 260.771 52.3239 261.077 51.9744C261.384 51.625 261.58 51.1925 261.64 50.7316C261.701 50.2708 261.624 49.8023 261.418 49.3854C261.213 48.9685 260.888 48.622 260.485 48.3896C260.218 48.2345 259.923 48.1337 259.617 48.0929C259.311 48.0522 259 48.0723 258.702 48.1522C258.404 48.2321 258.124 48.3701 257.88 48.5583C257.635 48.7465 257.43 48.9813 257.276 49.249Z" fill="#455A64"/>
<path d="M268.858 22.97C268.701 22.9583 268.544 22.9583 268.388 22.97L266.991 23.0103C266.683 23.0103 266.32 23.0103 265.957 23.0573L264.729 23.2319L263.292 23.44L261.681 23.8361C258.92 24.5214 256.291 25.6555 253.899 27.1932C250.36 29.4463 247.384 32.4784 245.196 36.0578C243.008 39.6371 241.668 43.6691 241.276 47.8458C241.171 49.0985 241.146 50.3566 241.202 51.6124C241.249 52.2436 241.236 52.8948 241.33 53.5327C241.424 54.1705 241.525 54.8218 241.619 55.473C242.111 58.1414 242.993 60.7227 244.237 63.1338C245.562 65.6601 247.247 67.9805 249.239 70.0225C251.362 72.1095 253.794 73.8556 256.45 75.1991C259.199 76.6054 262.174 77.5146 265.239 77.8847C266.015 78.0004 266.798 78.0655 267.582 78.0795C268.371 78.1389 269.162 78.1546 269.952 78.1265C271.546 78.0606 273.132 77.8607 274.692 77.5289C278.061 76.7991 281.264 75.4489 284.139 73.5474L283.857 73.581L293.479 77.4416L294.049 77.6699L293.888 77.0791L291.055 66.793L291.008 67.0415C293.619 63.5829 295.379 59.5575 296.144 55.2918C296.512 53.3 296.639 51.2711 296.52 49.2491C296.497 48.2791 296.405 47.3121 296.245 46.3553C296.173 45.8808 296.099 45.4108 296.023 44.9453C295.943 44.482 295.802 44.0322 295.688 43.6025C294.076 37.2769 290.268 31.73 284.945 27.9519C282.98 26.5456 280.832 25.416 278.56 24.5948L277.116 24.0779L275.773 23.7287L274.525 23.4199C274.122 23.346 273.732 23.3057 273.37 23.2453C272.645 23.158 272.027 23.0305 271.443 23.0036L270.033 22.9566H269.167C269.068 22.9494 268.97 22.9494 268.871 22.9566C268.967 22.987 269.067 23.0006 269.167 22.9969L270.026 23.0707L271.429 23.1647C271.987 23.205 272.618 23.346 273.343 23.4534C278.566 24.3609 283.413 26.7649 287.296 30.3738C291.179 33.9827 293.931 38.6412 295.218 43.7838C295.318 44.2269 295.459 44.67 295.54 45.1266C295.62 45.5832 295.674 46.0397 295.748 46.5097C295.902 47.449 295.987 48.3981 296.003 49.3498C296.109 51.3255 295.978 53.3068 295.614 55.2515C294.834 59.4237 293.089 63.3556 290.518 66.7326L290.43 66.8468L290.471 66.9877C291.366 70.309 292.301 73.7399 293.277 77.2805L293.687 76.9179L284.065 73.0439L283.918 72.9835L283.777 73.0707C279.65 75.8047 274.852 77.3516 269.905 77.5423C269.133 77.5693 268.36 77.5559 267.589 77.502C266.822 77.4881 266.057 77.423 265.299 77.3073C262.303 76.9447 259.393 76.056 256.705 74.6821C254.107 73.3673 251.725 71.6623 249.642 69.6264C247.689 67.6367 246.034 65.3753 244.727 62.9123C243.515 60.5458 242.656 58.0146 242.176 55.3992C242.075 54.7278 241.975 54.1302 241.881 53.4991C241.787 52.868 241.8 52.2368 241.753 51.6124C241.69 50.3817 241.708 49.1481 241.807 47.9197C242.173 43.8085 243.47 39.8346 245.6 36.2993C247.73 32.7641 250.637 29.7602 254.1 27.5155C256.451 25.9603 259.038 24.7949 261.761 24.0644L263.346 23.6414L264.769 23.4064L265.991 23.205C266.367 23.1647 266.709 23.1513 267.012 23.1312L268.401 23.0304C268.555 23.0264 268.708 23.0061 268.858 22.97Z" fill="#455A64"/>
<g opacity="0.4">
<path opacity="0.4" d="M398.199 90.7826H280.977C266.593 90.7826 254.933 102.443 254.933 116.827V212.234C254.933 226.618 266.593 238.278 280.977 238.278H398.199C412.582 238.278 424.243 226.618 424.243 212.234V116.827C424.243 102.443 412.582 90.7826 398.199 90.7826Z" fill="#362A89"/>
</g>
<path d="M397.997 90.3797H280.775C266.392 90.3797 254.731 102.04 254.731 116.424V211.831C254.731 226.215 266.392 237.875 280.775 237.875H397.997C412.381 237.875 424.041 226.215 424.041 211.831V116.424C424.041 102.04 412.381 90.3797 397.997 90.3797Z" fill="#362A89"/>
<path d="M423.994 141.796H449.353L423.423 167.733L423.994 141.796Z" fill="#362A89"/>
<path d="M250.676 157.742L240.048 145.657C237.174 142.783 236.187 141.4 236.764 140.897C237.53 140.225 237.201 140.447 243.17 144.925C243.17 144.925 234.71 138.459 237.644 138.419C238.161 138.419 239.598 139.252 241.135 140.259C239.04 138.48 238.45 137.278 238.859 136.707C239.531 135.713 244.714 139.305 247.097 141.031C245.15 139.581 241.437 136.768 240.786 135.881C239.886 134.673 241.706 134.773 243.183 135.277C244.841 135.841 254.006 140.521 256.719 141.729C256.936 141.859 257.179 141.94 257.431 141.967C257.683 141.994 257.938 141.966 258.177 141.885C258.417 141.804 258.637 141.672 258.821 141.497C259.005 141.323 259.149 141.112 259.243 140.877C260.244 136.673 263.272 133.941 264.427 133.585C265.581 133.229 266.474 134.706 265.648 135.781C264.872 137.03 264.271 138.382 263.863 139.796C263.488 140.905 263.305 142.069 263.319 143.24C263.319 144.583 263.413 145.744 263.5 146.718L273.215 160.045L256.967 169.445L250.676 157.742Z" fill="#B78876"/>
<path d="M246.876 146.805C246.768 146.953 244.862 145.657 242.659 143.905C240.457 142.152 238.738 140.608 238.866 140.467C238.993 140.326 240.88 141.629 243.082 143.367C245.285 145.106 246.97 146.651 246.876 146.805Z" fill="#AA6550"/>
<path d="M248.93 144.683C248.823 144.838 246.735 143.562 244.264 141.843C241.793 140.125 239.873 138.6 239.98 138.453C240.088 138.305 242.176 139.567 244.647 141.286C247.118 143.005 249.038 144.529 248.93 144.683Z" fill="#AA6550"/>
<path d="M250.434 142.428C250.327 142.582 248.326 141.414 245.969 139.816C243.613 138.218 241.787 136.801 241.887 136.64C241.988 136.479 243.989 137.654 246.352 139.252C248.716 140.85 250.535 142.273 250.434 142.428Z" fill="#AA6550"/>
<path d="M264.406 148.524L303.133 197.631L294.264 218.277C294.264 218.277 283.642 215.927 280.42 211.455C277.197 206.984 250.676 157.742 250.676 157.742L264.406 148.524Z" fill="#B78876"/>
<path d="M362.714 79.8251C365.501 82.2422 365.494 86.499 365.172 90.1716C364.849 93.8442 364.601 98.0271 367.146 100.699C369.247 102.902 373.054 103.862 373.538 106.863C373.652 107.568 373.545 108.291 373.232 108.933C372.919 109.575 372.414 110.105 371.788 110.448C371.162 110.792 370.444 110.933 369.734 110.853C369.025 110.772 368.357 110.474 367.824 109.998C368.643 112.368 368.079 115.329 366.024 116.766C363.97 118.203 360.526 117.317 359.888 114.893C359.992 115.298 360.012 115.719 359.946 116.132C359.88 116.545 359.73 116.939 359.505 117.291C359.28 117.644 358.984 117.945 358.637 118.178C358.29 118.411 357.899 118.57 357.488 118.645C357.077 118.72 356.655 118.709 356.248 118.614C355.841 118.518 355.458 118.34 355.123 118.09C354.788 117.84 354.509 117.524 354.301 117.161C354.094 116.798 353.964 116.396 353.919 115.981" fill="#263238"/>
<path d="M322.812 104.614C322.438 105.513 321.721 106.226 320.82 106.597C319.919 106.968 318.908 106.966 318.009 106.591C317.109 106.216 316.396 105.499 316.025 104.598C315.654 103.698 315.656 102.686 316.031 101.787C316.669 100.39 318.18 99.3833 318.327 97.8525C318.502 96.0061 316.615 94.6834 314.97 93.8778C313.325 93.0721 311.338 92.0247 311.157 90.1716C310.976 88.3185 312.58 86.9958 313.916 85.8007C315.252 84.6056 316.602 82.7525 315.749 81.1612C315.326 80.3421 314.447 79.8788 313.876 79.147C312.62 77.549 313.278 75.0044 314.883 73.7757C316.488 72.547 318.703 72.3523 320.704 72.7082C322.705 73.064 324.585 73.8966 326.532 74.4807C329.76 75.4192 333.147 75.6783 336.48 75.2415C339.813 74.8046 343.019 73.6814 345.896 71.9427" fill="#263238"/>
<path d="M334.703 147.913C338.172 148.613 341.777 147.921 344.74 145.987C347.703 144.052 349.787 141.03 350.542 137.573L360.069 93.8912C360.664 91.3688 360.747 88.7528 360.313 86.1979C359.879 83.643 358.937 81.201 357.543 79.0164C356.149 76.8318 354.331 74.9489 352.197 73.479C350.062 72.0092 347.655 70.9822 345.117 70.4589L344.123 70.3112C339.269 69.5977 334.325 70.7389 330.275 73.5074C326.225 76.2759 323.366 80.4685 322.269 85.2501C320.147 94.4686 317.925 104.681 317.253 109.696C315.863 120.083 325.982 123.212 325.982 123.212L324.162 131.94C323.801 133.679 323.788 135.472 324.122 137.217C324.456 138.961 325.132 140.622 326.11 142.104C327.089 143.587 328.35 144.861 329.823 145.855C331.295 146.848 332.949 147.541 334.69 147.893L334.703 147.913Z" fill="#B78876"/>
<path d="M324.135 92.1254C324.076 92.5108 324.169 92.9041 324.395 93.2223C324.62 93.5405 324.96 93.7586 325.344 93.8307C325.529 93.8731 325.722 93.8778 325.909 93.8448C326.097 93.8118 326.276 93.7416 326.436 93.6384C326.596 93.5352 326.734 93.4011 326.842 93.2439C326.949 93.0867 327.024 92.9095 327.062 92.7229C327.125 92.3379 327.034 91.9437 326.81 91.6249C326.585 91.3061 326.244 91.088 325.861 91.0175C325.675 90.9752 325.482 90.9703 325.294 91.0033C325.106 91.0362 324.926 91.1063 324.765 91.2094C324.605 91.3126 324.466 91.4467 324.358 91.604C324.25 91.7612 324.174 91.9385 324.135 92.1254Z" fill="#263238"/>
<path d="M323.752 90.6483C323.907 90.8699 325.149 90.1985 326.747 90.4402C328.345 90.6819 329.386 91.642 329.587 91.4741C329.688 91.4003 329.547 91.0243 329.097 90.5812C328.477 90.0025 327.694 89.6296 326.854 89.5136C326.026 89.3886 325.18 89.5297 324.437 89.9165C323.893 90.2253 323.679 90.5476 323.752 90.6483Z" fill="#263238"/>
<path d="M339.705 94.6767C339.645 95.0625 339.737 95.4566 339.963 95.7752C340.188 96.0938 340.53 96.3116 340.914 96.3821C341.1 96.4244 341.293 96.4289 341.481 96.3955C341.669 96.362 341.848 96.2913 342.008 96.1874C342.168 96.0835 342.306 95.9486 342.413 95.7906C342.521 95.6327 342.595 95.4548 342.633 95.2676C342.693 94.8827 342.601 94.4893 342.375 94.1718C342.149 93.8543 341.808 93.6379 341.424 93.5689C341.238 93.5256 341.046 93.5201 340.858 93.5528C340.67 93.5854 340.49 93.6554 340.33 93.7588C340.17 93.8621 340.032 93.9966 339.924 94.1543C339.817 94.312 339.743 94.4897 339.705 94.6767Z" fill="#263238"/>
<path d="M339.369 93.2399C339.524 93.4548 340.766 92.7901 342.357 93.0318C343.948 93.2735 345.003 94.2336 345.204 94.0658C345.298 93.9919 345.164 93.6159 344.707 93.1728C344.088 92.5941 343.304 92.2212 342.465 92.1052C341.637 91.9802 340.79 92.1213 340.048 92.5081C339.531 92.7968 339.289 93.1392 339.369 93.2399Z" fill="#263238"/>
<path d="M331.856 104.211C331.856 104.117 330.91 103.801 329.339 103.365C328.936 103.264 328.566 103.123 328.54 102.834C328.567 102.411 328.722 102.007 328.983 101.673C329.515 100.746 330.068 99.7727 330.641 98.7522C332.957 94.5827 334.67 91.1384 334.529 91.0444C334.388 90.9504 332.346 94.2537 330.03 98.4299L328.419 101.371C328.093 101.827 327.937 102.383 327.976 102.942C328.017 103.09 328.091 103.227 328.192 103.344C328.293 103.46 328.418 103.552 328.56 103.613C328.775 103.705 329 103.771 329.231 103.808C330.086 104.051 330.968 104.186 331.856 104.211Z" fill="#263238"/>
<path d="M339.866 86.9354C339.96 87.3919 341.585 87.4188 343.418 87.9156C345.251 88.4125 346.688 89.1443 346.997 88.7952C347.131 88.6273 346.93 88.1775 346.386 87.6739C345.648 87.04 344.775 86.5829 343.834 86.3374C342.892 86.0919 341.908 86.0645 340.954 86.2572C340.202 86.4318 339.833 86.7541 339.866 86.9354Z" fill="#263238"/>
<path d="M325.015 86.1229C325.243 86.5258 326.358 86.3109 327.7 86.4855C329.043 86.6601 330.104 87.0898 330.386 86.7473C330.527 86.5795 330.386 86.1901 329.97 85.7738C329.374 85.2673 328.64 84.9495 327.863 84.8611C327.086 84.7726 326.3 84.9174 325.606 85.277C325.122 85.5791 324.914 85.9282 325.015 86.1229Z" fill="#263238"/>
<path d="M350.481 80.8725L350.528 80.9262C351.991 82.47 352.799 84.52 352.784 86.6467V86.8548C352.784 89.8762 352.24 92.8975 352.247 95.8853C352.254 98.8731 352.831 102.056 354.718 104.405C355.49 105.379 356.994 106.185 357.874 105.312C358.183 104.941 358.381 104.489 358.444 104.009C360.042 96.9528 362.916 90.9101 363.997 83.444C364.147 82.4446 364.056 81.4238 363.733 80.4663C363.409 79.5089 362.862 78.6423 362.137 77.9385C360.74 76.5956 359.002 75.1454 357.142 75.7161C355.282 76.2868 352.563 79.2074 351.012 80.416" fill="#263238"/>
<path d="M355.886 98.0674C356.074 98.0137 363.319 96.9998 362.05 104.056C360.781 111.113 353.993 108.387 353.993 108.179C353.993 107.971 355.886 98.0674 355.886 98.0674Z" fill="#B78876"/>
<path d="M356.625 105.896C356.625 105.896 356.732 106.003 356.92 106.131C357.191 106.31 357.521 106.378 357.84 106.319C358.632 106.178 359.472 105.11 359.733 103.842C359.868 103.243 359.868 102.621 359.733 102.022C359.706 101.79 359.622 101.568 359.49 101.375C359.358 101.182 359.181 101.024 358.975 100.914C358.84 100.851 358.688 100.837 358.544 100.875C358.4 100.913 358.275 101.001 358.189 101.122C358.062 101.297 358.082 101.451 358.041 101.451C358.001 101.451 357.914 101.31 358.041 101.028C358.111 100.861 358.237 100.723 358.397 100.639C358.617 100.527 358.873 100.505 359.109 100.578C359.39 100.69 359.638 100.873 359.828 101.108C360.019 101.343 360.146 101.623 360.197 101.921C360.383 102.577 360.408 103.268 360.27 103.936C359.968 105.352 359.002 106.547 357.934 106.661C357.734 106.683 357.532 106.659 357.342 106.591C357.153 106.524 356.981 106.415 356.84 106.272C356.605 106.064 356.598 105.903 356.625 105.896Z" fill="#AA6550"/>
<path d="M357.222 76.8508C359.384 74.2658 355.208 69.4988 351.851 67.8807C348.494 66.2626 343.66 67.2966 340.007 67.9411C337.704 68.3507 335.368 69.049 333.072 68.6125C331.548 68.2312 330.09 67.6223 328.748 66.8064C327.402 66.0052 325.909 65.4824 324.357 65.2689C323.576 65.1729 322.784 65.2916 322.066 65.6122C321.348 65.9328 320.731 66.4432 320.281 67.0885C319.482 68.4313 320.04 70.5328 321.543 70.9692C321.09 70.6251 320.56 70.3961 319.999 70.3019C319.438 70.2076 318.862 70.2509 318.321 70.428C317.78 70.6051 317.291 70.9108 316.894 71.3187C316.497 71.7267 316.205 72.2248 316.043 72.7704C315.882 73.3159 315.854 73.8926 315.964 74.451C316.074 75.0093 316.318 75.5327 316.675 75.9762C317.031 76.4197 317.49 76.77 318.012 76.9972C318.534 77.2243 319.103 77.3216 319.67 77.2805C318.777 76.3673 317.045 77.408 316.985 78.6837C316.924 79.9594 317.931 81.0404 318.999 81.7185C321.758 83.4507 325.263 83.538 328.472 82.9606C331.682 82.3832 334.757 81.1881 337.953 80.5301C341.149 79.8721 346.513 78.6233 349.4 80.1474C351.522 81.2619 352.69 84.1759 354.04 83.7797C354.679 83.5443 355.254 83.1633 355.72 82.6668C356.187 82.1703 356.531 81.5721 356.725 80.9195C357.089 79.6093 357.241 78.2493 357.175 76.891" fill="#263238"/>
<path d="M371.033 109.582C371.165 109.552 371.29 109.497 371.402 109.421C371.734 109.208 372 108.905 372.168 108.548C372.428 107.977 372.508 107.34 372.396 106.722C372.222 105.909 371.777 105.18 371.134 104.654C370.371 104.026 369.512 103.525 368.589 103.17C367.552 102.792 366.556 102.31 365.615 101.733C364.629 101.04 363.877 100.064 363.46 98.9335C363.001 97.7162 362.789 96.4199 362.835 95.1198C362.902 92.4342 363.648 89.9164 363.829 87.5463C364.01 85.1762 363.708 82.9539 362.701 81.4163C361.944 80.1798 360.743 79.2792 359.344 78.8985C358.969 78.8041 358.582 78.7656 358.196 78.7844C358.062 78.7865 357.928 78.8069 357.8 78.8448C358.309 78.8415 358.817 78.9047 359.31 79.0328C360.641 79.4534 361.769 80.3499 362.479 81.5506C363.413 83.0412 363.735 85.2031 363.5 87.5195C363.265 89.8358 362.547 92.3536 362.466 95.1131C362.423 96.4608 362.652 97.8033 363.137 99.061C363.587 100.255 364.39 101.284 365.44 102.009C366.404 102.587 367.423 103.068 368.482 103.445C369.38 103.778 370.22 104.25 370.973 104.842C371.586 105.327 372.021 106.003 372.208 106.762C372.331 107.34 372.274 107.942 372.047 108.488C371.839 108.955 371.483 109.339 371.033 109.582Z" fill="#455A64"/>
<path d="M321.315 70.8013C321.221 70.7307 321.117 70.6742 321.006 70.6335C320.881 70.5716 320.751 70.52 320.617 70.479C320.431 70.4154 320.24 70.3683 320.046 70.3381C319.409 70.2376 318.758 70.2833 318.142 70.4718C317.525 70.6602 316.96 70.9864 316.488 71.4257C316.01 72.008 315.652 72.6793 315.435 73.4008C315.219 74.1222 315.147 74.8795 315.226 75.6288C315.316 76.5594 315.592 77.4625 316.037 78.2848C316.482 79.107 317.087 79.8317 317.817 80.4159C319.495 81.7678 321.538 82.5883 323.685 82.7726C326.017 82.9731 328.365 82.8306 330.655 82.3496C334.286 81.6382 337.763 80.2928 340.927 78.3748C342.284 77.5359 343.702 76.8019 345.17 76.1793C346.451 75.6595 347.817 75.3796 349.199 75.3535C351.21 75.31 353.2 75.7717 354.987 76.6963C355.632 77.0577 356.258 77.4545 356.86 77.8847C356.322 77.3565 355.714 76.9047 355.054 76.5419C353.262 75.5438 351.243 75.0279 349.192 75.0446C347.776 75.0555 346.374 75.3263 345.056 75.8436C343.573 76.4654 342.138 77.1994 340.766 78.0391C337.624 79.9173 334.18 81.2371 330.587 81.94C328.331 82.4179 326.017 82.5649 323.719 82.3765C321.638 82.2038 319.654 81.4188 318.019 80.1205C317.315 79.5644 316.729 78.8736 316.296 78.0885C315.863 77.3035 315.59 76.4398 315.494 75.5482C315.412 74.8338 315.472 74.1102 315.67 73.4189C315.868 72.7276 316.201 72.0822 316.649 71.5197C317.097 71.0924 317.634 70.7701 318.221 70.5762C318.809 70.3823 319.432 70.3216 320.046 70.3985C320.481 70.4936 320.905 70.6285 321.315 70.8013Z" fill="#455A64"/>
<path d="M325.243 64.9265C325.219 65.466 325.303 66.0049 325.491 66.511C326.015 67.9101 326.994 69.0925 328.271 69.8681C329.129 70.4271 330.083 70.8231 331.084 71.0364C332.233 71.2678 333.409 71.3289 334.576 71.2176C337.04 71.0364 339.618 70.1904 342.324 69.4921C345.029 68.7938 347.735 68.4246 350.072 69.049C352.146 69.5984 353.99 70.7957 355.336 72.4665C356.261 73.5761 356.947 74.8655 357.35 76.2532C357.618 77.2402 357.652 77.8176 357.699 77.8109C357.708 77.6723 357.708 77.5332 357.699 77.3946C357.662 76.9988 357.597 76.6062 357.504 76.2196C357.146 74.7881 356.479 73.4521 355.55 72.3053C354.191 70.566 352.308 69.3111 350.179 68.7267C347.762 68.0553 344.982 68.438 342.263 69.143C339.544 69.848 336.986 70.6939 334.576 70.8886C333.44 71.0061 332.293 70.9586 331.172 70.7476C330.201 70.5502 329.274 70.1819 328.432 69.66C327.187 68.9259 326.212 67.8098 325.653 66.4775C325.473 65.9729 325.336 65.4541 325.243 64.9265Z" fill="#455A64"/>
<path d="M328.674 109.481C328.762 110.174 328.945 110.852 329.218 111.496C329.36 111.813 329.569 112.098 329.829 112.329C330.089 112.56 330.396 112.734 330.728 112.838C331.088 112.913 331.461 112.896 331.813 112.789C332.165 112.682 332.485 112.489 332.743 112.227C333.257 111.685 333.589 110.994 333.689 110.253C333.797 109.582 333.689 108.743 333.018 108.528C332.747 108.461 332.463 108.461 332.192 108.528L328.472 109.199" fill="#AA6550"/>
<path d="M329.325 112.301C329.917 112.529 330.545 112.647 331.178 112.65C331.834 112.612 332.452 112.329 332.91 111.858C333.181 111.57 333.387 111.228 333.516 110.854C333.644 110.48 333.692 110.083 333.656 109.69C333.636 109.488 333.591 109.289 333.521 109.099C333.434 108.917 333.461 108.931 333.307 108.911C333.152 108.891 332.91 108.911 332.709 108.944L332.085 108.991C331.279 109.052 330.554 109.099 329.943 109.132C329.274 109.225 328.594 109.212 327.929 109.092C328.557 108.863 329.215 108.727 329.882 108.689C330.487 108.602 331.225 108.515 332.011 108.421L332.628 108.353C332.851 108.321 333.075 108.301 333.3 108.293C333.478 108.298 333.649 108.359 333.79 108.468C333.915 108.578 334.01 108.719 334.065 108.877C334.157 109.119 334.215 109.372 334.24 109.629C334.284 110.112 334.221 110.6 334.055 111.056C333.889 111.512 333.624 111.926 333.28 112.268C332.707 112.813 331.942 113.109 331.151 113.094C330.635 113.096 330.128 112.954 329.688 112.684C329.459 112.496 329.305 112.328 329.325 112.301Z" fill="#263238"/>
<path d="M325.995 123.212C325.995 123.212 332.763 125.776 339.349 123.883C339.349 123.883 334.381 128.053 325.317 126.455L325.995 123.212Z" fill="#AA6550"/>
<path d="M336.321 219.472C335.995 219.258 335.685 219.02 335.395 218.76C335.106 218.525 334.723 218.237 334.314 217.928C333.904 217.619 333.407 217.256 332.837 216.887C332.266 216.518 331.675 216.115 330.984 215.732C330.292 215.35 329.56 214.947 328.775 214.544C325.33 212.849 321.627 211.741 317.817 211.267C316.938 211.173 316.105 211.066 315.32 211.046C314.534 211.026 313.802 210.992 313.137 210.999C312.473 211.005 311.862 211.039 311.331 211.059C310.801 211.079 310.344 211.12 309.989 211.16C309.604 211.219 309.216 211.246 308.827 211.24C309.205 211.144 309.588 211.072 309.975 211.026C310.42 210.949 310.868 210.896 311.318 210.864C311.848 210.824 312.453 210.75 313.131 210.75C313.809 210.75 314.541 210.71 315.333 210.75C316.125 210.791 316.971 210.858 317.857 210.938C319.779 211.177 321.678 211.568 323.538 212.107C325.383 212.674 327.18 213.39 328.909 214.248C329.694 214.665 330.453 215.047 331.118 215.477C331.783 215.907 332.414 216.289 332.964 216.679C333.515 217.068 333.998 217.444 334.421 217.767C334.844 218.089 335.193 218.398 335.469 218.653C335.775 218.902 336.06 219.176 336.321 219.472Z" fill="#FAFAFA"/>
<path d="M296.862 184.988L302.368 161.133C304.476 152.163 306.974 143.542 311.17 142.521V145.294L309.371 213.449C309.371 213.449 298.151 226.206 283.857 219.13C279.386 216.907 271.228 201.297 271.228 201.297C271.228 201.297 252.247 167.431 253.039 165.893C253.832 164.356 265.427 149.41 266.609 148.665L296.862 184.988Z" fill="#BE2696"/>
<path d="M353.516 135.767C364.46 137.862 376.78 144.247 382.454 160.609C384.522 166.585 399.588 210.636 399.588 210.636L373.893 210.099L369.744 201.028L371.758 215.766L373.497 236.781L308.612 237.875L309.069 206.212L309.693 143.233C309.693 143.233 310.418 142.28 321.611 136.11C328.553 132.276 353.516 135.767 353.516 135.767Z" fill="#BE2696"/>
<g opacity="0.2">
<path opacity="0.2" d="M359.988 177.891C361.056 191.185 362.278 195.294 363.346 208.588C363.371 209.847 363.598 211.094 364.017 212.281C364.241 212.872 364.601 213.401 365.068 213.827C365.534 214.252 366.094 214.562 366.703 214.732C368.596 215.115 371.053 216.484 371.584 214.631L369.791 201.827C369.406 199.965 368.811 198.152 368.019 196.422C364.037 187.58 362.567 187.063 359.962 177.891" fill="black"/>
</g>
<path d="M321.604 142.924L321.819 141.541L323.893 128.274C323.953 127.889 324.157 127.54 324.463 127.298C324.77 127.057 325.156 126.94 325.545 126.972L351.092 129.107C351.864 129.17 352.579 129.536 353.082 130.125C353.585 130.713 353.835 131.477 353.778 132.249L353.207 139.957L345.231 150.364L333.743 152.156" fill="#BE2696"/>
<path d="M308.773 167.867C308.874 167.867 308.948 178.261 308.948 191.078C308.948 203.895 308.874 214.289 308.773 214.289C308.673 214.289 308.599 203.895 308.599 191.078C308.599 178.261 308.679 167.867 308.773 167.867Z" fill="#263238"/>
<path d="M374.444 212.234C374.444 212.234 374.444 212.187 374.363 212.086C374.283 211.986 374.236 211.818 374.149 211.63L373.37 209.864L370.57 203.345L361.445 181.786C359.673 177.569 357.988 173.554 356.457 169.895C355.683 168.181 355.128 166.376 354.805 164.524C354.522 162.905 354.374 161.266 354.362 159.622C354.277 157.241 354.622 154.864 355.383 152.606L355.591 152.049L355.826 151.579C355.936 151.329 356.071 151.09 356.229 150.867L356.511 150.451C356.543 150.404 356.579 150.359 356.618 150.317C356.176 151.059 355.805 151.841 355.51 152.653C354.807 154.906 354.503 157.265 354.611 159.622C354.622 163.124 355.351 166.586 356.752 169.794L361.768 181.671L370.798 203.271L373.484 209.83L374.202 211.623L374.384 212.093C374.408 212.138 374.428 212.185 374.444 212.234Z" fill="#263238"/>
<path d="M361.479 138.11C361.244 138.349 360.995 138.573 360.734 138.782C359.979 139.357 359.156 139.838 358.283 140.212C356.901 140.789 355.453 141.194 353.973 141.42C352.016 141.724 350.043 141.919 348.064 142.004C345.862 142.098 343.458 142.058 340.88 142.105C338.142 142.101 335.413 142.434 332.756 143.099C329.813 143.794 327.149 145.365 325.115 147.604C324.102 148.823 323.377 150.255 322.994 151.794C322.584 153.371 322.612 155.031 323.074 156.594C323.331 157.366 323.71 158.091 324.196 158.743C324.685 159.375 325.303 159.897 326.008 160.274C326.693 160.648 327.473 160.812 328.251 160.744C329.011 160.665 329.715 160.306 330.225 159.736C330.679 159.137 331.002 158.449 331.173 157.717C331.344 156.985 331.36 156.225 331.219 155.486C331.107 154.757 330.88 154.05 330.547 153.392C330.216 152.749 329.817 152.144 329.359 151.586C327.564 149.517 325.147 148.087 322.47 147.51C320.151 146.963 317.733 146.991 315.427 147.591C313.53 148.081 311.719 148.858 310.056 149.894C308.789 150.683 307.594 151.582 306.484 152.579C305.564 153.385 304.913 154.083 304.47 154.54L303.973 155.077C303.918 155.141 303.858 155.2 303.791 155.251C304.582 154.253 305.458 153.325 306.41 152.479C307.509 151.462 308.7 150.549 309.968 149.753C311.648 148.684 313.482 147.883 315.407 147.376C317.751 146.747 320.214 146.706 322.577 147.255C325.324 147.834 327.806 149.293 329.647 151.411C330.117 151.971 330.526 152.579 330.869 153.224C331.208 153.915 331.435 154.656 331.541 155.419C331.658 156.197 331.645 156.989 331.501 157.763C331.356 158.568 331.002 159.32 330.473 159.945C329.909 160.578 329.128 160.978 328.284 161.066C327.438 161.146 326.586 160.971 325.841 160.562C325.091 160.162 324.435 159.609 323.914 158.937C323.401 158.254 323.002 157.492 322.732 156.682C322.249 155.057 322.222 153.332 322.651 151.693C323.043 150.101 323.794 148.619 324.847 147.362C326.93 145.078 329.654 143.475 332.662 142.763C335.349 142.106 338.107 141.786 340.873 141.81C343.458 141.769 345.862 141.81 348.051 141.749C350.022 141.681 351.988 141.504 353.939 141.219C355.411 141.008 356.853 140.624 358.236 140.078C359.104 139.725 359.928 139.275 360.694 138.735C360.962 138.553 361.143 138.386 361.278 138.292C361.339 138.225 361.406 138.164 361.479 138.11Z" fill="#FAFAFA"/>
<path d="M383.683 166.054C383.588 166.081 383.492 166.097 383.394 166.101C383.206 166.101 382.931 166.148 382.568 166.162C381.554 166.195 380.538 166.171 379.527 166.088C378.244 165.994 376.727 165.799 375.048 165.564C373.37 165.329 371.53 165.081 369.583 164.98C367.762 164.881 365.936 165.019 364.151 165.39C362.692 165.687 361.29 166.22 360.002 166.968C358.835 167.681 357.8 168.589 356.94 169.653C356.977 169.563 357.026 169.48 357.088 169.405C357.23 169.168 357.391 168.943 357.571 168.733C358.222 167.939 359 167.258 359.874 166.719C361.171 165.927 362.592 165.36 364.077 165.041C365.891 164.645 367.75 164.496 369.603 164.598C371.57 164.698 373.417 164.967 375.095 165.215C376.774 165.464 378.278 165.685 379.547 165.806C380.816 165.927 381.856 165.981 382.568 165.987C382.941 165.987 383.313 166.009 383.683 166.054Z" fill="#FAFAFA"/>
<path d="M367.549 196.154C366.286 195.86 364.988 195.749 363.695 195.825C362.177 195.927 360.676 196.195 359.216 196.624C357.504 197.087 355.591 197.765 353.442 198.43C351.109 199.221 348.668 199.645 346.204 199.685C343.368 199.685 340.562 199.102 337.959 197.973C335.068 196.751 332.495 194.881 330.44 192.508C329.328 191.268 328.421 189.858 327.754 188.332C327.044 186.752 326.777 185.009 326.982 183.29C327.216 181.556 328.061 179.963 329.365 178.798C330.013 178.233 330.79 177.836 331.628 177.643C332.448 177.469 333.297 177.493 334.106 177.711C334.914 177.929 335.66 178.336 336.281 178.899C336.888 179.455 337.309 180.183 337.49 180.987C337.663 181.773 337.6 182.593 337.308 183.343C337.026 184.065 336.599 184.72 336.053 185.27C335.011 186.313 333.753 187.113 332.367 187.613C331.714 187.861 331.04 188.048 330.352 188.171C330.017 188.231 329.681 188.305 329.352 188.352L328.352 188.473C325.898 188.716 323.421 188.541 321.027 187.956C319.052 187.486 317.148 186.754 315.367 185.78C314.019 185.053 312.756 184.179 311.6 183.175L310.928 182.591L310.378 182.034C310.081 181.753 309.803 181.452 309.545 181.134L309.062 180.557C309.007 180.494 308.957 180.427 308.914 180.355C308.979 180.411 309.04 180.472 309.096 180.537L309.599 181.087C309.865 181.395 310.15 181.687 310.452 181.96L311.009 182.504L311.68 183.075C312.842 184.051 314.105 184.899 315.447 185.606C317.219 186.553 319.109 187.262 321.067 187.714C323.438 188.279 325.887 188.438 328.311 188.184L329.292 188.063C329.621 188.01 329.963 187.936 330.285 187.875C330.957 187.754 331.615 187.57 332.252 187.325C333.593 186.836 334.81 186.059 335.818 185.049C336.331 184.529 336.733 183.91 336.999 183.229C337.263 182.537 337.321 181.784 337.167 181.06C336.968 180.321 336.571 179.65 336.018 179.12C335.466 178.59 334.779 178.221 334.032 178.053C333.267 177.832 332.458 177.809 331.682 177.986C330.906 178.164 330.187 178.535 329.594 179.066C328.351 180.174 327.547 181.692 327.331 183.343C327.139 184.998 327.394 186.675 328.07 188.198C328.719 189.688 329.598 191.068 330.675 192.286C332.695 194.616 335.221 196.453 338.06 197.658C340.621 198.776 343.383 199.36 346.178 199.377C348.616 199.346 351.035 198.939 353.348 198.168C355.49 197.497 357.377 196.865 359.143 196.416C360.617 196.001 362.132 195.751 363.661 195.67C364.218 195.636 364.776 195.636 365.333 195.67C365.81 195.744 366.219 195.778 366.541 195.852L367.273 196.033C367.37 196.06 367.463 196.101 367.549 196.154Z" fill="#FAFAFA"/>
<path d="M308.552 188.99C308.491 188.99 308.182 188.318 307.531 187.191C305.827 184.328 303.342 182.011 300.367 180.51C299.226 179.933 298.474 179.677 298.494 179.617C298.683 179.633 298.868 179.676 299.045 179.745C299.533 179.89 300.011 180.07 300.475 180.282C302.013 180.983 303.428 181.929 304.664 183.081C305.903 184.233 306.944 185.58 307.746 187.07C308 187.515 308.224 187.978 308.417 188.453C308.486 188.625 308.531 188.806 308.552 188.99Z" fill="#FAFAFA"/>
<path d="M282.501 217.726C282.501 217.726 282.454 217.673 282.393 217.558C282.333 217.444 282.232 217.263 282.118 217.055C281.876 216.612 281.527 215.947 281.098 215.088C279.85 212.662 278.821 210.129 278.023 207.521C277.489 205.709 277.166 203.841 277.062 201.955C277.009 200.901 277.052 199.845 277.19 198.799C277.357 197.692 277.622 196.603 277.982 195.543C278.766 193.252 280.123 191.199 281.923 189.581C282.885 188.698 284.016 188.02 285.247 187.587C286.479 187.155 287.785 186.976 289.087 187.063C290.441 187.164 291.704 187.779 292.619 188.782C293.054 189.278 293.37 189.866 293.544 190.502C293.717 191.139 293.743 191.806 293.619 192.454C293.474 193.09 293.142 193.668 292.666 194.113C292.201 194.539 291.638 194.845 291.028 195.006C289.846 195.313 288.591 195.162 287.516 194.583C286.519 194.044 285.647 193.301 284.958 192.401C284.298 191.567 283.754 190.648 283.34 189.668C282.614 187.91 282.312 186.005 282.461 184.109C282.596 182.544 283.053 181.024 283.803 179.644C284.359 178.603 285.07 177.652 285.912 176.824C286.438 176.299 287.016 175.829 287.637 175.421C287.845 175.28 288.02 175.192 288.134 175.125L288.309 175.038C288.309 175.038 288.094 175.192 287.677 175.481C287.078 175.909 286.518 176.39 286.006 176.918C285.201 177.753 284.523 178.701 283.991 179.731C283.278 181.094 282.851 182.588 282.736 184.122C282.606 185.982 282.919 187.845 283.649 189.561C284.057 190.511 284.589 191.403 285.234 192.213C285.901 193.074 286.743 193.786 287.704 194.301C288.708 194.841 289.879 194.98 290.981 194.69C291.546 194.558 292.064 194.272 292.477 193.865C292.891 193.457 293.184 192.944 293.324 192.381C293.431 191.787 293.403 191.178 293.242 190.597C293.082 190.016 292.793 189.478 292.397 189.023C291.541 188.089 290.359 187.517 289.094 187.426C287.84 187.343 286.581 187.515 285.395 187.931C284.209 188.348 283.119 189 282.192 189.849C280.434 191.43 279.106 193.43 278.331 195.664C277.969 196.7 277.702 197.768 277.532 198.853C277.393 199.881 277.346 200.919 277.391 201.955C277.486 203.821 277.792 205.67 278.305 207.467C279.078 210.069 280.066 212.602 281.259 215.041L282.219 217.055C282.32 217.27 282.4 217.444 282.467 217.579C282.534 217.713 282.501 217.726 282.501 217.726Z" fill="#FAFAFA"/>
<path d="M274.209 158.454C274.209 158.454 274.243 158.548 274.269 158.729C274.317 159.001 274.35 159.274 274.37 159.549C274.459 160.551 274.459 161.56 274.37 162.563C274.099 165.903 272.957 169.113 271.058 171.873C269.159 174.633 266.569 176.847 263.547 178.294C262.643 178.736 261.701 179.098 260.734 179.375C260.398 179.483 260.123 179.53 259.942 179.577C259.76 179.624 259.66 179.63 259.66 179.617C259.996 179.472 260.341 179.349 260.694 179.248C261.635 178.921 262.553 178.529 263.44 178.073C266.381 176.587 268.902 174.385 270.769 171.67C272.637 168.955 273.792 165.814 274.128 162.536C274.234 161.546 274.272 160.55 274.243 159.555C274.208 159.189 274.196 158.821 274.209 158.454Z" fill="#FAFAFA"/>
<path d="M389.557 187.567C388.559 188.192 387.681 188.993 386.966 189.93C386.294 190.796 385.623 191.944 384.864 193.153C384.032 194.506 383.072 195.776 381.997 196.946C380.032 199.07 377.701 200.823 375.115 202.123C374.337 202.517 373.534 202.86 372.712 203.15C372.412 203.268 372.102 203.358 371.785 203.419C372.063 203.26 372.355 203.127 372.658 203.022C373.222 202.774 374.041 202.425 375.001 201.901C377.51 200.553 379.779 198.799 381.715 196.711C382.779 195.559 383.734 194.312 384.569 192.985C385.236 191.876 385.965 190.804 386.751 189.775C387.297 189.086 387.947 188.486 388.678 187.996C388.876 187.865 389.085 187.75 389.302 187.654C389.477 187.587 389.557 187.553 389.557 187.567Z" fill="#FAFAFA"/>
<path d="M353.274 136.573C353.176 136.615 353.072 136.642 352.966 136.653L352.073 136.814C351.294 136.942 350.166 137.11 348.776 137.298C345.983 137.674 342.116 138.117 337.825 138.433C335.817 138.616 333.799 138.688 331.782 138.647C330.119 138.607 328.47 138.324 326.888 137.808C325.82 137.462 324.812 136.952 323.9 136.297C323.651 136.122 323.414 135.932 323.188 135.727C323.041 135.579 322.967 135.505 322.974 135.492C322.98 135.478 323.323 135.76 323.974 136.163C324.902 136.759 325.907 137.225 326.962 137.546C328.53 138.023 330.157 138.277 331.796 138.298C333.813 138.32 335.83 138.239 337.839 138.057C342.115 137.741 345.983 137.345 348.776 137.029L352.086 136.653C352.48 136.599 352.877 136.572 353.274 136.573Z" fill="#263238"/>
<path d="M399.286 215.39C399.792 217.987 399.719 220.664 399.075 223.23C398.43 225.797 397.229 228.19 395.556 230.24C393.883 232.291 391.779 233.948 389.394 235.094C387.01 236.241 384.402 236.849 381.756 236.875L330.896 236.311L332.239 219.841L375.787 213.302" fill="#B78876"/>
<path d="M335.354 220.56C335.119 220.633 332.185 219.318 329.553 218.102C326.761 216.809 323.697 216.214 320.624 216.37L308.498 216.988C308.498 216.988 309.243 219.002 310.512 219.673C311.781 220.345 319.388 220.56 319.388 220.56L318.999 220.956C317.408 222.594 315.239 223.544 312.956 223.601H311.795C310.935 223.533 310.085 223.366 309.263 223.104L306.276 221.896C305.369 221.493 304.416 221.553 304.02 222.466C303.623 223.38 303.926 224.427 306.396 225.669C307.773 226.34 312.889 228.133 312.889 228.133C312.924 228.861 313.025 229.585 313.191 230.295C313.413 231.04 315.42 231.786 315.42 231.786C315.942 232.89 316.539 233.958 317.206 234.982C317.441 235.25 319.261 235.821 321.201 236.365C324.329 237.24 327.641 237.215 330.755 236.291L335.375 234.908V220.808" fill="#B78876"/>
<path d="M318.771 229.765C316.634 229.71 314.54 229.159 312.654 228.153C312.654 228.073 313.997 228.583 315.695 229.019C317.394 229.456 318.777 229.664 318.771 229.765Z" fill="#AA6550"/>
<path d="M318.341 232.591C317.772 232.709 317.181 232.665 316.635 232.464C316.066 232.359 315.536 232.098 315.105 231.712C315.654 231.821 316.193 231.976 316.716 232.175C317.267 232.272 317.811 232.411 318.341 232.591Z" fill="#AA6550"/>
<path d="M320.557 219.465C320.291 219.839 319.977 220.175 319.623 220.466C318.819 221.233 317.932 221.909 316.978 222.48C316.017 223.041 314.972 223.444 313.883 223.675C313.445 223.792 312.992 223.842 312.54 223.823C314.04 223.478 315.49 222.938 316.85 222.218C317.783 221.656 318.67 221.02 319.502 220.318C319.828 220.003 320.181 219.718 320.557 219.465Z" fill="#AA6550"/>
<path d="M336.59 218.351L335.354 236.976H383.26C386.512 236.978 389.704 236.093 392.492 234.418C395.647 232.522 398.141 229.7 399.635 226.336C401.13 222.973 401.552 219.23 400.844 215.618C400.155 212.081 399.12 208.62 397.755 205.285L373.665 209.253L374.437 212.248L336.59 218.351Z" fill="#BE2696"/>
<path d="M385.536 210.683C385.377 210.729 385.216 210.765 385.052 210.791L383.649 211.046L378.472 211.905L361.446 214.591L344.398 217.203L339.229 217.955L337.819 218.143C337.654 218.165 337.488 218.179 337.322 218.183C337.481 218.128 337.645 218.089 337.812 218.069L339.208 217.82L344.365 216.954L361.392 214.269L378.472 211.637L383.642 210.885L385.052 210.697C385.213 210.675 385.375 210.67 385.536 210.683Z" fill="#263238"/>
<path d="M361.016 236.989C360.929 236.989 361.305 235.646 361.351 233.451C361.362 232.854 361.337 232.258 361.278 231.665C361.22 230.988 361.121 230.315 360.982 229.651C360.65 228.119 360.126 226.634 359.425 225.233C358.706 223.837 357.827 222.53 356.806 221.339L356.135 220.553C355.906 220.298 355.658 220.076 355.43 219.848C354.98 219.385 354.503 219.015 354.087 218.66C352.375 217.317 351.159 216.645 351.2 216.585C351.497 216.704 351.782 216.85 352.052 217.021C352.387 217.196 352.71 217.391 353.019 217.605C353.375 217.861 353.818 218.109 354.241 218.472C354.725 218.834 355.187 219.224 355.624 219.64C355.859 219.868 356.121 220.083 356.356 220.311L357.088 221.104C358.14 222.304 359.041 223.627 359.774 225.045C360.485 226.475 361.008 227.992 361.331 229.557C361.469 230.241 361.559 230.934 361.6 231.631C361.643 232.235 361.643 232.841 361.6 233.444C361.587 233.945 361.542 234.446 361.466 234.941C361.429 235.315 361.364 235.685 361.271 236.049C361.213 236.369 361.128 236.684 361.016 236.989Z" fill="#FAFAFA"/>
<path d="M390.182 235.586C389.434 235.581 388.688 235.493 387.96 235.324C387.1 235.127 386.267 234.832 385.475 234.444C384.426 233.922 383.478 233.218 382.676 232.363C381.702 231.315 380.995 230.049 380.614 228.67C380.402 227.904 380.283 227.115 380.258 226.32C380.21 225.48 380.278 224.637 380.46 223.816C380.639 222.941 380.976 222.106 381.454 221.352C381.952 220.552 382.645 219.891 383.468 219.432C384.319 218.935 385.298 218.702 386.281 218.76C386.787 218.795 387.28 218.932 387.731 219.163C388.182 219.394 388.582 219.714 388.906 220.103C389.242 220.487 389.494 220.937 389.646 221.423C389.799 221.91 389.849 222.423 389.792 222.93C389.71 223.422 389.519 223.889 389.233 224.298C388.948 224.707 388.574 225.047 388.141 225.293C386.516 226.144 384.644 226.401 382.85 226.018C380.303 225.621 377.975 224.346 376.27 222.414C374.564 220.481 373.588 218.013 373.511 215.437C373.468 214.689 373.531 213.938 373.699 213.208C373.637 213.947 373.619 214.689 373.645 215.43C373.77 217.451 374.431 219.402 375.559 221.083C376.399 222.318 377.483 223.367 378.744 224.167C380.005 224.967 381.416 225.501 382.89 225.736C384.605 226.105 386.394 225.867 387.953 225.065C388.342 224.845 388.678 224.541 388.936 224.175C389.194 223.809 389.367 223.391 389.443 222.95C389.483 222.49 389.431 222.027 389.292 221.588C389.152 221.148 388.927 220.741 388.63 220.388C388.332 220.036 387.968 219.746 387.558 219.534C387.148 219.323 386.7 219.194 386.241 219.156C385.33 219.094 384.422 219.302 383.629 219.754C382.883 220.2 382.242 220.801 381.749 221.517C381.257 222.233 380.925 223.047 380.775 223.903C380.594 224.7 380.524 225.518 380.567 226.334C380.586 227.103 380.696 227.867 380.896 228.61C381.25 229.952 381.923 231.189 382.857 232.215C383.625 233.058 384.533 233.76 385.542 234.29C386.316 234.685 387.131 234.994 387.973 235.21C389.383 235.525 390.189 235.539 390.182 235.586Z" fill="#FAFAFA"/>
<path d="M452.657 64.0151L427.815 123.771M182.078 237.911H127.022M182.078 229.182H127.022M182.078 219.111H127.022" stroke="white"/>
</svg>
