<svg width="177" height="52" viewBox="0 0 177 52" fill="none" xmlns="http://www.w3.org/2000/svg">
<path d="M65.22 36.2C63.8867 36.2 62.72 35.9067 61.72 35.32C60.72 34.7333 59.9467 33.9 59.4 32.82C58.8667 31.7267 58.6 30.4533 58.6 29C58.6 27.5467 58.8667 26.28 59.4 25.2C59.9467 24.1067 60.72 23.2667 61.72 22.68C62.72 22.0933 63.8867 21.8 65.22 21.8C66.3933 21.8 67.4067 22.0267 68.26 22.48C69.1133 22.92 69.74 23.5467 70.14 24.36L68.3 25.94C67.6067 24.8867 66.5933 24.36 65.26 24.36C64.1267 24.36 63.2667 24.7533 62.68 25.54C62.1067 26.3133 61.82 27.4667 61.82 29C61.82 30.52 62.1067 31.6733 62.68 32.46C63.2533 33.2467 64.0933 33.64 65.2 33.64C66.6 33.64 67.6333 33.1133 68.3 32.06L70.14 33.64C69.74 34.4533 69.1133 35.0867 68.26 35.54C67.4067 35.98 66.3933 36.2 65.22 36.2ZM71.8972 22H77.0372C80.2505 22 81.8572 23.32 81.8572 25.96C81.8572 26.8667 81.6705 27.6467 81.2972 28.3C80.9372 28.9533 80.4105 29.44 79.7172 29.76V29.8C79.9572 29.9733 80.1439 30.14 80.2772 30.3C80.4105 30.46 80.5172 30.6333 80.5972 30.82L82.6372 36H79.2372L77.6772 31.82C77.5305 31.4467 77.3372 31.2 77.0972 31.08C76.8705 30.96 76.4572 30.9 75.8572 30.9H75.1172V36H71.8972V22ZM76.6772 28.36C77.3305 28.36 77.8305 28.1933 78.1772 27.86C78.5372 27.5133 78.7172 27.02 78.7172 26.38C78.7172 25.1667 78.0239 24.56 76.6372 24.56H75.1172V28.36H76.6772ZM83.9089 22H93.4889V24.56H87.1289V27.38H92.8089V29.94H87.1289V33.44H93.4889V36H83.9089V22ZM103.032 33.92H98.4319L97.8119 36H94.4519L99.3319 22H102.132L107.012 36H103.652L103.032 33.92ZM102.252 31.36L100.732 26.32L99.2119 31.36H102.252ZM110.505 24.34H106.385V22H117.845V24.34H113.725V36H110.505V24.34ZM124.757 36.2C122.931 36.2 121.544 35.7267 120.597 34.78C119.664 33.82 119.197 32.4133 119.197 30.56V22H122.417V30.52C122.417 31.5467 122.611 32.3267 122.997 32.86C123.397 33.38 123.984 33.64 124.757 33.64C125.531 33.64 126.111 33.38 126.497 32.86C126.897 32.3267 127.097 31.5467 127.097 30.52V22H130.317V30.56C130.317 32.4133 129.844 33.82 128.897 34.78C127.964 35.7267 126.584 36.2 124.757 36.2ZM136.958 36.2C135.865 36.2 134.878 35.98 133.998 35.54C133.132 35.1 132.425 34.46 131.878 33.62L133.738 31.86C134.178 32.38 134.705 32.8067 135.318 33.14C135.945 33.4733 136.525 33.64 137.058 33.64C137.618 33.64 138.065 33.52 138.398 33.28C138.732 33.04 138.898 32.7267 138.898 32.34C138.898 32.0333 138.845 31.7933 138.738 31.62C138.645 31.4467 138.438 31.2667 138.118 31.08C137.812 30.88 137.278 30.5867 136.518 30.2C135.505 29.6933 134.712 29.2267 134.138 28.8C133.565 28.3733 133.132 27.9067 132.838 27.4C132.558 26.88 132.418 26.2667 132.418 25.56C132.418 24.8267 132.618 24.1733 133.018 23.6C133.418 23.0267 133.978 22.5867 134.698 22.28C135.432 21.96 136.272 21.8 137.218 21.8C138.272 21.8 139.192 21.9933 139.978 22.38C140.778 22.7667 141.365 23.3067 141.738 24L139.718 25.52C139.065 24.7467 138.285 24.36 137.378 24.36C136.818 24.36 136.385 24.4667 136.078 24.68C135.785 24.88 135.638 25.1667 135.638 25.54C135.638 25.78 135.725 26 135.898 26.2C136.072 26.4 136.372 26.6267 136.798 26.88C137.238 27.12 137.892 27.44 138.758 27.84C139.598 28.2267 140.258 28.62 140.738 29.02C141.218 29.4067 141.558 29.8533 141.758 30.36C141.972 30.8533 142.078 31.4533 142.078 32.16C142.078 32.9733 141.865 33.6867 141.438 34.3C141.025 34.9 140.432 35.3667 139.658 35.7C138.885 36.0333 137.985 36.2 136.958 36.2ZM148.44 22H153.58C156.793 22 158.4 23.32 158.4 25.96C158.4 26.8667 158.213 27.6467 157.84 28.3C157.48 28.9533 156.953 29.44 156.26 29.76V29.8C156.5 29.9733 156.687 30.14 156.82 30.3C156.953 30.46 157.06 30.6333 157.14 30.82L159.18 36H155.78L154.22 31.82C154.073 31.4467 153.88 31.2 153.64 31.08C153.413 30.96 153 30.9 152.4 30.9H151.66V36H148.44V22ZM153.22 28.36C153.873 28.36 154.373 28.1933 154.72 27.86C155.08 27.5133 155.26 27.02 155.26 26.38C155.26 25.1667 154.567 24.56 153.18 24.56H151.66V28.36H153.22ZM160.452 22H163.672V27.58H168.612V22H171.832V36H168.612V30.14H163.672V36H160.452V22Z" fill="#0A0240"/>
<circle cx="26" cy="26" r="26" fill="#0A0240"/>
<path d="M25.7402 37.247C25.4701 37.247 25.251 37.4646 25.251 37.733L25.251 39.6772C25.251 39.9456 25.4701 40.1633 25.7402 40.1633C26.0103 40.1633 26.2294 39.9456 26.2294 39.6772L26.2294 37.733C26.2294 37.4646 26.0104 37.247 25.7402 37.247Z" fill="#F0B369"/>
<path d="M31.7893 37.9362L30.811 36.253C30.6774 36.0197 30.3788 35.9381 30.1439 36.0708C29.9091 36.2035 29.8269 36.5002 29.9605 36.7335C29.9615 36.7354 29.9626 36.7373 29.9637 36.7391L30.9421 38.4223C31.0756 38.6557 31.3742 38.7373 31.6091 38.6046C31.844 38.4719 31.9261 38.1752 31.7925 37.9418C31.7915 37.9399 31.7904 37.938 31.7893 37.9362Z" fill="#F0B369"/>
<path d="M35.7337 33.67C35.7319 33.6689 35.73 33.6678 35.7281 33.6667L34.0341 32.6946C33.801 32.5589 33.5013 32.6366 33.3647 32.8682C33.2281 33.0998 33.3063 33.3975 33.5394 33.5333C33.5412 33.5343 33.5431 33.5354 33.545 33.5365L35.239 34.5086C35.4721 34.6443 35.7718 34.5667 35.9084 34.3351C36.045 34.1035 35.9668 33.8057 35.7337 33.67Z" fill="#F0B369"/>
<path d="M34.5452 28.4981C34.5452 28.7665 34.7642 28.9841 35.0344 28.9841L36.9911 28.9841C37.2612 28.9841 37.4802 28.7665 37.4802 28.4981C37.4802 28.2297 37.2612 28.012 36.9911 28.012L35.0344 28.012C34.7642 28.012 34.5452 28.2297 34.5452 28.4981Z" fill="#F0B369"/>
<path d="M34.0284 24.3048C34.0303 24.3037 34.0322 24.3026 34.0341 24.3015L35.7281 23.3294C35.9629 23.1968 36.0451 22.9 35.9116 22.6667C35.7781 22.4333 35.4795 22.3517 35.2446 22.4843C35.2427 22.4854 35.2408 22.4865 35.2389 22.4876L33.5449 23.4597C33.3101 23.5923 33.2279 23.889 33.3614 24.1224C33.4949 24.3558 33.7935 24.4374 34.0284 24.3048Z" fill="#F0B369"/>
<path d="M15.7466 23.3261C15.7485 23.3272 15.7504 23.3283 15.7523 23.3294L17.4463 24.3015C17.6793 24.4373 17.979 24.3596 18.1157 24.1281C18.2524 23.8966 18.1742 23.5987 17.9412 23.4629C17.9393 23.4618 17.9374 23.4608 17.9355 23.4597L16.2415 22.4876C16.0085 22.3518 15.7087 22.4294 15.5721 22.661C15.4354 22.8926 15.5136 23.1903 15.7466 23.3261Z" fill="#F0B369"/>
<path d="M14.4892 28.9841L16.4459 28.9841C16.716 28.9841 16.9351 28.7665 16.9351 28.4981C16.9351 28.2297 16.716 28.012 16.4459 28.012L14.4892 28.012C14.2191 28.012 14 28.2297 14 28.4981C14 28.7665 14.2191 28.9841 14.4892 28.9841Z" fill="#F0B369"/>
<path d="M17.6904 32.6295C17.6045 32.6295 17.5202 32.652 17.4458 32.6946L15.7518 33.6667C15.5169 33.7994 15.4348 34.0961 15.5684 34.3295C15.7019 34.5629 16.0006 34.6445 16.2354 34.5118C16.2373 34.5107 16.2391 34.5096 16.241 34.5085L17.935 33.5364C18.169 33.4022 18.2491 33.105 18.1141 32.8725C18.0266 32.7221 17.8651 32.6295 17.6904 32.6295Z" fill="#F0B369"/>
<path d="M21.3383 36.0749C21.3382 36.0748 21.338 36.0747 21.3378 36.0746C21.1038 35.9405 20.8046 36.0203 20.6697 36.2529C20.6697 36.253 20.6696 36.253 20.6696 36.253L19.6912 37.9362C19.5546 38.1677 19.6327 38.4656 19.8658 38.6014C20.0988 38.7372 20.3985 38.6595 20.5352 38.428C20.5363 38.4261 20.5374 38.4242 20.5385 38.4223L21.5168 36.7391C21.6521 36.5067 21.5722 36.2094 21.3383 36.0749Z" fill="#F0B369"/>
<path d="M24.7618 20.7213C24.4917 20.7213 24.2727 20.9389 24.2727 21.2073L24.2727 26.5539L23.2943 26.5539C22.2137 26.5539 21.3376 27.4243 21.3376 28.4981C21.3376 29.5718 22.2137 30.4423 23.2943 30.4423C24.375 30.4423 25.251 29.5718 25.251 28.4981L25.251 27.526L26.2293 27.526L26.2293 28.4981C26.2293 29.5718 27.1054 30.4423 28.186 30.4423C29.2667 30.4423 30.1427 29.5718 30.1427 28.4981C30.1427 27.4243 29.2667 26.5539 28.186 26.5539L27.2077 26.5539L27.2077 21.2073C27.2077 20.9389 26.9887 20.7213 26.7185 20.7213C26.4484 20.7213 26.2293 20.9389 26.2293 21.2073L26.2293 26.5539L25.251 26.5539L25.251 21.2073C25.251 20.9389 25.032 20.7213 24.7618 20.7213ZM24.2727 28.4981C24.2727 29.035 23.8347 29.4702 23.2943 29.4702C22.754 29.4702 22.316 29.035 22.316 28.4981C22.316 27.9612 22.754 27.526 23.2943 27.526L24.2727 27.526L24.2727 28.4981ZM27.2077 27.526L28.186 27.526C28.7264 27.526 29.1644 27.9612 29.1644 28.4981C29.1644 29.035 28.7264 29.4702 28.186 29.4702C27.6457 29.4702 27.2077 29.035 27.2077 28.4981L27.2077 27.526Z" fill="#F2AC57"/>
<path d="M25.3602 36.2656C29.6778 36.4717 33.3461 33.161 33.5535 28.871C33.6723 26.4145 32.6146 24.0469 30.7014 22.4866C30.3566 22.2182 30.1515 21.8101 30.1428 21.375L30.1428 20.2352C30.1402 19.6195 29.7487 19.0717 29.1644 18.8665L29.1644 18.291C29.1632 17.9312 29.0272 17.5846 28.7829 17.3189C29.2916 16.7694 29.2916 15.9242 28.7829 15.3747C29.3267 14.7823 29.2843 13.8641 28.6881 13.3237C28.4173 13.0783 28.0635 12.9429 27.6969 12.9445C27.4336 12.9376 27.2145 13.1442 27.2077 13.4058C27.205 13.5079 27.2356 13.6081 27.2948 13.6915C27.3103 13.7212 27.3286 13.7494 27.3496 13.7756C27.3899 13.8122 27.4358 13.8421 27.4856 13.8641C27.4998 13.8714 27.514 13.8772 27.5287 13.883C27.5782 13.901 27.6301 13.9113 27.6827 13.9137C27.6876 13.9137 27.692 13.9166 27.6969 13.9166C27.9671 13.9166 28.1861 14.1342 28.1861 14.4026C28.1861 14.671 27.9671 14.8887 27.6969 14.8887L25.7402 14.8887C25.4701 14.8887 25.2511 15.1063 25.2511 15.3747C25.2511 15.6431 25.4701 15.8608 25.7402 15.8608L27.6969 15.8608C27.9671 15.8608 28.1861 16.0784 28.1861 16.3468C28.1861 16.6152 27.9671 16.8329 27.6969 16.8329L25.7402 16.8329C25.4701 16.8329 25.2511 17.0505 25.2511 17.3189C25.2511 17.5873 25.4701 17.805 25.7402 17.805L27.6969 17.805C27.9671 17.805 28.1861 18.0226 28.1861 18.291L28.1861 18.7771L25.7402 18.7771C25.4701 18.7771 25.2511 18.9947 25.2511 19.2631C25.2511 19.5315 25.4701 19.7492 25.7402 19.7492L28.6753 19.7492C28.9454 19.7492 29.1644 19.9668 29.1644 20.2352L29.1644 21.375C29.1724 22.1018 29.5093 22.7864 30.0816 23.239C33.0037 25.6251 33.4257 29.9132 31.0242 32.8166C29.6505 34.4774 27.5677 35.3956 25.4066 35.293C21.7925 35.0794 18.9535 32.1363 18.8919 28.5394C18.8743 26.4705 19.8105 24.5074 21.4331 23.2108C22.0012 22.7459 22.326 22.0498 22.3161 21.3186L22.3161 20.2352C22.3161 19.9668 22.5351 19.7492 22.8052 19.7492L24.2727 19.7492C24.5429 19.7492 24.7619 19.5315 24.7619 19.2631C24.7619 18.9947 24.5429 18.7771 24.2727 18.7771L23.2944 18.7771L23.2944 18.291C23.2944 18.0226 23.5134 17.805 23.7836 17.805L24.2727 17.805C24.5429 17.805 24.7619 17.5873 24.7619 17.3189C24.7619 17.0505 24.5429 16.8329 24.2727 16.8329L23.7836 16.8329C23.5134 16.8329 23.2944 16.6152 23.2944 16.3468C23.2944 16.0784 23.5134 15.8608 23.7836 15.8608L24.2727 15.8608C24.5429 15.8608 24.7619 15.6431 24.7619 15.3747C24.7619 15.1063 24.5429 14.8887 24.2727 14.8887L23.7836 14.8887C23.5134 14.8887 23.2944 14.671 23.2944 14.4026C23.2944 14.1342 23.5134 13.9166 23.7836 13.9166L26.2294 13.9166C26.4996 13.9166 26.7186 13.6989 26.7186 13.4305C26.7186 13.1621 26.4996 12.9445 26.2294 12.9445L24.3564 12.9445C24.6265 12.1852 25.4649 11.7873 26.2291 12.0556C26.463 12.1378 26.6721 12.2776 26.837 12.4618C27.0166 12.6623 27.3259 12.6802 27.5277 12.5017C27.7295 12.3232 27.7474 12.0159 27.5678 11.8154C26.6732 10.8137 25.1307 10.7223 24.1226 11.6111C23.7062 11.9783 23.4286 12.4758 23.336 13.0213C22.5699 13.2592 22.143 14.0691 22.3823 14.8303C22.4459 15.0326 22.5536 15.2185 22.6976 15.3747C22.1889 15.9242 22.1889 16.7694 22.6976 17.3189C22.4533 17.5846 22.3173 17.9312 22.3161 18.291L22.3161 18.8665C21.7318 19.0717 21.3403 19.6195 21.3377 20.2352L21.3377 21.3186C21.3443 21.7553 21.1539 22.172 20.8187 22.4545C18.9633 23.9367 17.8929 26.1812 17.9135 28.5467C17.9842 32.6579 21.2292 36.0215 25.3602 36.2656Z" fill="#F2AC57"/>
</svg>
